<svg width="161" height="68" viewBox="0 0 161 68" fill="none" xmlns="http://www.w3.org/2000/svg">
<g clip-path="url(#clip0_3001_831)">
<path d="M12.0376 25.229C17.6362 25.229 21.267 26.3502 23.7841 28.7432C25.7782 30.6733 27.2531 33.4989 27.2531 37.4119C27.2531 42.1226 25.3154 45.9076 22.2076 48.2479C19.1525 50.543 15.2508 51.4724 10.3482 51.4724H0.599609V50.2759C4.0009 49.9674 4.19655 49.6701 4.19655 46.3516V30.3798C4.19655 26.9221 3.71872 26.7302 0.599609 26.4217V25.2252H12.0376V25.229ZM8.08697 46.0393C8.08697 49.038 9.27592 49.9072 12.2897 49.9072C19.2315 49.9072 22.8435 45.1514 22.8435 37.9838C22.8435 33.6833 21.4288 30.3309 18.479 28.4309C16.6504 27.1667 14.3515 26.7001 11.6463 26.7001C9.8892 26.7001 8.97116 26.956 8.59491 27.2645C8.23371 27.5279 8.08321 28.017 8.08321 29.5182V46.0393H8.08697Z" fill="white"/>
<path d="M45.5354 47.9356C42.9732 51.2391 40.076 51.9465 38.7103 51.9465C33.6986 51.9465 30.6924 47.9168 30.6924 43.2438C30.6924 40.4821 31.7271 37.8973 33.3901 36.1402C35.1095 34.2552 37.3369 33.213 39.4552 33.213C43.0484 33.213 45.7273 36.287 45.7198 39.5302C45.6859 40.3166 45.5806 40.738 44.9635 40.8923C44.1621 41.0616 38.9021 41.4115 34.2555 41.5695C34.184 46.7768 37.3294 48.9891 40.204 48.9891C41.8444 48.9891 43.387 48.3269 44.8732 46.9724L45.5317 47.9319L45.5354 47.9356ZM38.5184 34.7707C36.7048 34.7707 34.9666 36.5353 34.4586 39.7936C36.6108 39.7861 38.7404 39.7786 41.0016 39.6732C41.6977 39.6657 41.9422 39.4851 41.9422 38.8643C41.9836 36.746 40.6555 34.7707 38.5184 34.7707Z" fill="white"/>
<path d="M59.7119 51.4612V50.2873C61.9393 50.0465 62.1575 49.7831 62.1575 47.0327V40.3279C62.1575 37.4948 61.0739 35.7791 58.6358 35.7791C57.0894 35.7791 55.6371 36.6445 54.4143 37.7168V47.2246C54.4143 49.9524 54.64 50.0465 56.8938 50.291V51.4649H48.0557V50.291C50.6179 49.9938 50.8625 49.8546 50.8625 47.1983V38.8643C50.8625 36.2757 50.5728 36.1553 48.4658 35.7904V34.6955C50.5088 34.3794 52.6346 33.8565 54.4331 33.0964C54.4256 33.958 54.418 35.2749 54.418 36.2344C55.227 35.67 56.1074 35.0642 57.1346 34.3983C58.2784 33.6721 59.2792 33.2168 60.4493 33.2168C63.6888 33.2168 65.713 35.5985 65.713 39.5529V47.2171C65.713 49.9185 65.9538 50.0427 68.2264 50.291V51.4649H59.7156L59.7119 51.4612Z" fill="white"/>
<path d="M78.3178 51.4348C77.633 51.7923 76.9859 51.9465 76.6021 51.9465C73.9232 51.9465 72.4634 50.3926 72.4634 47.0854V35.4217H69.713L69.5361 34.9363L70.6423 33.6984H72.4634V30.3122C73.34 29.4769 74.6569 28.382 75.5411 27.5468L76.1318 27.6709C76.0603 29.2587 76.0114 31.5651 76.0189 33.6984H80.5189C80.8838 34.101 80.7521 35.0567 80.263 35.4179H76.0189V45.6744C76.0189 48.9215 77.3094 49.4858 78.3103 49.4858C79.2283 49.4858 80.0862 49.166 80.6806 48.8839L81.0531 50.0051L78.3216 51.4311L78.3178 51.4348Z" fill="white"/>
<path d="M95.783 51.9465C95.0907 51.9465 94.2028 51.6154 93.7776 51.1639C93.2471 50.6484 92.995 50.0803 92.7956 49.4068C91.1965 50.4829 89.2175 51.9465 88.0511 51.9465C85.075 51.9465 83.0244 49.5046 83.0244 46.9348C83.0244 44.9257 84.093 43.6953 86.2978 42.9127C88.7472 42.0586 91.8023 41.0239 92.7015 40.2827V39.3007C92.7015 36.5729 91.3696 35.004 89.3379 35.004C88.4537 35.004 87.8893 35.4254 87.4905 35.9107C87.039 36.4901 86.7794 37.363 86.4219 38.5407C86.2075 39.2669 85.7898 39.549 85.1502 39.549C84.3338 39.549 83.2652 38.7138 83.2652 37.713C83.2652 37.1185 83.7807 36.6256 84.6122 36.0462C85.899 35.1319 88.2468 33.6984 90.5419 33.213C91.8249 33.213 93.1004 33.578 94.0711 34.3192C95.5422 35.5307 96.1593 36.9605 96.1593 39.0524V46.7015C96.1593 48.5753 96.8365 49.1246 97.5514 49.1246C98.0217 49.1246 98.5259 48.9365 98.9699 48.7032L99.38 49.8771L95.7868 51.9465H95.783ZM92.6978 41.7388C91.8399 42.1753 90.1167 42.9428 89.2099 43.3529C87.7275 44.0339 86.8321 44.794 86.8321 46.2651C86.8321 48.4285 88.4386 49.3692 89.6615 49.3692C90.6246 49.3692 91.9189 48.8311 92.6978 48.0598V41.7388Z" fill="white"/>
<path d="M145.903 44.9144C145.339 46.8672 144.289 49.8057 143.676 51.0849C142.528 51.3257 139.349 52.0669 136.279 52.0669C126.41 52.0669 121.563 45.5465 121.563 38.5934C121.563 30.3348 127.843 24.6459 137.005 24.6459C140.485 24.6459 143.363 25.3946 144.635 25.5827C144.804 27.4151 145.087 29.9397 145.403 31.915L144.086 32.1972C143.269 29.413 142.257 27.7838 140.184 26.9372C139.149 26.4669 137.528 26.2073 136.075 26.2073C129.559 26.2073 126.146 31.1249 126.146 37.7318C126.146 45.4525 130.142 50.4603 136.501 50.4603C140.489 50.4603 142.551 48.5829 144.631 44.4742L145.899 44.9144H145.903Z" fill="white"/>
<path d="M154.734 29.1007C158.23 29.1007 160.619 31.7833 160.604 34.925C160.596 38.902 157.583 40.9224 154.772 40.9224C150.976 40.9224 148.722 38.078 148.726 35.1282C148.741 31.0534 152.18 29.0969 154.734 29.0969V29.1007ZM154.437 30.3197C153.064 30.3197 151.864 31.678 151.856 34.6203C151.815 38.0479 153.256 39.741 154.975 39.741C156.409 39.741 157.485 38.3338 157.534 35.3991C157.549 32.1521 156.363 30.3235 154.441 30.3235L154.437 30.3197Z" fill="white"/>
<path d="M154.629 52.067C153.094 52.067 152.021 50.9533 152.021 49.3392C152.021 47.725 153.094 46.6151 154.629 46.6151C156.164 46.6151 157.312 47.7965 157.312 49.3392C157.312 50.8818 156.172 52.067 154.629 52.067Z" fill="white"/>
<path d="M106.807 47.1794V22.7683C104.712 24.2169 102.496 24.9882 100.547 25.2704V26.3577C103.045 26.7039 103.252 26.9447 103.252 29.3414V47.1756C103.252 49.8206 102.973 50.02 100.438 50.2834V51.4573H109.592V50.2834C107.026 50.0351 106.804 49.8394 106.804 47.1756L106.807 47.1794Z" fill="white"/>
<path d="M76.4512 17.9222C76.0148 18.1179 75.5971 18.2044 75.2585 18.2044C73.6632 18.2044 72.4592 17.2036 72.4592 15.1493V8.04567H70.6833L70.5742 7.58289L71.4283 6.66108H72.4592V4.69706L74.7092 2.797L75.1607 2.93245V6.66108H78.1218C78.419 6.90188 78.3325 7.85002 77.9374 8.04567H75.1569V14.107C75.1569 16.0635 76.0637 16.3796 76.6017 16.3796C77.1398 16.3796 77.6439 16.2253 78.1895 15.9582L78.5131 16.9553L76.4475 17.9222H76.4512Z" fill="white"/>
<path d="M87.3363 17.9223V16.9628C88.8827 16.722 88.9956 16.5866 88.9956 15.1719V10.8563C88.9956 9.06161 88.0437 8.29782 86.6704 8.29782C85.6959 8.29782 85.0563 8.66654 84.3226 9.28359V15.1719C84.3226 16.5866 84.4844 16.7521 85.8389 16.9628V17.9223H79.8302V16.9628C81.512 16.7296 81.6173 16.5527 81.6098 15.2058V3.72263C81.6098 2.36813 81.3464 2.25526 79.7812 2.00317V1.08512C81.2637 0.930859 82.938 0.573423 84.3188 0.223511V8.15861C85.8426 6.75896 87.1256 6.42034 87.9684 6.42034C90.3426 6.42034 91.6858 8.12851 91.6858 10.5817V15.1644C91.6858 16.5866 91.7987 16.722 93.4316 16.9628V17.9223H87.3288H87.3363Z" fill="white"/>
<path d="M104.218 15.567C102.566 17.7304 100.422 18.2008 99.5864 18.2008C96.1287 18.2008 94.1421 15.4842 94.127 12.5382C94.112 9.17454 96.7645 6.37524 99.831 6.37524C102.517 6.37524 104.271 8.46343 104.305 10.657C104.305 11.3003 104.184 11.5863 103.759 11.6728C103.323 11.7518 99.7407 11.955 96.8586 12.0679C96.9188 14.7581 98.706 16.0674 100.576 16.0674C101.686 16.0674 102.721 15.646 103.684 14.8032L104.214 15.5595L104.218 15.567ZM100.933 10.7548C101.298 10.7548 101.49 10.6344 101.49 10.134C101.49 8.85473 100.73 7.50399 99.3719 7.50399C98.2695 7.50399 97.0919 8.62521 96.9376 10.8677L100.933 10.7548Z" fill="white"/>
<path d="M40.6998 63.2715L37.306 66.2477H40.8014V67.1206H35.7559V66.4095L39.1459 63.4333H35.8725V62.5604H40.696V63.2715H40.6998Z" fill="white"/>
<path d="M46.3511 66.1574H43.597L43.1078 67.1206H41.9941L44.4097 62.5642H45.5497L47.9652 67.1206H46.8402L46.3511 66.1574ZM45.9147 65.3108L44.9703 63.4559L44.0259 65.3108H45.9147Z" fill="white"/>
<path d="M54.6816 62.5642V67.1206H53.6394V65.2657H50.5354V67.1206H49.4932V62.5642H50.5354V64.3552H53.6394V62.5642H54.6816Z" fill="white"/>
<path d="M62.0029 62.5642V67.1206H61.0924L57.8228 63.8246V67.1206H56.8145V62.5642H57.9206L60.9946 65.6908V62.5642H62.0029Z" fill="white"/>
<path d="M67.8951 66.1574H65.1409L64.6518 67.1206H63.5381L65.9536 62.5642H67.0936L69.5092 67.1206H68.3842L67.8951 66.1574ZM67.4586 65.3108L66.5142 63.4559L65.5698 65.3108H67.4586Z" fill="white"/>
<path d="M75.0291 67.1206L73.7198 65.5704H72.0718V67.1206H71.0371V62.5642H74.1826C75.2963 62.5642 76.1353 63.0797 76.1353 64.0692C76.1353 64.8443 75.6198 65.3259 74.8673 65.5027L76.2745 67.1243H75.0329L75.0291 67.1206ZM74.1261 64.7126C74.6717 64.7126 75.078 64.5809 75.078 64.073C75.078 63.565 74.6754 63.4333 74.1261 63.4333H72.068V64.7088H74.1261V64.7126Z" fill="white"/>
<path d="M82.6062 63.2715L79.2162 66.2477H82.7115V67.1206H77.666V66.4095L81.0598 63.4333H77.7864V62.5604H82.6099V63.2715H82.6062Z" fill="white"/>
<path d="M89.0107 63.4597H87.0203V67.1168H85.9781V63.4597H83.999V62.5604H89.0107V63.4597Z" fill="white"/>
<path d="M95.7076 64.1068C95.7076 65.1152 94.925 65.6495 93.7548 65.6495H91.678V67.1206H90.6357V62.5642H93.7548C94.9287 62.5642 95.7076 63.1098 95.7076 64.1068ZM94.6466 64.1106C94.6466 63.5914 94.2553 63.4333 93.6683 63.4333H91.678V64.7878H93.6683C94.2553 64.7878 94.6466 64.6298 94.6466 64.1106Z" fill="white"/>
<path d="M101.415 67.1206L100.106 65.5704H98.4575V67.1206H97.4229V62.5642H100.568C101.682 62.5642 102.521 63.0797 102.521 64.0692C102.521 64.8443 102.006 65.3259 101.249 65.5027L102.656 67.1243H101.415V67.1206ZM100.512 64.7126C101.061 64.7126 101.464 64.5809 101.464 64.073C101.464 63.565 101.061 63.4333 100.512 63.4333H98.4538V64.7088H100.512V64.7126Z" fill="white"/>
<path d="M108.101 66.1574H105.347L104.858 67.1206H103.744L106.16 62.5642H107.3L109.715 67.1206H108.59L108.101 66.1574ZM107.665 65.3108L106.72 63.4559L105.776 65.3108H107.665Z" fill="white"/>
<path d="M113.986 64.8029L116.082 67.1206H114.806L113.335 65.5065L111.864 67.1206H110.652L112.741 64.8179L110.682 62.5642H111.958L113.395 64.1407L114.821 62.5642H116.04L113.982 64.8029H113.986Z" fill="white"/>
<path d="M117.616 67.1206V62.5642H118.658V67.1206H117.616Z" fill="white"/>
<path d="M125.63 65.7398C125.63 66.639 124.776 67.2636 123.162 67.2636C122.011 67.2636 121.074 66.9363 120.378 66.3455L120.976 65.6344C121.537 66.1499 122.259 66.3907 123.189 66.3907C124.118 66.3907 124.581 66.2139 124.581 65.8376C124.581 65.4614 124.11 65.356 123.064 65.2657C121.763 65.1566 120.551 64.8669 120.551 63.8924C120.551 62.9179 121.567 62.4213 122.974 62.4213C123.971 62.4213 124.829 62.6696 125.408 63.1173L124.836 63.8397C124.336 63.456 123.715 63.2979 122.974 63.2942C122.357 63.2866 121.601 63.3995 121.601 63.8134C121.601 64.2047 122.252 64.2423 123.155 64.3138C124.607 64.4304 125.63 64.7352 125.63 65.7398Z" fill="white"/>
<path d="M29.7472 64.2799H4.13965V65.1453H29.7472V64.2799Z" fill="white"/>
<path d="M157.25 64.2799H131.643V65.1453H157.25V64.2799Z" fill="white"/>
</g>
<defs>
<clipPath id="clip0_3001_831">
<rect width="160" height="67.0401" fill="white" transform="translate(0.599609 0.223511)"/>
</clipPath>
</defs>
</svg>
