<svg width="160" height="60" viewBox="0 0 160 60" fill="none" xmlns="http://www.w3.org/2000/svg">
<g clip-path="url(#clip0_3001_773)">
<path d="M55.5729 6.23575L39.7506 6.1819L39.7711 0.317139L13.8271 13.0032H55.5447L55.4369 46.2838L37.3041 46.2223L16.6788 50.1843C17.9327 51.946 19.9842 53.1051 22.3076 53.1128L55.4139 53.2256C59.2425 53.2385 62.3659 50.133 62.3787 46.3095L62.4916 13.2032C62.5044 9.37457 59.4015 6.25114 55.5754 6.23832L55.5729 6.23575Z" fill="white"/>
<path d="M51.5828 38.4445L46.4951 17.996C46.1386 16.56 44.4282 15.3958 42.6741 15.3958H2.7517C0.99509 15.3958 -0.217866 16.978 0.033444 18.9346L3.59538 46.7608C3.84669 48.72 5.52124 50.0176 7.35221 49.6637L8.25744 49.4893L24.3746 46.3941L48.9235 41.6782C50.7494 41.3269 51.9418 39.8831 51.5828 38.4419V38.4445ZM14.0555 33.0926C9.82172 33.5439 6.84446 37.4469 7.23938 41.9244L4.36726 20.7964L19.9229 20.3066L23.1925 39.519C22.2924 35.498 18.2893 32.6438 14.0555 33.0926ZM24.2977 24.2378L43.7871 23.112L43.9563 23.8352L24.4439 25.0661L24.2951 24.2378H24.2977ZM24.9337 27.792L44.5179 26.2149L44.6872 26.9381L25.0824 28.6203L24.9337 27.792ZM25.5696 31.3463L45.2462 29.3178L45.4155 30.041L25.7158 32.1746L25.5671 31.3463H25.5696ZM26.3543 35.7288L26.2056 34.9005L45.9771 32.4182L46.1463 33.1413L26.3543 35.7288Z" fill="#42E0DC"/>
<path d="M12.5016 22.8838C9.83463 23.0043 7.99596 25.3918 8.39857 28.2177C8.79862 31.0437 11.3143 33.1055 14.0146 32.8234C16.7149 32.5413 18.5484 30.1513 18.115 27.4843C17.6791 24.8199 15.1686 22.7607 12.5016 22.8813V22.8838Z" fill="#42E0DC"/>
<path d="M130.946 52.7384V37.2588H140.228V38.9216H132.82V44.152H139.532V45.8149H132.82V52.7384H130.946Z" fill="#42E0DC"/>
<path d="M118.454 52.7384V37.2588H127.736V38.9216H120.329V44.152H127.04V45.8149H120.329V52.7384H118.454Z" fill="#42E0DC"/>
<path d="M106.481 52.7384V37.2588H108.356V51.0755H115.552V52.7384H106.481Z" fill="#42E0DC"/>
<path d="M103.33 44.9985C103.33 46.6312 103.035 48.0421 102.445 49.2312C101.856 50.4204 101.047 51.3375 100.019 51.9825C98.9911 52.6275 97.8171 52.95 96.4969 52.95C95.1767 52.95 94.0026 52.6275 92.9746 51.9825C91.9467 51.3375 91.1379 50.4204 90.5484 49.2312C89.9588 48.0421 89.6641 46.6312 89.6641 44.9985C89.6641 43.3659 89.9588 41.955 90.5484 40.7658C91.1379 39.5767 91.9467 38.6596 92.9746 38.0146C94.0026 37.3696 95.1767 37.0471 96.4969 37.0471C97.8171 37.0471 98.9911 37.3696 100.019 38.0146C101.047 38.6596 101.856 39.5767 102.445 40.7658C103.035 41.955 103.33 43.3659 103.33 44.9985ZM101.516 44.9985C101.516 43.6582 101.291 42.527 100.843 41.6048C100.4 40.6827 99.7973 39.9848 99.0365 39.5112C98.2806 39.0375 97.4341 38.8007 96.4969 38.8007C95.5596 38.8007 94.7106 39.0375 93.9497 39.5112C93.1938 39.9848 92.5917 40.6827 92.1432 41.6048C91.6998 42.527 91.4781 43.6582 91.4781 44.9985C91.4781 46.3389 91.6998 47.4701 92.1432 48.3923C92.5917 49.3144 93.1938 50.0123 93.9497 50.4859C94.7106 50.9596 95.5596 51.1964 96.4969 51.1964C97.4341 51.1964 98.2806 50.9596 99.0365 50.4859C99.7973 50.0123 100.4 49.3144 100.843 48.3923C101.291 47.4701 101.516 46.3389 101.516 44.9985Z" fill="#42E0DC"/>
<path d="M73.6043 52.7384L69.3716 37.2588H71.2763L74.5113 49.8662H74.6625L77.9579 37.2588H80.0743L83.3697 49.8662H83.5209L86.7559 37.2588H88.6606L84.4279 52.7384H82.493L79.0766 40.4031H78.9556L75.5392 52.7384H73.6043Z" fill="#42E0DC"/>
<path d="M141.251 6.68237H144.412V23.9702C144.412 25.755 143.992 27.3487 143.15 28.7511C142.317 30.145 141.14 31.2456 139.619 32.0531C138.097 32.852 136.312 33.2515 134.264 33.2515C132.216 33.2515 130.431 32.852 128.909 32.0531C127.388 31.2456 126.207 30.145 125.365 28.7511C124.532 27.3487 124.116 25.755 124.116 23.9702V6.68237H127.277V23.7152C127.277 24.9901 127.558 26.1248 128.119 27.1192C128.68 28.1051 129.479 28.8828 130.516 29.4523C131.561 30.0132 132.811 30.2937 134.264 30.2937C135.717 30.2937 136.967 30.0132 138.012 29.4523C139.058 28.8828 139.857 28.1051 140.409 27.1192C140.97 26.1248 141.251 24.9901 141.251 23.7152V6.68237Z" fill="white"/>
<path d="M101.327 32.7925V6.68237H110.149C112.197 6.68237 113.872 7.0521 115.172 7.79154C116.481 8.52249 117.45 9.51267 118.079 10.7621C118.708 12.0115 119.022 13.4054 119.022 14.9438C119.022 16.4822 118.708 17.8803 118.079 19.1382C117.459 20.3962 116.498 21.3991 115.198 22.147C113.897 22.8865 112.231 23.2562 110.2 23.2562H103.876V20.4514H110.098C111.5 20.4514 112.627 20.2092 113.477 19.7247C114.326 19.2402 114.943 18.5858 115.325 17.7613C115.716 16.9284 115.912 15.9892 115.912 14.9438C115.912 13.8984 115.716 12.9634 115.325 12.139C114.943 11.3145 114.322 10.6686 113.464 10.2011C112.605 9.72516 111.466 9.48717 110.047 9.48717H104.488V32.7925H101.327Z" fill="white"/>
<path d="M69.3872 6.68237H73.1609L82.0343 28.3558H82.3403L91.2137 6.68237H94.9874V32.7925H92.0296V12.9549H91.7746L83.6152 32.7925H80.7594L72.6 12.9549H72.345V32.7925H69.3872V6.68237Z" fill="white"/>
</g>
<defs>
<clipPath id="clip0_3001_773">
<rect width="160" height="58.8528" fill="white" transform="translate(0 0.317139)"/>
</clipPath>
</defs>
</svg>
