<svg width="161" height="90" viewBox="0 0 161 90" fill="none" xmlns="http://www.w3.org/2000/svg">
<path d="M26.1125 57.9294L16.0252 48.1495L12.5996 61.7751L26.1125 57.9294Z" fill="#64BD5C"/>
<path d="M9.17432 75.4011L22.6872 71.5551L12.6 61.7753L9.17432 75.4011Z" fill="#3666B0"/>
<path d="M12.5996 61.7751L22.6868 71.555L26.1125 57.9294L12.5996 61.7751Z" fill="#5D8AC8"/>
<path d="M22.6872 71.5552L9.17432 75.4012L19.2616 85.1807L22.6872 71.5552Z" fill="#7A499D"/>
<path d="M9.17403 75.4015L5.74805 89.027L19.2613 85.181L9.17403 75.4015Z" fill="#5A357D"/>
<path d="M19.4517 34.5241L32.9645 30.678L22.8773 20.8986L19.4517 34.5241Z" fill="#D82027"/>
<path d="M32.9645 30.6785L19.4517 34.5245L29.5389 44.304L32.9645 30.6785Z" fill="#F18D21"/>
<path d="M19.4514 34.5243L16.0254 48.1498L29.5386 44.3038L19.4514 34.5243Z" fill="#EFD622"/>
<path d="M16.0254 48.1497L26.1126 57.9296L29.5386 44.3037L16.0254 48.1497Z" fill="#B1C935"/>
<path d="M7.65137 31.5575L17.7386 41.3373L21.1643 27.7118L7.65137 31.5575Z" fill="#64BD5C"/>
<path d="M24.59 14.0861L11.0771 17.9321L21.1644 27.7119L24.59 14.0861Z" fill="#3666B0"/>
<path d="M21.1643 27.7117L11.077 17.9319L7.65137 31.5574L21.1643 27.7117Z" fill="#5D8AC8"/>
<path d="M11.0771 17.932L24.59 14.086L14.5031 4.30652L11.0771 17.932Z" fill="#7A499D"/>
<path d="M24.5898 14.0859L28.0158 0.460327L14.5029 4.30636L24.5898 14.0859Z" fill="#5A357D"/>
<path d="M14.3127 54.9629L0.799805 58.8089L10.887 68.5884L14.3127 54.9629Z" fill="#D82027"/>
<path d="M0.799805 58.8089L14.3127 54.9628L4.22545 45.1833L0.799805 58.8089Z" fill="#F18D21"/>
<path d="M14.3128 54.963L17.7388 41.3375L4.22559 45.1836L14.3128 54.963Z" fill="#EFD622"/>
<path d="M17.7388 41.3374L7.65156 31.5576L4.22559 45.1835L17.7388 41.3374Z" fill="#B1C935"/>
<path d="M41.43 27.6954H38.9385V26.6005C41.1161 26.6005 42.9582 26.6005 45.1366 26.6005V27.6954H42.6546V34.1857H41.43V27.6954Z" fill="white"/>
<path d="M52.0421 34.1857V31.0325H48.0328V34.1857H46.8198V26.6005H48.0328V29.9056H52.0421V26.6005H53.2456V34.1857H52.0421Z" fill="white"/>
<path d="M61.3008 34.1857H55.6992C55.6992 31.6605 55.6992 29.1256 55.6992 26.6005H61.2683V27.7819H56.9122V29.8296H61.0952V30.9565H56.9122V32.9937H61.3008V34.1857Z" fill="white"/>
<path d="M46.8134 46.7175V38.9739H48.9833V50.4818H47.2243L41.1083 42.8209V50.4818H38.9385V38.9739H40.6974L46.8134 46.7175Z" fill="white"/>
<path d="M61.1563 50.4818H52.541C52.541 46.6507 52.541 42.805 52.541 38.9739H61.1563V41.0783H54.6949V43.7245H60.926V45.7471H54.6949V48.3438H61.1563V50.4818Z" fill="white"/>
<path d="M72.5382 41.7847C71.766 41.0457 70.6147 40.6348 69.612 40.6348C67.1463 40.6348 65.65 42.5088 65.65 44.8754C65.65 46.7654 66.7517 48.7225 69.612 48.7225C70.5156 48.7225 71.3055 48.5257 72.2088 47.8016V45.7631H69.2666V43.8236H74.1981V48.6733C73.0645 49.9718 71.6333 50.7441 69.612 50.7441C65.2883 50.7441 63.5293 47.901 63.5293 44.8758C63.5293 41.6378 65.5505 38.6461 69.612 38.6461C71.1569 38.6461 72.7028 39.2379 73.8863 40.4051L72.5382 41.7847Z" fill="white"/>
<path d="M88.394 44.7939C88.3604 47.7696 86.5359 50.744 82.4921 50.744C78.4482 50.744 76.5742 47.8351 76.5742 44.8099C76.5742 41.1769 79.2045 38.7434 82.5416 38.7434C86.4704 38.777 88.4276 41.8023 88.394 44.7939ZM82.4921 48.7546C85.2041 48.7546 86.2241 46.7174 86.2563 44.8258C86.2899 42.9023 85.1882 40.766 82.5416 40.7165C80.0918 40.7165 78.645 42.5569 78.7105 44.8435C78.76 46.7334 79.78 48.7546 82.4921 48.7546Z" fill="white"/>
<path d="M93.5786 40.9469H89.9297V38.9739C93.2508 38.9739 96.0616 38.9739 99.3991 38.9739V40.9469H95.7488V50.4818H93.5789V40.9469H93.5786Z" fill="white"/>
<path d="M101.87 50.4818V38.9739H104.024V50.4818H101.87Z" fill="white"/>
<path d="M115.617 48.3119H109.6L108.613 50.4818H106.263L111.424 38.9739H113.792L118.954 50.4818H116.586L115.617 48.3119ZM112.608 41.3901L110.472 46.2893H114.746L112.608 41.3901Z" fill="white"/>
<path d="M122.743 40.9469H119.094V38.9739C122.415 38.9739 125.226 38.9739 128.563 38.9739V40.9469H124.913V50.4818H122.743L122.743 40.9469Z" fill="white"/>
<path d="M131.034 50.4818V38.9739H133.188V50.4818H131.034Z" fill="white"/>
<path d="M147.888 44.7939C147.855 47.7696 146.03 50.744 141.986 50.744C137.942 50.744 136.068 47.8351 136.068 44.8099C136.068 41.1769 138.699 38.7434 142.036 38.7434C145.965 38.777 147.921 41.8023 147.888 44.7939ZM141.986 48.7546C144.698 48.7546 145.718 46.7174 145.75 44.8258C145.784 42.9023 144.682 40.766 142.036 40.7165C139.586 40.7165 138.139 42.5569 138.205 44.8435C138.254 46.7334 139.274 48.7546 141.986 48.7546Z" fill="white"/>
<path d="M158.63 46.7175V38.9739H160.8V50.4818H159.041L152.925 42.8209V50.4818H150.755V38.9739H152.514L158.63 46.7175Z" fill="white"/>
<path d="M44.0846 56.8074C43.7273 56.2869 43.0012 55.9727 42.2106 55.9622C41.1917 55.9622 40.4547 56.385 40.4547 57.1111C40.4547 57.8477 41.2999 58.0533 42.2968 58.1945C43.8566 58.4106 45.3417 58.8446 45.3417 60.5459C45.3312 62.2468 43.7809 62.8867 42.1991 62.8867C40.7478 62.8867 39.6315 62.4419 38.938 61.1637L39.8477 60.5567C40.3895 61.4779 41.3325 61.8027 42.2106 61.8027C43.1203 61.8027 44.1277 61.5 44.1277 60.5462C44.1277 59.722 43.2506 59.4408 42.1885 59.2996C40.6824 59.094 39.2522 58.7146 39.2522 57.0894C39.2417 55.518 40.812 54.911 42.178 54.911C43.272 54.911 44.3669 55.1713 45.0058 56.1902L44.0846 56.8074Z" fill="white"/>
<path d="M48.9754 56.2225H46.4839V55.1276C48.6612 55.1276 50.5037 55.1276 52.682 55.1276V56.2225H50.2V62.7128H48.9754V56.2225Z" fill="white"/>
<path d="M60.7034 55.1381V59.5697C60.7034 61.802 59.2301 62.918 57.3982 62.8536C55.7085 62.8105 54.2671 61.726 54.2671 59.5697V55.1381H55.4696V59.5697C55.4696 60.946 56.2717 61.6941 57.3982 61.7376C58.6122 61.802 59.5005 61.0114 59.5005 59.5697V55.1381H60.7034Z" fill="white"/>
<path d="M65.9309 55.1275C68.5205 55.1275 69.702 56.9805 69.7346 58.8552C69.7777 60.7733 68.5857 62.7124 65.9309 62.7124C65.0212 62.7124 63.9697 62.7124 63.0601 62.7124V55.1272L65.9309 55.1275ZM64.2626 61.5425H65.9309C67.7839 61.5425 68.5646 60.1767 68.5321 58.8443C68.4995 57.5651 67.7194 56.2866 65.9309 56.2866H64.2626V61.5425Z" fill="white"/>
<path d="M71.7329 62.7124V55.1272H72.9354V62.7124H71.7329Z" fill="white"/>
<path d="M82.6788 58.9525C82.6788 61.0012 81.4329 62.8752 78.7995 62.8752C76.1668 62.8752 74.9209 60.9571 74.9209 58.964C74.9209 56.6561 76.5357 54.9867 78.8216 54.9867C81.4112 54.9982 82.6788 56.9048 82.6788 58.9525ZM78.7995 61.7593C80.685 61.7593 81.4763 60.4271 81.4763 58.9749C81.4763 57.5773 80.6742 56.1251 78.8216 56.0925C77.0657 56.0925 76.1234 57.3171 76.1234 58.9749C76.1448 60.3182 76.9255 61.7593 78.7995 61.7593Z" fill="white"/>
</svg>
