<svg width="160" height="53" viewBox="0 0 160 53" fill="none" xmlns="http://www.w3.org/2000/svg">
<path d="M39.3402 19.036H20.6714V24.5825H33.9125C33.2564 32.346 26.7954 35.6784 20.6937 35.6784C18.7608 35.6869 16.8455 35.3097 15.0596 34.569C13.2738 33.8282 11.6533 32.7387 10.2927 31.3639C8.93201 29.9892 7.85851 28.3569 7.13484 26.5622C6.41118 24.7675 6.05184 22.8465 6.0778 20.9112C6.0778 12.5147 12.5701 6.05005 20.7116 6.05005C26.9922 6.05005 30.6932 10.0587 30.6932 10.0587L34.5701 6.03661C34.5701 6.03661 29.5898 0.487183 20.5088 0.487183C8.94522 0.487183 0 10.2588 0 20.8127C0 31.1546 8.41438 41.2398 20.8011 41.2398C31.6967 41.2398 39.6727 33.7659 39.6727 22.7148C39.6727 20.3827 39.3342 19.036 39.3342 19.036H39.3402Z" fill="#8EA2BC"/>
<path d="M54.6346 15.0184C46.9732 15.0184 41.4829 21.0158 41.4829 28.0074C41.4829 35.1051 46.8062 41.2129 54.7241 41.2129C61.8904 41.2129 67.7609 35.7291 67.7609 28.1597C67.7609 19.5004 60.9316 15.0184 54.6346 15.0184ZM54.7091 20.1633C58.4757 20.1633 62.0454 23.2134 62.0454 28.1268C62.0454 32.9343 58.4906 36.0725 54.6912 36.0725C50.5161 36.0725 47.2357 32.7252 47.2357 28.088C47.2357 23.5493 50.4863 20.1633 54.7211 20.1633H54.7091Z" fill="#8EA2BC"/>
<path d="M83.2357 15.0184C75.5744 15.0184 70.0841 21.0158 70.0841 28.0074C70.0841 35.1051 75.4074 41.2129 83.3252 41.2129C90.4915 41.2129 96.362 35.7291 96.362 28.1597C96.362 19.5004 89.5327 15.0184 83.2357 15.0184ZM83.3103 20.1633C87.0768 20.1633 90.6466 23.2134 90.6466 28.1268C90.6466 32.9343 87.0918 36.0725 83.2924 36.0725C79.1173 36.0725 75.8368 32.7252 75.8368 28.088C75.8368 23.5493 79.0874 20.1633 83.3222 20.1633H83.3103Z" fill="#8EA2BC"/>
<path d="M111.288 15.0334C104.256 15.0334 98.7299 21.1994 98.7299 28.1209C98.7299 36.0038 105.137 41.2323 111.166 41.2323C114.894 41.2323 116.877 39.7498 118.323 38.0492V40.6321C118.323 45.1514 115.583 47.8582 111.446 47.8582C107.45 47.8582 105.446 44.8826 104.736 43.1956L99.7081 45.2857C101.491 49.063 105.082 53 111.488 53C118.496 53 123.808 48.5912 123.808 39.3437V15.8202H118.344V18.0387C116.659 16.2173 114.351 15.0334 111.291 15.0334H111.288ZM111.795 20.1692C115.243 20.1692 118.782 23.1164 118.782 28.1492C118.782 33.2657 115.249 36.0845 111.719 36.0845C107.97 36.0845 104.483 33.0388 104.483 28.197C104.483 23.1686 108.106 20.1692 111.795 20.1692Z" fill="#8EA2BC"/>
<path d="M148.226 15.002C141.594 15.002 136.024 20.2872 136.024 28.0806C136.024 36.3308 142.232 41.2233 148.848 41.2233C154.383 41.2233 157.795 38.1926 159.808 35.4753L155.285 32.4625C154.112 34.2839 152.149 36.068 148.876 36.068C145.199 36.068 143.508 34.0525 142.46 32.0967L160 24.8109L159.105 22.676C157.411 18.4956 153.457 15.002 148.226 15.002ZM148.454 20.0393C150.845 20.0393 152.564 21.3114 153.294 22.8372L141.58 27.7387C141.073 23.9435 144.667 20.0393 148.439 20.0393H148.454Z" fill="#8EA2BC"/>
<path d="M127.649 40.447H133.41V1.84281H127.649V40.447Z" fill="#8EA2BC"/>
</svg>
