<svg width="24" height="25" viewBox="0 0 24 25" fill="none" xmlns="http://www.w3.org/2000/svg">
<path fill-rule="evenodd" clip-rule="evenodd" d="M0 12.5093C0 5.88186 5.37258 0.509277 12 0.509277C18.6274 0.509277 24 5.88186 24 12.5093C24 19.1367 18.6274 24.5093 12 24.5093C5.37258 24.5093 0 19.1367 0 12.5093ZM16.4434 10.2766C16.7398 9.86173 16.6437 9.28522 16.2288 8.98891C15.814 8.69259 15.2375 8.78868 14.9412 9.20352L10.9591 14.7784L8.96041 12.7796C8.59992 12.4192 8.01546 12.4192 7.65498 12.7796C7.29449 13.1401 7.29449 13.7246 7.65498 14.0851L10.4242 16.8543C10.6161 17.0462 10.8826 17.1439 11.1531 17.1215C11.4235 17.0991 11.6703 16.9589 11.8281 16.7381L16.4434 10.2766Z" fill="url(#paint0_linear_1278_4751)"/>
<defs>
<linearGradient id="paint0_linear_1278_4751" x1="24" y1="12.5093" x2="0" y2="12.5093" gradientUnits="userSpaceOnUse">
<stop stop-color="#808DFF"/>
<stop offset="1" stop-color="#90FFCA"/>
</linearGradient>
</defs>
</svg>
