<svg width="160" height="160" viewBox="0 0 160 160" fill="none" xmlns="http://www.w3.org/2000/svg">
<rect x="1.4" y="1.4" width="157.2" height="157.2" rx="78.6" fill="#070810"/>
<rect x="1.4" y="1.4" width="157.2" height="157.2" rx="78.6" fill="url(#paint0_linear_1147_6766)" fill-opacity="0.2"/>
<rect x="1.4" y="1.4" width="157.2" height="157.2" rx="78.6" stroke="white" stroke-width="2.8"/>
<rect x="1.4" y="1.4" width="157.2" height="157.2" rx="78.6" stroke="url(#paint1_linear_1147_6766)" stroke-opacity="0.5" stroke-width="2.8"/>
<g filter="url(#filter0_b_1147_6766)">
<circle cx="80" cy="64.8" r="16" fill="#070810"/>
<circle cx="80" cy="64.8" r="16" fill="url(#paint2_linear_1147_6766)" fill-opacity="0.2"/>
<circle cx="80" cy="64.8" r="16" stroke="white" stroke-width="3"/>
<circle cx="80" cy="64.8" r="16" stroke="url(#paint3_linear_1147_6766)" stroke-opacity="0.5" stroke-width="3"/>
<path d="M64.4706 84.6212C65.3206 84.2569 66.3096 84.5229 66.8622 85.2645L77.4802 99.515C77.8576 100.022 78.4522 100.32 79.0839 100.32H80.9161C81.5478 100.32 82.1424 100.022 82.5198 99.515L93.1378 85.2645C93.6904 84.5229 94.6794 84.2569 95.5294 84.6212L110.063 90.8499C111.116 91.3012 111.576 92.5429 111.07 93.5709L102.95 110.083C102.613 110.767 101.917 111.2 101.155 111.2H58.8452C58.0829 111.2 57.3869 110.767 57.0505 110.083L48.9299 93.5709C48.4244 92.5429 48.8839 91.3012 49.9368 90.8499L64.4706 84.6212Z" fill="#070810"/>
<path d="M64.4706 84.6212C65.3206 84.2569 66.3096 84.5229 66.8622 85.2645L77.4802 99.515C77.8576 100.022 78.4522 100.32 79.0839 100.32H80.9161C81.5478 100.32 82.1424 100.022 82.5198 99.515L93.1378 85.2645C93.6904 84.5229 94.6794 84.2569 95.5294 84.6212L110.063 90.8499C111.116 91.3012 111.576 92.5429 111.07 93.5709L102.95 110.083C102.613 110.767 101.917 111.2 101.155 111.2H58.8452C58.0829 111.2 57.3869 110.767 57.0505 110.083L48.9299 93.5709C48.4244 92.5429 48.8839 91.3012 49.9368 90.8499L64.4706 84.6212Z" fill="url(#paint4_linear_1147_6766)" fill-opacity="0.2"/>
<path d="M64.4706 84.6212C65.3206 84.2569 66.3096 84.5229 66.8622 85.2645L77.4802 99.515C77.8576 100.022 78.4522 100.32 79.0839 100.32H80.9161C81.5478 100.32 82.1424 100.022 82.5198 99.515L93.1378 85.2645C93.6904 84.5229 94.6794 84.2569 95.5294 84.6212L110.063 90.8499C111.116 91.3012 111.576 92.5429 111.07 93.5709L102.95 110.083C102.613 110.767 101.917 111.2 101.155 111.2H58.8452C58.0829 111.2 57.3869 110.767 57.0505 110.083L48.9299 93.5709C48.4244 92.5429 48.8839 91.3012 49.9368 90.8499L64.4706 84.6212Z" stroke="white" stroke-width="3"/>
<path d="M64.4706 84.6212C65.3206 84.2569 66.3096 84.5229 66.8622 85.2645L77.4802 99.515C77.8576 100.022 78.4522 100.32 79.0839 100.32H80.9161C81.5478 100.32 82.1424 100.022 82.5198 99.515L93.1378 85.2645C93.6904 84.5229 94.6794 84.2569 95.5294 84.6212L110.063 90.8499C111.116 91.3012 111.576 92.5429 111.07 93.5709L102.95 110.083C102.613 110.767 101.917 111.2 101.155 111.2H58.8452C58.0829 111.2 57.3869 110.767 57.0505 110.083L48.9299 93.5709C48.4244 92.5429 48.8839 91.3012 49.9368 90.8499L64.4706 84.6212Z" stroke="url(#paint5_linear_1147_6766)" stroke-opacity="0.5" stroke-width="3"/>
</g>
<defs>
<filter id="filter0_b_1147_6766" x="31.2236" y="31.3" width="97.5527" height="97.3999" filterUnits="userSpaceOnUse" color-interpolation-filters="sRGB">
<feFlood flood-opacity="0" result="BackgroundImageFix"/>
<feGaussianBlur in="BackgroundImageFix" stdDeviation="8"/>
<feComposite in2="SourceAlpha" operator="in" result="effect1_backgroundBlur_1147_6766"/>
<feBlend mode="normal" in="SourceGraphic" in2="effect1_backgroundBlur_1147_6766" result="shape"/>
</filter>
<linearGradient id="paint0_linear_1147_6766" x1="0" y1="80" x2="160" y2="80" gradientUnits="userSpaceOnUse">
<stop stop-color="#808DFF"/>
<stop offset="1" stop-color="#90FFCA"/>
</linearGradient>
<linearGradient id="paint1_linear_1147_6766" x1="0" y1="80" x2="160" y2="80" gradientUnits="userSpaceOnUse">
<stop stop-color="#808DFF"/>
<stop offset="1" stop-color="#90FFCA"/>
</linearGradient>
<linearGradient id="paint2_linear_1147_6766" x1="64" y1="64.8" x2="96" y2="64.8" gradientUnits="userSpaceOnUse">
<stop stop-color="#808DFF"/>
<stop offset="1" stop-color="#90FFCA"/>
</linearGradient>
<linearGradient id="paint3_linear_1147_6766" x1="64" y1="64.8" x2="96" y2="64.8" gradientUnits="userSpaceOnUse">
<stop stop-color="#808DFF"/>
<stop offset="1" stop-color="#90FFCA"/>
</linearGradient>
<linearGradient id="paint4_linear_1147_6766" x1="48" y1="97.6" x2="112" y2="97.6" gradientUnits="userSpaceOnUse">
<stop stop-color="#808DFF"/>
<stop offset="1" stop-color="#90FFCA"/>
</linearGradient>
<linearGradient id="paint5_linear_1147_6766" x1="48" y1="97.6" x2="112" y2="97.6" gradientUnits="userSpaceOnUse">
<stop stop-color="#808DFF"/>
<stop offset="1" stop-color="#90FFCA"/>
</linearGradient>
</defs>
</svg>
