<svg width="160" height="160" viewBox="0 0 160 160" fill="none" xmlns="http://www.w3.org/2000/svg">
<rect x="1.4" y="1.4" width="157.2" height="157.2" rx="78.6" fill="#070810"/>
<rect x="1.4" y="1.4" width="157.2" height="157.2" rx="78.6" fill="url(#paint0_linear_200_1625)" fill-opacity="0.2"/>
<rect x="1.4" y="1.4" width="157.2" height="157.2" rx="78.6" stroke="white" stroke-width="2.8"/>
<rect x="1.4" y="1.4" width="157.2" height="157.2" rx="78.6" stroke="url(#paint1_linear_200_1625)" stroke-opacity="0.5" stroke-width="2.8"/>
<g clip-path="url(#clip0_200_1625)">
<path d="M75 62.5C75 61.6716 75.6716 61 76.5 61C77.3284 61 78 61.6716 78 62.5V63.5C78 64.3284 77.3284 65 76.5 65C75.6716 65 75 64.3284 75 63.5V62.5Z" fill="white"/>
<path d="M75 62.5C75 61.6716 75.6716 61 76.5 61C77.3284 61 78 61.6716 78 62.5V63.5C78 64.3284 77.3284 65 76.5 65C75.6716 65 75 64.3284 75 63.5V62.5Z" fill="url(#paint2_linear_200_1625)" fill-opacity="0.5"/>
<path d="M76.5 75C75.6716 75 75 75.6716 75 76.5V77.5C75 78.3284 75.6716 79 76.5 79C77.3284 79 78 78.3284 78 77.5V76.5C78 75.6716 77.3284 75 76.5 75Z" fill="white"/>
<path d="M76.5 75C75.6716 75 75 75.6716 75 76.5V77.5C75 78.3284 75.6716 79 76.5 79C77.3284 79 78 78.3284 78 77.5V76.5C78 75.6716 77.3284 75 76.5 75Z" fill="url(#paint3_linear_200_1625)" fill-opacity="0.5"/>
<path d="M75 90.5C75 89.6716 75.6716 89 76.5 89C77.3284 89 78 89.6716 78 90.5V91.5C78 92.3284 77.3284 93 76.5 93C75.6716 93 75 92.3284 75 91.5V90.5Z" fill="white"/>
<path d="M75 90.5C75 89.6716 75.6716 89 76.5 89C77.3284 89 78 89.6716 78 90.5V91.5C78 92.3284 77.3284 93 76.5 93C75.6716 93 75 92.3284 75 91.5V90.5Z" fill="url(#paint4_linear_200_1625)" fill-opacity="0.5"/>
<path d="M76.5 68C75.6716 68 75 68.6716 75 69.5V70.5C75 71.3284 75.6716 72 76.5 72C77.3284 72 78 71.3284 78 70.5V69.5C78 68.6716 77.3284 68 76.5 68Z" fill="white"/>
<path d="M76.5 68C75.6716 68 75 68.6716 75 69.5V70.5C75 71.3284 75.6716 72 76.5 72C77.3284 72 78 71.3284 78 70.5V69.5C78 68.6716 77.3284 68 76.5 68Z" fill="url(#paint5_linear_200_1625)" fill-opacity="0.5"/>
<path d="M75 83.5C75 82.6716 75.6716 82 76.5 82C77.3284 82 78 82.6716 78 83.5V84.5C78 85.3284 77.3284 86 76.5 86C75.6716 86 75 85.3284 75 84.5V83.5Z" fill="white"/>
<path d="M75 83.5C75 82.6716 75.6716 82 76.5 82C77.3284 82 78 82.6716 78 83.5V84.5C78 85.3284 77.3284 86 76.5 86C75.6716 86 75 85.3284 75 84.5V83.5Z" fill="url(#paint6_linear_200_1625)" fill-opacity="0.5"/>
<path d="M83.5 61C82.6716 61 82 61.6716 82 62.5V63.5C82 64.3284 82.6716 65 83.5 65C84.3284 65 85 64.3284 85 63.5V62.5C85 61.6716 84.3284 61 83.5 61Z" fill="white"/>
<path d="M83.5 61C82.6716 61 82 61.6716 82 62.5V63.5C82 64.3284 82.6716 65 83.5 65C84.3284 65 85 64.3284 85 63.5V62.5C85 61.6716 84.3284 61 83.5 61Z" fill="url(#paint7_linear_200_1625)" fill-opacity="0.5"/>
<path d="M82 76.5C82 75.6716 82.6716 75 83.5 75C84.3284 75 85 75.6716 85 76.5V77.5C85 78.3284 84.3284 79 83.5 79C82.6716 79 82 78.3284 82 77.5V76.5Z" fill="white"/>
<path d="M82 76.5C82 75.6716 82.6716 75 83.5 75C84.3284 75 85 75.6716 85 76.5V77.5C85 78.3284 84.3284 79 83.5 79C82.6716 79 82 78.3284 82 77.5V76.5Z" fill="url(#paint8_linear_200_1625)" fill-opacity="0.5"/>
<path d="M83.5 89C82.6716 89 82 89.6716 82 90.5V91.5C82 92.3284 82.6716 93 83.5 93C84.3284 93 85 92.3284 85 91.5V90.5C85 89.6716 84.3284 89 83.5 89Z" fill="white"/>
<path d="M83.5 89C82.6716 89 82 89.6716 82 90.5V91.5C82 92.3284 82.6716 93 83.5 93C84.3284 93 85 92.3284 85 91.5V90.5C85 89.6716 84.3284 89 83.5 89Z" fill="url(#paint9_linear_200_1625)" fill-opacity="0.5"/>
<path d="M82 69.5C82 68.6716 82.6716 68 83.5 68C84.3284 68 85 68.6716 85 69.5V70.5C85 71.3284 84.3284 72 83.5 72C82.6716 72 82 71.3284 82 70.5V69.5Z" fill="white"/>
<path d="M82 69.5C82 68.6716 82.6716 68 83.5 68C84.3284 68 85 68.6716 85 69.5V70.5C85 71.3284 84.3284 72 83.5 72C82.6716 72 82 71.3284 82 70.5V69.5Z" fill="url(#paint10_linear_200_1625)" fill-opacity="0.5"/>
<path d="M83.5 82C82.6716 82 82 82.6716 82 83.5V84.5C82 85.3284 82.6716 86 83.5 86C84.3284 86 85 85.3284 85 84.5V83.5C85 82.6716 84.3284 82 83.5 82Z" fill="white"/>
<path d="M83.5 82C82.6716 82 82 82.6716 82 83.5V84.5C82 85.3284 82.6716 86 83.5 86C84.3284 86 85 85.3284 85 84.5V83.5C85 82.6716 84.3284 82 83.5 82Z" fill="url(#paint11_linear_200_1625)" fill-opacity="0.5"/>
<path d="M94 79.5C94 78.6716 94.6716 78 95.5 78C96.3284 78 97 78.6716 97 79.5V80.5C97 81.3284 96.3284 82 95.5 82C94.6716 82 94 81.3284 94 80.5V79.5Z" fill="white"/>
<path d="M94 79.5C94 78.6716 94.6716 78 95.5 78C96.3284 78 97 78.6716 97 79.5V80.5C97 81.3284 96.3284 82 95.5 82C94.6716 82 94 81.3284 94 80.5V79.5Z" fill="url(#paint12_linear_200_1625)" fill-opacity="0.5"/>
<path d="M94 86.5C94 85.6716 94.6716 85 95.5 85C96.3284 85 97 85.6716 97 86.5V87.5C97 88.3284 96.3284 89 95.5 89C94.6716 89 94 88.3284 94 87.5V86.5Z" fill="white"/>
<path d="M94 86.5C94 85.6716 94.6716 85 95.5 85C96.3284 85 97 85.6716 97 86.5V87.5C97 88.3284 96.3284 89 95.5 89C94.6716 89 94 88.3284 94 87.5V86.5Z" fill="url(#paint13_linear_200_1625)" fill-opacity="0.5"/>
<path d="M94 93.5C94 92.6716 94.6716 92 95.5 92C96.3284 92 97 92.6716 97 93.5V94.5C97 95.3284 96.3284 96 95.5 96C94.6716 96 94 95.3284 94 94.5V93.5Z" fill="white"/>
<path d="M94 93.5C94 92.6716 94.6716 92 95.5 92C96.3284 92 97 92.6716 97 93.5V94.5C97 95.3284 96.3284 96 95.5 96C94.6716 96 94 95.3284 94 94.5V93.5Z" fill="url(#paint14_linear_200_1625)" fill-opacity="0.5"/>
<path d="M100 79.5C100 78.6716 100.672 78 101.5 78C102.328 78 103 78.6716 103 79.5V80.5C103 81.3284 102.328 82 101.5 82C100.672 82 100 81.3284 100 80.5V79.5Z" fill="white"/>
<path d="M100 79.5C100 78.6716 100.672 78 101.5 78C102.328 78 103 78.6716 103 79.5V80.5C103 81.3284 102.328 82 101.5 82C100.672 82 100 81.3284 100 80.5V79.5Z" fill="url(#paint15_linear_200_1625)" fill-opacity="0.5"/>
<path d="M100 86.5C100 85.6716 100.672 85 101.5 85C102.328 85 103 85.6716 103 86.5V87.5C103 88.3284 102.328 89 101.5 89C100.672 89 100 88.3284 100 87.5V86.5Z" fill="white"/>
<path d="M100 86.5C100 85.6716 100.672 85 101.5 85C102.328 85 103 85.6716 103 86.5V87.5C103 88.3284 102.328 89 101.5 89C100.672 89 100 88.3284 100 87.5V86.5Z" fill="url(#paint16_linear_200_1625)" fill-opacity="0.5"/>
<path d="M100 93.5C100 92.6716 100.672 92 101.5 92C102.328 92 103 92.6716 103 93.5V94.5C103 95.3284 102.328 96 101.5 96C100.672 96 100 95.3284 100 94.5V93.5Z" fill="white"/>
<path d="M100 93.5C100 92.6716 100.672 92 101.5 92C102.328 92 103 92.6716 103 93.5V94.5C103 95.3284 102.328 96 101.5 96C100.672 96 100 95.3284 100 94.5V93.5Z" fill="url(#paint17_linear_200_1625)" fill-opacity="0.5"/>
<path d="M58.5 78C57.6716 78 57 78.6716 57 79.5V80.5C57 81.3284 57.6716 82 58.5 82C59.3284 82 60 81.3284 60 80.5V79.5C60 78.6716 59.3284 78 58.5 78Z" fill="white"/>
<path d="M58.5 78C57.6716 78 57 78.6716 57 79.5V80.5C57 81.3284 57.6716 82 58.5 82C59.3284 82 60 81.3284 60 80.5V79.5C60 78.6716 59.3284 78 58.5 78Z" fill="url(#paint18_linear_200_1625)" fill-opacity="0.5"/>
<path d="M58.5 85C57.6716 85 57 85.6716 57 86.5V87.5C57 88.3284 57.6716 89 58.5 89C59.3284 89 60 88.3284 60 87.5V86.5C60 85.6716 59.3284 85 58.5 85Z" fill="white"/>
<path d="M58.5 85C57.6716 85 57 85.6716 57 86.5V87.5C57 88.3284 57.6716 89 58.5 89C59.3284 89 60 88.3284 60 87.5V86.5C60 85.6716 59.3284 85 58.5 85Z" fill="url(#paint19_linear_200_1625)" fill-opacity="0.5"/>
<path d="M58.5 92C57.6716 92 57 92.6716 57 93.5V94.5C57 95.3284 57.6716 96 58.5 96C59.3284 96 60 95.3284 60 94.5V93.5C60 92.6716 59.3284 92 58.5 92Z" fill="white"/>
<path d="M58.5 92C57.6716 92 57 92.6716 57 93.5V94.5C57 95.3284 57.6716 96 58.5 96C59.3284 96 60 95.3284 60 94.5V93.5C60 92.6716 59.3284 92 58.5 92Z" fill="url(#paint20_linear_200_1625)" fill-opacity="0.5"/>
<path d="M64.5 78C63.6716 78 63 78.6716 63 79.5V80.5C63 81.3284 63.6716 82 64.5 82C65.3284 82 66 81.3284 66 80.5V79.5C66 78.6716 65.3284 78 64.5 78Z" fill="white"/>
<path d="M64.5 78C63.6716 78 63 78.6716 63 79.5V80.5C63 81.3284 63.6716 82 64.5 82C65.3284 82 66 81.3284 66 80.5V79.5C66 78.6716 65.3284 78 64.5 78Z" fill="url(#paint21_linear_200_1625)" fill-opacity="0.5"/>
<path d="M64.5 85C63.6716 85 63 85.6716 63 86.5V87.5C63 88.3284 63.6716 89 64.5 89C65.3284 89 66 88.3284 66 87.5V86.5C66 85.6716 65.3284 85 64.5 85Z" fill="white"/>
<path d="M64.5 85C63.6716 85 63 85.6716 63 86.5V87.5C63 88.3284 63.6716 89 64.5 89C65.3284 89 66 88.3284 66 87.5V86.5C66 85.6716 65.3284 85 64.5 85Z" fill="url(#paint22_linear_200_1625)" fill-opacity="0.5"/>
<path d="M64.5 92C63.6716 92 63 92.6716 63 93.5V94.5C63 95.3284 63.6716 96 64.5 96C65.3284 96 66 95.3284 66 94.5V93.5C66 92.6716 65.3284 92 64.5 92Z" fill="white"/>
<path d="M64.5 92C63.6716 92 63 92.6716 63 93.5V94.5C63 95.3284 63.6716 96 64.5 96C65.3284 96 66 95.3284 66 94.5V93.5C66 92.6716 65.3284 92 64.5 92Z" fill="url(#paint23_linear_200_1625)" fill-opacity="0.5"/>
<path fill-rule="evenodd" clip-rule="evenodd" d="M67.5 51C67.5 49.6193 68.6193 48.5 70 48.5H90C91.3807 48.5 92.5 49.6193 92.5 51V55C92.5 55.8179 92.1072 56.5441 91.5 57.0002V65.5H107C108.381 65.5 109.5 66.6193 109.5 68V72C109.5 72.8179 109.107 73.5441 108.5 74.0002V100.5H109C110.381 100.5 111.5 101.619 111.5 103V109C111.5 110.381 110.381 111.5 109 111.5H51C49.6193 111.5 48.5 110.381 48.5 109V103C48.5 101.619 49.6193 100.5 51 100.5H51.5V74.0002C50.8928 73.5441 50.5 72.8179 50.5 72V68C50.5 66.6193 51.6193 65.5 53 65.5H68.5V57.0002C67.8928 56.5441 67.5 55.8179 67.5 55V51ZM51.5 103.5V108.5H108.5V103.5H51.5ZM88.5 100.5V57.5H71.5V100.5H88.5ZM91.5 71.5H106.5V68.5H91.5V71.5ZM91.5 100.5H105.5V74.5H91.5V100.5ZM68.5 71.5H53.5V68.5H68.5V71.5ZM54.5 100.5V74.5H68.5V100.5H54.5ZM89.5 51.5V54.5H70.5V51.5H89.5Z" fill="white"/>
<path fill-rule="evenodd" clip-rule="evenodd" d="M67.5 51C67.5 49.6193 68.6193 48.5 70 48.5H90C91.3807 48.5 92.5 49.6193 92.5 51V55C92.5 55.8179 92.1072 56.5441 91.5 57.0002V65.5H107C108.381 65.5 109.5 66.6193 109.5 68V72C109.5 72.8179 109.107 73.5441 108.5 74.0002V100.5H109C110.381 100.5 111.5 101.619 111.5 103V109C111.5 110.381 110.381 111.5 109 111.5H51C49.6193 111.5 48.5 110.381 48.5 109V103C48.5 101.619 49.6193 100.5 51 100.5H51.5V74.0002C50.8928 73.5441 50.5 72.8179 50.5 72V68C50.5 66.6193 51.6193 65.5 53 65.5H68.5V57.0002C67.8928 56.5441 67.5 55.8179 67.5 55V51ZM51.5 103.5V108.5H108.5V103.5H51.5ZM88.5 100.5V57.5H71.5V100.5H88.5ZM91.5 71.5H106.5V68.5H91.5V71.5ZM91.5 100.5H105.5V74.5H91.5V100.5ZM68.5 71.5H53.5V68.5H68.5V71.5ZM54.5 100.5V74.5H68.5V100.5H54.5ZM89.5 51.5V54.5H70.5V51.5H89.5Z" fill="url(#paint24_linear_200_1625)" fill-opacity="0.5"/>
</g>
<defs>
<linearGradient id="paint0_linear_200_1625" x1="0" y1="80" x2="160" y2="80" gradientUnits="userSpaceOnUse">
<stop stop-color="#808DFF"/>
<stop offset="1" stop-color="#90FFCA"/>
</linearGradient>
<linearGradient id="paint1_linear_200_1625" x1="0" y1="80" x2="160" y2="80" gradientUnits="userSpaceOnUse">
<stop stop-color="#808DFF"/>
<stop offset="1" stop-color="#90FFCA"/>
</linearGradient>
<linearGradient id="paint2_linear_200_1625" x1="48.5" y1="80" x2="111.5" y2="80" gradientUnits="userSpaceOnUse">
<stop stop-color="#808DFF"/>
<stop offset="1" stop-color="#90FFCA"/>
</linearGradient>
<linearGradient id="paint3_linear_200_1625" x1="48.5" y1="80" x2="111.5" y2="80" gradientUnits="userSpaceOnUse">
<stop stop-color="#808DFF"/>
<stop offset="1" stop-color="#90FFCA"/>
</linearGradient>
<linearGradient id="paint4_linear_200_1625" x1="48.5" y1="80" x2="111.5" y2="80" gradientUnits="userSpaceOnUse">
<stop stop-color="#808DFF"/>
<stop offset="1" stop-color="#90FFCA"/>
</linearGradient>
<linearGradient id="paint5_linear_200_1625" x1="48.5" y1="80" x2="111.5" y2="80" gradientUnits="userSpaceOnUse">
<stop stop-color="#808DFF"/>
<stop offset="1" stop-color="#90FFCA"/>
</linearGradient>
<linearGradient id="paint6_linear_200_1625" x1="48.5" y1="80" x2="111.5" y2="80" gradientUnits="userSpaceOnUse">
<stop stop-color="#808DFF"/>
<stop offset="1" stop-color="#90FFCA"/>
</linearGradient>
<linearGradient id="paint7_linear_200_1625" x1="48.5" y1="80" x2="111.5" y2="80" gradientUnits="userSpaceOnUse">
<stop stop-color="#808DFF"/>
<stop offset="1" stop-color="#90FFCA"/>
</linearGradient>
<linearGradient id="paint8_linear_200_1625" x1="48.5" y1="80" x2="111.5" y2="80" gradientUnits="userSpaceOnUse">
<stop stop-color="#808DFF"/>
<stop offset="1" stop-color="#90FFCA"/>
</linearGradient>
<linearGradient id="paint9_linear_200_1625" x1="48.5" y1="80" x2="111.5" y2="80" gradientUnits="userSpaceOnUse">
<stop stop-color="#808DFF"/>
<stop offset="1" stop-color="#90FFCA"/>
</linearGradient>
<linearGradient id="paint10_linear_200_1625" x1="48.5" y1="80" x2="111.5" y2="80" gradientUnits="userSpaceOnUse">
<stop stop-color="#808DFF"/>
<stop offset="1" stop-color="#90FFCA"/>
</linearGradient>
<linearGradient id="paint11_linear_200_1625" x1="48.5" y1="80" x2="111.5" y2="80" gradientUnits="userSpaceOnUse">
<stop stop-color="#808DFF"/>
<stop offset="1" stop-color="#90FFCA"/>
</linearGradient>
<linearGradient id="paint12_linear_200_1625" x1="48.5" y1="80" x2="111.5" y2="80" gradientUnits="userSpaceOnUse">
<stop stop-color="#808DFF"/>
<stop offset="1" stop-color="#90FFCA"/>
</linearGradient>
<linearGradient id="paint13_linear_200_1625" x1="48.5" y1="80" x2="111.5" y2="80" gradientUnits="userSpaceOnUse">
<stop stop-color="#808DFF"/>
<stop offset="1" stop-color="#90FFCA"/>
</linearGradient>
<linearGradient id="paint14_linear_200_1625" x1="48.5" y1="80" x2="111.5" y2="80" gradientUnits="userSpaceOnUse">
<stop stop-color="#808DFF"/>
<stop offset="1" stop-color="#90FFCA"/>
</linearGradient>
<linearGradient id="paint15_linear_200_1625" x1="48.5" y1="80" x2="111.5" y2="80" gradientUnits="userSpaceOnUse">
<stop stop-color="#808DFF"/>
<stop offset="1" stop-color="#90FFCA"/>
</linearGradient>
<linearGradient id="paint16_linear_200_1625" x1="48.5" y1="80" x2="111.5" y2="80" gradientUnits="userSpaceOnUse">
<stop stop-color="#808DFF"/>
<stop offset="1" stop-color="#90FFCA"/>
</linearGradient>
<linearGradient id="paint17_linear_200_1625" x1="48.5" y1="80" x2="111.5" y2="80" gradientUnits="userSpaceOnUse">
<stop stop-color="#808DFF"/>
<stop offset="1" stop-color="#90FFCA"/>
</linearGradient>
<linearGradient id="paint18_linear_200_1625" x1="48.5" y1="80" x2="111.5" y2="80" gradientUnits="userSpaceOnUse">
<stop stop-color="#808DFF"/>
<stop offset="1" stop-color="#90FFCA"/>
</linearGradient>
<linearGradient id="paint19_linear_200_1625" x1="48.5" y1="80" x2="111.5" y2="80" gradientUnits="userSpaceOnUse">
<stop stop-color="#808DFF"/>
<stop offset="1" stop-color="#90FFCA"/>
</linearGradient>
<linearGradient id="paint20_linear_200_1625" x1="48.5" y1="80" x2="111.5" y2="80" gradientUnits="userSpaceOnUse">
<stop stop-color="#808DFF"/>
<stop offset="1" stop-color="#90FFCA"/>
</linearGradient>
<linearGradient id="paint21_linear_200_1625" x1="48.5" y1="80" x2="111.5" y2="80" gradientUnits="userSpaceOnUse">
<stop stop-color="#808DFF"/>
<stop offset="1" stop-color="#90FFCA"/>
</linearGradient>
<linearGradient id="paint22_linear_200_1625" x1="48.5" y1="80" x2="111.5" y2="80" gradientUnits="userSpaceOnUse">
<stop stop-color="#808DFF"/>
<stop offset="1" stop-color="#90FFCA"/>
</linearGradient>
<linearGradient id="paint23_linear_200_1625" x1="48.5" y1="80" x2="111.5" y2="80" gradientUnits="userSpaceOnUse">
<stop stop-color="#808DFF"/>
<stop offset="1" stop-color="#90FFCA"/>
</linearGradient>
<linearGradient id="paint24_linear_200_1625" x1="48.5" y1="80" x2="111.5" y2="80" gradientUnits="userSpaceOnUse">
<stop stop-color="#808DFF"/>
<stop offset="1" stop-color="#90FFCA"/>
</linearGradient>
<clipPath id="clip0_200_1625">
<rect width="64" height="64" fill="white" transform="translate(48 48)"/>
</clipPath>
</defs>
</svg>
