<svg width="42" height="42" viewBox="0 0 42 42" fill="none" xmlns="http://www.w3.org/2000/svg">
<path d="M32.0821 9.91809L24.6941 2.5301C22.654 0.489966 19.3462 0.489966 17.3061 2.5301L9.91813 9.91809M32.0821 9.91809L21.0001 21.0001M32.0821 9.91809L39.4701 17.3059C41.5102 19.346 41.5103 22.6537 39.4701 24.6939L32.0822 32.0818M21.0001 21.0001L9.91813 9.91809M21.0001 21.0001L32.0822 32.0818M21.0001 21.0001L9.91813 32.0819M9.91813 9.91809L2.53015 17.3058C0.489968 19.346 0.489946 22.6537 2.5301 24.6939L9.91813 32.0819M32.0822 32.0818L24.6941 39.4699C22.654 41.51 19.3462 41.51 17.3061 39.4699L9.91813 32.0819" stroke="url(#paint0_linear_2002_2425)" stroke-width="2"/>
<defs>
<linearGradient id="paint0_linear_2002_2425" x1="41.0002" y1="21" x2="1" y2="21" gradientUnits="userSpaceOnUse">
<stop stop-color="#808DFF"/>
<stop offset="1" stop-color="#90FFCA"/>
</linearGradient>
</defs>
</svg>
