<svg width="196" height="62" viewBox="0 0 196 62" fill="none" xmlns="http://www.w3.org/2000/svg">
<mask id="path-1-outside-1_1142_3261" maskUnits="userSpaceOnUse" x="0" y="0" width="196" height="62" fill="black">
<rect fill="white" width="196" height="62"/>
<path fill-rule="evenodd" clip-rule="evenodd" d="M172.453 60.8261V35.7826H177.097L190.314 54.0435V35.7826H194.784V60.8261H190.14L176.923 42.1826V60.8261H172.453Z"/>
<path fill-rule="evenodd" clip-rule="evenodd" d="M145.671 50.9826V35.7652H150.314V50.9826C150.314 54.9826 152.366 56.9652 156.453 56.9652C160.54 56.9652 162.593 54.9826 162.593 50.9826V35.7652H167.236V50.9826C167.236 57.6609 163.636 61 156.471 61C149.306 61 145.706 57.6609 145.706 50.9826H145.671Z"/>
<path fill-rule="evenodd" clip-rule="evenodd" d="M141.288 59.6783C139.271 60.5652 136.749 61 133.706 61C124.871 61 120.453 56.6522 120.453 47.9391C120.453 39.2261 124.958 35.5913 133.932 35.5913C142.906 35.5913 139.132 36.0087 141.288 36.8261V41.0174C139.132 40.0783 136.784 39.6261 134.28 39.6261C128.262 39.6261 125.271 42.3913 125.271 47.9391C125.271 53.487 128.106 56.9478 133.775 56.9478C139.445 56.9478 135.566 56.8087 136.645 56.5304V49.2435H141.288V59.6783Z"/>
<path fill-rule="evenodd" clip-rule="evenodd" d="M96.3839 35.7826H101.375L108.401 47.8348L115.027 35.7826H119.845L110.627 52.0609V60.8261H106.001V52.0609L96.3839 35.7826Z"/>
<path fill-rule="evenodd" clip-rule="evenodd" d="M76.8534 60.8261H72.1056L82.7317 35.7826H87.723L98.5578 60.8261H93.5839L90.7317 53.9913H82.4013L84.0013 49.9565H89.0448L85.1143 40.5478L76.8534 60.8261Z"/>
<path fill-rule="evenodd" clip-rule="evenodd" d="M51.0795 60.7913V35.7652H62.4535C67.5665 35.7652 70.123 38.0087 70.123 42.4783C70.123 46.9478 68.1404 48.0087 64.1578 49.9913L72.0882 60.8261H66.2274L58.61 49.9217V47.8C63.0448 47.0348 65.2535 45.313 65.2535 42.6348C65.2535 39.9565 64.21 39.8522 62.1404 39.8522H55.7752V60.7913H51.0795Z"/>
<path fill-rule="evenodd" clip-rule="evenodd" d="M25.1317 46.113C23.6535 46.5478 22.5578 47.9217 22.5578 49.5391C22.5578 51.1565 24.1578 53.1044 26.123 53.1044C28.0882 53.1044 29.6882 51.5043 29.6882 49.5391C29.6882 47.5739 28.61 46.5478 27.1143 46.113V27.5739H28.21C29.2187 27.5739 30.0535 28.3913 30.0535 29.4174V44.113C31.5143 45.3652 32.4535 47.2261 32.4535 49.2957C32.4535 53.2261 29.1491 56.3217 25.2361 56.0783C25.2361 56.8087 25.1491 61 24.1578 61C23.1665 61 23.0448 56.5478 23.0969 55.5913C21.9665 55.1391 21.0969 54.4783 20.3317 53.5217C4.24476 67.3652 -3.65089 59.6783 3.86215 48.8609C4.73172 47.5043 5.74041 47.4 6.85346 48.5478C8.73172 50.513 10.2622 51.4348 11.4622 51.3304C11.4274 50.9304 11.41 50.5478 11.4274 50.1478C11.4969 46.0087 13.8795 42.4435 17.323 40.6522C17.3578 34.8261 18.923 29.8348 21.1317 27.5739V25.6957C21.1317 25.1565 21.5665 24.7217 22.1056 24.7217H22.3839V23.5217C21.7056 23.4 21.2361 23.1739 21.2361 22.9304C21.2361 22.687 21.7056 22.4609 22.3839 22.3391V21.3826C21.6882 21.2609 21.2361 21.0348 21.2361 20.7913C21.2361 20.5478 21.6882 20.3217 22.3839 20.2V19.313C21.6882 19.1913 21.2361 18.9826 21.2361 18.7217C21.2361 18.4609 21.6882 18.2522 22.3839 18.1304V16.7391L17.9317 9.03478C17.7404 8.70435 17.7404 8.32174 17.9317 7.99131C18.123 7.66087 18.4535 7.46957 18.8361 7.46957H23.1491V3.53913C22.7143 3.33043 22.4187 2.87826 22.4187 2.33913C22.4187 1.8 23.0274 1 23.7578 1C24.4882 1 25.0969 1.6087 25.0969 2.33913C25.0969 3.06957 24.8013 3.31304 24.3665 3.53913V7.46957H28.6795C29.0621 7.46957 29.3926 7.64348 29.5839 7.99131C29.7752 8.32174 29.7752 8.70435 29.5839 9.03478L25.1491 16.7391V18.1478C25.8448 18.2696 26.2969 18.4957 26.2969 18.7391C26.2969 18.9826 25.8448 19.2087 25.1491 19.3304V20.2174C25.8448 20.3391 26.2969 20.5652 26.2969 20.8087C26.2969 21.0522 25.8448 21.2783 25.1491 21.4V22.3565C25.8448 22.4783 26.2969 22.7043 26.2969 22.9478C26.2969 23.1913 25.8448 23.4174 25.1491 23.5391V46.113H25.1317ZM17.6882 45.6261C17.5839 44.8783 17.4969 44.0956 17.4274 43.2957C15.2535 44.8261 13.81 47.3304 13.7578 50.2C13.7578 50.5478 13.7578 50.8957 13.7926 51.2261C15.4274 50.8957 17.1839 49.5913 16.4535 47.8348C16.1578 47.1565 16.5578 46.4261 17.6708 45.6261H17.6882Z"/>
<path fill-rule="evenodd" clip-rule="evenodd" d="M24.2969 49.5391C24.2969 48.513 25.1143 47.6783 26.1404 47.6783C27.1665 47.6783 27.9839 48.513 27.9839 49.5391C27.9839 50.5652 27.1665 51.3826 26.1404 51.3826C25.1143 51.3826 24.2969 50.5478 24.2969 49.5391Z"/>
<path d="M70.0535 1.03478V5.05217H62.8882V26.0435H58.2448V5.05217H51.0795V1.03478L70.0535 1.03478Z"/>
<path d="M89.81 1.03478V5.01739H77.2882V11.313H89.2187V15.4522H77.2361V22.0087H90.0535V26.0261H72.6795V1.03478L89.81 1.03478Z"/>
<path d="M96.9056 26.0609H92.1404L102.766 1.05217L107.758 1.05217L118.61 26.0609H113.619L110.766 19.2435H102.453L104.053 15.2261H109.097L105.166 5.83478L96.923 26.0783L96.9056 26.0609Z"/>
<path d="M121.653 26.0609V1.03478H126.471L134.958 20.0087L143.271 1.03478H147.914V26.0435H143.636V8.61739L136.853 26.0435H132.906L125.984 8.61739V26.0435H121.706L121.653 26.0609Z"/>
</mask>
<path fill-rule="evenodd" clip-rule="evenodd" d="M172.453 60.8261V35.7826H177.097L190.314 54.0435V35.7826H194.784V60.8261H190.14L176.923 42.1826V60.8261H172.453Z" fill="#070810"/>
<path fill-rule="evenodd" clip-rule="evenodd" d="M172.453 60.8261V35.7826H177.097L190.314 54.0435V35.7826H194.784V60.8261H190.14L176.923 42.1826V60.8261H172.453Z" fill="url(#paint0_linear_1142_3261)" fill-opacity="0.15"/>
<path fill-rule="evenodd" clip-rule="evenodd" d="M145.671 50.9826V35.7652H150.314V50.9826C150.314 54.9826 152.366 56.9652 156.453 56.9652C160.54 56.9652 162.593 54.9826 162.593 50.9826V35.7652H167.236V50.9826C167.236 57.6609 163.636 61 156.471 61C149.306 61 145.706 57.6609 145.706 50.9826H145.671Z" fill="#070810"/>
<path fill-rule="evenodd" clip-rule="evenodd" d="M145.671 50.9826V35.7652H150.314V50.9826C150.314 54.9826 152.366 56.9652 156.453 56.9652C160.54 56.9652 162.593 54.9826 162.593 50.9826V35.7652H167.236V50.9826C167.236 57.6609 163.636 61 156.471 61C149.306 61 145.706 57.6609 145.706 50.9826H145.671Z" fill="url(#paint1_linear_1142_3261)" fill-opacity="0.15"/>
<path fill-rule="evenodd" clip-rule="evenodd" d="M141.288 59.6783C139.271 60.5652 136.749 61 133.706 61C124.871 61 120.453 56.6522 120.453 47.9391C120.453 39.2261 124.958 35.5913 133.932 35.5913C142.906 35.5913 139.132 36.0087 141.288 36.8261V41.0174C139.132 40.0783 136.784 39.6261 134.28 39.6261C128.262 39.6261 125.271 42.3913 125.271 47.9391C125.271 53.487 128.106 56.9478 133.775 56.9478C139.445 56.9478 135.566 56.8087 136.645 56.5304V49.2435H141.288V59.6783Z" fill="#070810"/>
<path fill-rule="evenodd" clip-rule="evenodd" d="M141.288 59.6783C139.271 60.5652 136.749 61 133.706 61C124.871 61 120.453 56.6522 120.453 47.9391C120.453 39.2261 124.958 35.5913 133.932 35.5913C142.906 35.5913 139.132 36.0087 141.288 36.8261V41.0174C139.132 40.0783 136.784 39.6261 134.28 39.6261C128.262 39.6261 125.271 42.3913 125.271 47.9391C125.271 53.487 128.106 56.9478 133.775 56.9478C139.445 56.9478 135.566 56.8087 136.645 56.5304V49.2435H141.288V59.6783Z" fill="url(#paint2_linear_1142_3261)" fill-opacity="0.15"/>
<path fill-rule="evenodd" clip-rule="evenodd" d="M96.3839 35.7826H101.375L108.401 47.8348L115.027 35.7826H119.845L110.627 52.0609V60.8261H106.001V52.0609L96.3839 35.7826Z" fill="#070810"/>
<path fill-rule="evenodd" clip-rule="evenodd" d="M96.3839 35.7826H101.375L108.401 47.8348L115.027 35.7826H119.845L110.627 52.0609V60.8261H106.001V52.0609L96.3839 35.7826Z" fill="url(#paint3_linear_1142_3261)" fill-opacity="0.15"/>
<path fill-rule="evenodd" clip-rule="evenodd" d="M76.8534 60.8261H72.1056L82.7317 35.7826H87.723L98.5578 60.8261H93.5839L90.7317 53.9913H82.4013L84.0013 49.9565H89.0448L85.1143 40.5478L76.8534 60.8261Z" fill="#070810"/>
<path fill-rule="evenodd" clip-rule="evenodd" d="M76.8534 60.8261H72.1056L82.7317 35.7826H87.723L98.5578 60.8261H93.5839L90.7317 53.9913H82.4013L84.0013 49.9565H89.0448L85.1143 40.5478L76.8534 60.8261Z" fill="url(#paint4_linear_1142_3261)" fill-opacity="0.15"/>
<path fill-rule="evenodd" clip-rule="evenodd" d="M51.0795 60.7913V35.7652H62.4535C67.5665 35.7652 70.123 38.0087 70.123 42.4783C70.123 46.9478 68.1404 48.0087 64.1578 49.9913L72.0882 60.8261H66.2274L58.61 49.9217V47.8C63.0448 47.0348 65.2535 45.313 65.2535 42.6348C65.2535 39.9565 64.21 39.8522 62.1404 39.8522H55.7752V60.7913H51.0795Z" fill="#070810"/>
<path fill-rule="evenodd" clip-rule="evenodd" d="M51.0795 60.7913V35.7652H62.4535C67.5665 35.7652 70.123 38.0087 70.123 42.4783C70.123 46.9478 68.1404 48.0087 64.1578 49.9913L72.0882 60.8261H66.2274L58.61 49.9217V47.8C63.0448 47.0348 65.2535 45.313 65.2535 42.6348C65.2535 39.9565 64.21 39.8522 62.1404 39.8522H55.7752V60.7913H51.0795Z" fill="url(#paint5_linear_1142_3261)" fill-opacity="0.15"/>
<path fill-rule="evenodd" clip-rule="evenodd" d="M25.1317 46.113C23.6535 46.5478 22.5578 47.9217 22.5578 49.5391C22.5578 51.1565 24.1578 53.1044 26.123 53.1044C28.0882 53.1044 29.6882 51.5043 29.6882 49.5391C29.6882 47.5739 28.61 46.5478 27.1143 46.113V27.5739H28.21C29.2187 27.5739 30.0535 28.3913 30.0535 29.4174V44.113C31.5143 45.3652 32.4535 47.2261 32.4535 49.2957C32.4535 53.2261 29.1491 56.3217 25.2361 56.0783C25.2361 56.8087 25.1491 61 24.1578 61C23.1665 61 23.0448 56.5478 23.0969 55.5913C21.9665 55.1391 21.0969 54.4783 20.3317 53.5217C4.24476 67.3652 -3.65089 59.6783 3.86215 48.8609C4.73172 47.5043 5.74041 47.4 6.85346 48.5478C8.73172 50.513 10.2622 51.4348 11.4622 51.3304C11.4274 50.9304 11.41 50.5478 11.4274 50.1478C11.4969 46.0087 13.8795 42.4435 17.323 40.6522C17.3578 34.8261 18.923 29.8348 21.1317 27.5739V25.6957C21.1317 25.1565 21.5665 24.7217 22.1056 24.7217H22.3839V23.5217C21.7056 23.4 21.2361 23.1739 21.2361 22.9304C21.2361 22.687 21.7056 22.4609 22.3839 22.3391V21.3826C21.6882 21.2609 21.2361 21.0348 21.2361 20.7913C21.2361 20.5478 21.6882 20.3217 22.3839 20.2V19.313C21.6882 19.1913 21.2361 18.9826 21.2361 18.7217C21.2361 18.4609 21.6882 18.2522 22.3839 18.1304V16.7391L17.9317 9.03478C17.7404 8.70435 17.7404 8.32174 17.9317 7.99131C18.123 7.66087 18.4535 7.46957 18.8361 7.46957H23.1491V3.53913C22.7143 3.33043 22.4187 2.87826 22.4187 2.33913C22.4187 1.8 23.0274 1 23.7578 1C24.4882 1 25.0969 1.6087 25.0969 2.33913C25.0969 3.06957 24.8013 3.31304 24.3665 3.53913V7.46957H28.6795C29.0621 7.46957 29.3926 7.64348 29.5839 7.99131C29.7752 8.32174 29.7752 8.70435 29.5839 9.03478L25.1491 16.7391V18.1478C25.8448 18.2696 26.2969 18.4957 26.2969 18.7391C26.2969 18.9826 25.8448 19.2087 25.1491 19.3304V20.2174C25.8448 20.3391 26.2969 20.5652 26.2969 20.8087C26.2969 21.0522 25.8448 21.2783 25.1491 21.4V22.3565C25.8448 22.4783 26.2969 22.7043 26.2969 22.9478C26.2969 23.1913 25.8448 23.4174 25.1491 23.5391V46.113H25.1317ZM17.6882 45.6261C17.5839 44.8783 17.4969 44.0956 17.4274 43.2957C15.2535 44.8261 13.81 47.3304 13.7578 50.2C13.7578 50.5478 13.7578 50.8957 13.7926 51.2261C15.4274 50.8957 17.1839 49.5913 16.4535 47.8348C16.1578 47.1565 16.5578 46.4261 17.6708 45.6261H17.6882Z" fill="#070810"/>
<path fill-rule="evenodd" clip-rule="evenodd" d="M25.1317 46.113C23.6535 46.5478 22.5578 47.9217 22.5578 49.5391C22.5578 51.1565 24.1578 53.1044 26.123 53.1044C28.0882 53.1044 29.6882 51.5043 29.6882 49.5391C29.6882 47.5739 28.61 46.5478 27.1143 46.113V27.5739H28.21C29.2187 27.5739 30.0535 28.3913 30.0535 29.4174V44.113C31.5143 45.3652 32.4535 47.2261 32.4535 49.2957C32.4535 53.2261 29.1491 56.3217 25.2361 56.0783C25.2361 56.8087 25.1491 61 24.1578 61C23.1665 61 23.0448 56.5478 23.0969 55.5913C21.9665 55.1391 21.0969 54.4783 20.3317 53.5217C4.24476 67.3652 -3.65089 59.6783 3.86215 48.8609C4.73172 47.5043 5.74041 47.4 6.85346 48.5478C8.73172 50.513 10.2622 51.4348 11.4622 51.3304C11.4274 50.9304 11.41 50.5478 11.4274 50.1478C11.4969 46.0087 13.8795 42.4435 17.323 40.6522C17.3578 34.8261 18.923 29.8348 21.1317 27.5739V25.6957C21.1317 25.1565 21.5665 24.7217 22.1056 24.7217H22.3839V23.5217C21.7056 23.4 21.2361 23.1739 21.2361 22.9304C21.2361 22.687 21.7056 22.4609 22.3839 22.3391V21.3826C21.6882 21.2609 21.2361 21.0348 21.2361 20.7913C21.2361 20.5478 21.6882 20.3217 22.3839 20.2V19.313C21.6882 19.1913 21.2361 18.9826 21.2361 18.7217C21.2361 18.4609 21.6882 18.2522 22.3839 18.1304V16.7391L17.9317 9.03478C17.7404 8.70435 17.7404 8.32174 17.9317 7.99131C18.123 7.66087 18.4535 7.46957 18.8361 7.46957H23.1491V3.53913C22.7143 3.33043 22.4187 2.87826 22.4187 2.33913C22.4187 1.8 23.0274 1 23.7578 1C24.4882 1 25.0969 1.6087 25.0969 2.33913C25.0969 3.06957 24.8013 3.31304 24.3665 3.53913V7.46957H28.6795C29.0621 7.46957 29.3926 7.64348 29.5839 7.99131C29.7752 8.32174 29.7752 8.70435 29.5839 9.03478L25.1491 16.7391V18.1478C25.8448 18.2696 26.2969 18.4957 26.2969 18.7391C26.2969 18.9826 25.8448 19.2087 25.1491 19.3304V20.2174C25.8448 20.3391 26.2969 20.5652 26.2969 20.8087C26.2969 21.0522 25.8448 21.2783 25.1491 21.4V22.3565C25.8448 22.4783 26.2969 22.7043 26.2969 22.9478C26.2969 23.1913 25.8448 23.4174 25.1491 23.5391V46.113H25.1317ZM17.6882 45.6261C17.5839 44.8783 17.4969 44.0956 17.4274 43.2957C15.2535 44.8261 13.81 47.3304 13.7578 50.2C13.7578 50.5478 13.7578 50.8957 13.7926 51.2261C15.4274 50.8957 17.1839 49.5913 16.4535 47.8348C16.1578 47.1565 16.5578 46.4261 17.6708 45.6261H17.6882Z" fill="url(#paint6_linear_1142_3261)" fill-opacity="0.15"/>
<path fill-rule="evenodd" clip-rule="evenodd" d="M24.2969 49.5391C24.2969 48.513 25.1143 47.6783 26.1404 47.6783C27.1665 47.6783 27.9839 48.513 27.9839 49.5391C27.9839 50.5652 27.1665 51.3826 26.1404 51.3826C25.1143 51.3826 24.2969 50.5478 24.2969 49.5391Z" fill="#070810"/>
<path fill-rule="evenodd" clip-rule="evenodd" d="M24.2969 49.5391C24.2969 48.513 25.1143 47.6783 26.1404 47.6783C27.1665 47.6783 27.9839 48.513 27.9839 49.5391C27.9839 50.5652 27.1665 51.3826 26.1404 51.3826C25.1143 51.3826 24.2969 50.5478 24.2969 49.5391Z" fill="url(#paint7_linear_1142_3261)" fill-opacity="0.15"/>
<path d="M70.0535 1.03478V5.05217H62.8882V26.0435H58.2448V5.05217H51.0795V1.03478L70.0535 1.03478Z" fill="#070810"/>
<path d="M70.0535 1.03478V5.05217H62.8882V26.0435H58.2448V5.05217H51.0795V1.03478L70.0535 1.03478Z" fill="url(#paint8_linear_1142_3261)" fill-opacity="0.15"/>
<path d="M89.81 1.03478V5.01739H77.2882V11.313H89.2187V15.4522H77.2361V22.0087H90.0535V26.0261H72.6795V1.03478L89.81 1.03478Z" fill="#070810"/>
<path d="M89.81 1.03478V5.01739H77.2882V11.313H89.2187V15.4522H77.2361V22.0087H90.0535V26.0261H72.6795V1.03478L89.81 1.03478Z" fill="url(#paint9_linear_1142_3261)" fill-opacity="0.15"/>
<path d="M96.9056 26.0609H92.1404L102.766 1.05217L107.758 1.05217L118.61 26.0609H113.619L110.766 19.2435H102.453L104.053 15.2261H109.097L105.166 5.83478L96.923 26.0783L96.9056 26.0609Z" fill="#070810"/>
<path d="M96.9056 26.0609H92.1404L102.766 1.05217L107.758 1.05217L118.61 26.0609H113.619L110.766 19.2435H102.453L104.053 15.2261H109.097L105.166 5.83478L96.923 26.0783L96.9056 26.0609Z" fill="url(#paint10_linear_1142_3261)" fill-opacity="0.15"/>
<path d="M121.653 26.0609V1.03478H126.471L134.958 20.0087L143.271 1.03478H147.914V26.0435H143.636V8.61739L136.853 26.0435H132.906L125.984 8.61739V26.0435H121.706L121.653 26.0609Z" fill="#070810"/>
<path d="M121.653 26.0609V1.03478H126.471L134.958 20.0087L143.271 1.03478H147.914V26.0435H143.636V8.61739L136.853 26.0435H132.906L125.984 8.61739V26.0435H121.706L121.653 26.0609Z" fill="url(#paint11_linear_1142_3261)" fill-opacity="0.15"/>
<path fill-rule="evenodd" clip-rule="evenodd" d="M172.453 60.8261V35.7826H177.097L190.314 54.0435V35.7826H194.784V60.8261H190.14L176.923 42.1826V60.8261H172.453Z" stroke="url(#paint12_linear_1142_3261)" stroke-width="2" mask="url(#path-1-outside-1_1142_3261)"/>
<path fill-rule="evenodd" clip-rule="evenodd" d="M172.453 60.8261V35.7826H177.097L190.314 54.0435V35.7826H194.784V60.8261H190.14L176.923 42.1826V60.8261H172.453Z" stroke="url(#paint13_linear_1142_3261)" stroke-opacity="0.5" stroke-width="2" mask="url(#path-1-outside-1_1142_3261)"/>
<path fill-rule="evenodd" clip-rule="evenodd" d="M145.671 50.9826V35.7652H150.314V50.9826C150.314 54.9826 152.366 56.9652 156.453 56.9652C160.54 56.9652 162.593 54.9826 162.593 50.9826V35.7652H167.236V50.9826C167.236 57.6609 163.636 61 156.471 61C149.306 61 145.706 57.6609 145.706 50.9826H145.671Z" stroke="url(#paint14_linear_1142_3261)" stroke-width="2" mask="url(#path-1-outside-1_1142_3261)"/>
<path fill-rule="evenodd" clip-rule="evenodd" d="M145.671 50.9826V35.7652H150.314V50.9826C150.314 54.9826 152.366 56.9652 156.453 56.9652C160.54 56.9652 162.593 54.9826 162.593 50.9826V35.7652H167.236V50.9826C167.236 57.6609 163.636 61 156.471 61C149.306 61 145.706 57.6609 145.706 50.9826H145.671Z" stroke="url(#paint15_linear_1142_3261)" stroke-opacity="0.5" stroke-width="2" mask="url(#path-1-outside-1_1142_3261)"/>
<path fill-rule="evenodd" clip-rule="evenodd" d="M141.288 59.6783C139.271 60.5652 136.749 61 133.706 61C124.871 61 120.453 56.6522 120.453 47.9391C120.453 39.2261 124.958 35.5913 133.932 35.5913C142.906 35.5913 139.132 36.0087 141.288 36.8261V41.0174C139.132 40.0783 136.784 39.6261 134.28 39.6261C128.262 39.6261 125.271 42.3913 125.271 47.9391C125.271 53.487 128.106 56.9478 133.775 56.9478C139.445 56.9478 135.566 56.8087 136.645 56.5304V49.2435H141.288V59.6783Z" stroke="url(#paint16_linear_1142_3261)" stroke-width="2" mask="url(#path-1-outside-1_1142_3261)"/>
<path fill-rule="evenodd" clip-rule="evenodd" d="M141.288 59.6783C139.271 60.5652 136.749 61 133.706 61C124.871 61 120.453 56.6522 120.453 47.9391C120.453 39.2261 124.958 35.5913 133.932 35.5913C142.906 35.5913 139.132 36.0087 141.288 36.8261V41.0174C139.132 40.0783 136.784 39.6261 134.28 39.6261C128.262 39.6261 125.271 42.3913 125.271 47.9391C125.271 53.487 128.106 56.9478 133.775 56.9478C139.445 56.9478 135.566 56.8087 136.645 56.5304V49.2435H141.288V59.6783Z" stroke="url(#paint17_linear_1142_3261)" stroke-opacity="0.5" stroke-width="2" mask="url(#path-1-outside-1_1142_3261)"/>
<path fill-rule="evenodd" clip-rule="evenodd" d="M96.3839 35.7826H101.375L108.401 47.8348L115.027 35.7826H119.845L110.627 52.0609V60.8261H106.001V52.0609L96.3839 35.7826Z" stroke="url(#paint18_linear_1142_3261)" stroke-width="2" mask="url(#path-1-outside-1_1142_3261)"/>
<path fill-rule="evenodd" clip-rule="evenodd" d="M96.3839 35.7826H101.375L108.401 47.8348L115.027 35.7826H119.845L110.627 52.0609V60.8261H106.001V52.0609L96.3839 35.7826Z" stroke="url(#paint19_linear_1142_3261)" stroke-opacity="0.5" stroke-width="2" mask="url(#path-1-outside-1_1142_3261)"/>
<path fill-rule="evenodd" clip-rule="evenodd" d="M76.8534 60.8261H72.1056L82.7317 35.7826H87.723L98.5578 60.8261H93.5839L90.7317 53.9913H82.4013L84.0013 49.9565H89.0448L85.1143 40.5478L76.8534 60.8261Z" stroke="url(#paint20_linear_1142_3261)" stroke-width="2" mask="url(#path-1-outside-1_1142_3261)"/>
<path fill-rule="evenodd" clip-rule="evenodd" d="M76.8534 60.8261H72.1056L82.7317 35.7826H87.723L98.5578 60.8261H93.5839L90.7317 53.9913H82.4013L84.0013 49.9565H89.0448L85.1143 40.5478L76.8534 60.8261Z" stroke="url(#paint21_linear_1142_3261)" stroke-opacity="0.5" stroke-width="2" mask="url(#path-1-outside-1_1142_3261)"/>
<path fill-rule="evenodd" clip-rule="evenodd" d="M51.0795 60.7913V35.7652H62.4535C67.5665 35.7652 70.123 38.0087 70.123 42.4783C70.123 46.9478 68.1404 48.0087 64.1578 49.9913L72.0882 60.8261H66.2274L58.61 49.9217V47.8C63.0448 47.0348 65.2535 45.313 65.2535 42.6348C65.2535 39.9565 64.21 39.8522 62.1404 39.8522H55.7752V60.7913H51.0795Z" stroke="url(#paint22_linear_1142_3261)" stroke-width="2" mask="url(#path-1-outside-1_1142_3261)"/>
<path fill-rule="evenodd" clip-rule="evenodd" d="M51.0795 60.7913V35.7652H62.4535C67.5665 35.7652 70.123 38.0087 70.123 42.4783C70.123 46.9478 68.1404 48.0087 64.1578 49.9913L72.0882 60.8261H66.2274L58.61 49.9217V47.8C63.0448 47.0348 65.2535 45.313 65.2535 42.6348C65.2535 39.9565 64.21 39.8522 62.1404 39.8522H55.7752V60.7913H51.0795Z" stroke="url(#paint23_linear_1142_3261)" stroke-opacity="0.5" stroke-width="2" mask="url(#path-1-outside-1_1142_3261)"/>
<path fill-rule="evenodd" clip-rule="evenodd" d="M25.1317 46.113C23.6535 46.5478 22.5578 47.9217 22.5578 49.5391C22.5578 51.1565 24.1578 53.1044 26.123 53.1044C28.0882 53.1044 29.6882 51.5043 29.6882 49.5391C29.6882 47.5739 28.61 46.5478 27.1143 46.113V27.5739H28.21C29.2187 27.5739 30.0535 28.3913 30.0535 29.4174V44.113C31.5143 45.3652 32.4535 47.2261 32.4535 49.2957C32.4535 53.2261 29.1491 56.3217 25.2361 56.0783C25.2361 56.8087 25.1491 61 24.1578 61C23.1665 61 23.0448 56.5478 23.0969 55.5913C21.9665 55.1391 21.0969 54.4783 20.3317 53.5217C4.24476 67.3652 -3.65089 59.6783 3.86215 48.8609C4.73172 47.5043 5.74041 47.4 6.85346 48.5478C8.73172 50.513 10.2622 51.4348 11.4622 51.3304C11.4274 50.9304 11.41 50.5478 11.4274 50.1478C11.4969 46.0087 13.8795 42.4435 17.323 40.6522C17.3578 34.8261 18.923 29.8348 21.1317 27.5739V25.6957C21.1317 25.1565 21.5665 24.7217 22.1056 24.7217H22.3839V23.5217C21.7056 23.4 21.2361 23.1739 21.2361 22.9304C21.2361 22.687 21.7056 22.4609 22.3839 22.3391V21.3826C21.6882 21.2609 21.2361 21.0348 21.2361 20.7913C21.2361 20.5478 21.6882 20.3217 22.3839 20.2V19.313C21.6882 19.1913 21.2361 18.9826 21.2361 18.7217C21.2361 18.4609 21.6882 18.2522 22.3839 18.1304V16.7391L17.9317 9.03478C17.7404 8.70435 17.7404 8.32174 17.9317 7.99131C18.123 7.66087 18.4535 7.46957 18.8361 7.46957H23.1491V3.53913C22.7143 3.33043 22.4187 2.87826 22.4187 2.33913C22.4187 1.8 23.0274 1 23.7578 1C24.4882 1 25.0969 1.6087 25.0969 2.33913C25.0969 3.06957 24.8013 3.31304 24.3665 3.53913V7.46957H28.6795C29.0621 7.46957 29.3926 7.64348 29.5839 7.99131C29.7752 8.32174 29.7752 8.70435 29.5839 9.03478L25.1491 16.7391V18.1478C25.8448 18.2696 26.2969 18.4957 26.2969 18.7391C26.2969 18.9826 25.8448 19.2087 25.1491 19.3304V20.2174C25.8448 20.3391 26.2969 20.5652 26.2969 20.8087C26.2969 21.0522 25.8448 21.2783 25.1491 21.4V22.3565C25.8448 22.4783 26.2969 22.7043 26.2969 22.9478C26.2969 23.1913 25.8448 23.4174 25.1491 23.5391V46.113H25.1317ZM17.6882 45.6261C17.5839 44.8783 17.4969 44.0956 17.4274 43.2957C15.2535 44.8261 13.81 47.3304 13.7578 50.2C13.7578 50.5478 13.7578 50.8957 13.7926 51.2261C15.4274 50.8957 17.1839 49.5913 16.4535 47.8348C16.1578 47.1565 16.5578 46.4261 17.6708 45.6261H17.6882Z" stroke="url(#paint24_linear_1142_3261)" stroke-width="2" mask="url(#path-1-outside-1_1142_3261)"/>
<path fill-rule="evenodd" clip-rule="evenodd" d="M25.1317 46.113C23.6535 46.5478 22.5578 47.9217 22.5578 49.5391C22.5578 51.1565 24.1578 53.1044 26.123 53.1044C28.0882 53.1044 29.6882 51.5043 29.6882 49.5391C29.6882 47.5739 28.61 46.5478 27.1143 46.113V27.5739H28.21C29.2187 27.5739 30.0535 28.3913 30.0535 29.4174V44.113C31.5143 45.3652 32.4535 47.2261 32.4535 49.2957C32.4535 53.2261 29.1491 56.3217 25.2361 56.0783C25.2361 56.8087 25.1491 61 24.1578 61C23.1665 61 23.0448 56.5478 23.0969 55.5913C21.9665 55.1391 21.0969 54.4783 20.3317 53.5217C4.24476 67.3652 -3.65089 59.6783 3.86215 48.8609C4.73172 47.5043 5.74041 47.4 6.85346 48.5478C8.73172 50.513 10.2622 51.4348 11.4622 51.3304C11.4274 50.9304 11.41 50.5478 11.4274 50.1478C11.4969 46.0087 13.8795 42.4435 17.323 40.6522C17.3578 34.8261 18.923 29.8348 21.1317 27.5739V25.6957C21.1317 25.1565 21.5665 24.7217 22.1056 24.7217H22.3839V23.5217C21.7056 23.4 21.2361 23.1739 21.2361 22.9304C21.2361 22.687 21.7056 22.4609 22.3839 22.3391V21.3826C21.6882 21.2609 21.2361 21.0348 21.2361 20.7913C21.2361 20.5478 21.6882 20.3217 22.3839 20.2V19.313C21.6882 19.1913 21.2361 18.9826 21.2361 18.7217C21.2361 18.4609 21.6882 18.2522 22.3839 18.1304V16.7391L17.9317 9.03478C17.7404 8.70435 17.7404 8.32174 17.9317 7.99131C18.123 7.66087 18.4535 7.46957 18.8361 7.46957H23.1491V3.53913C22.7143 3.33043 22.4187 2.87826 22.4187 2.33913C22.4187 1.8 23.0274 1 23.7578 1C24.4882 1 25.0969 1.6087 25.0969 2.33913C25.0969 3.06957 24.8013 3.31304 24.3665 3.53913V7.46957H28.6795C29.0621 7.46957 29.3926 7.64348 29.5839 7.99131C29.7752 8.32174 29.7752 8.70435 29.5839 9.03478L25.1491 16.7391V18.1478C25.8448 18.2696 26.2969 18.4957 26.2969 18.7391C26.2969 18.9826 25.8448 19.2087 25.1491 19.3304V20.2174C25.8448 20.3391 26.2969 20.5652 26.2969 20.8087C26.2969 21.0522 25.8448 21.2783 25.1491 21.4V22.3565C25.8448 22.4783 26.2969 22.7043 26.2969 22.9478C26.2969 23.1913 25.8448 23.4174 25.1491 23.5391V46.113H25.1317ZM17.6882 45.6261C17.5839 44.8783 17.4969 44.0956 17.4274 43.2957C15.2535 44.8261 13.81 47.3304 13.7578 50.2C13.7578 50.5478 13.7578 50.8957 13.7926 51.2261C15.4274 50.8957 17.1839 49.5913 16.4535 47.8348C16.1578 47.1565 16.5578 46.4261 17.6708 45.6261H17.6882Z" stroke="url(#paint25_linear_1142_3261)" stroke-opacity="0.5" stroke-width="2" mask="url(#path-1-outside-1_1142_3261)"/>
<path fill-rule="evenodd" clip-rule="evenodd" d="M24.2969 49.5391C24.2969 48.513 25.1143 47.6783 26.1404 47.6783C27.1665 47.6783 27.9839 48.513 27.9839 49.5391C27.9839 50.5652 27.1665 51.3826 26.1404 51.3826C25.1143 51.3826 24.2969 50.5478 24.2969 49.5391Z" stroke="url(#paint26_linear_1142_3261)" stroke-width="2" mask="url(#path-1-outside-1_1142_3261)"/>
<path fill-rule="evenodd" clip-rule="evenodd" d="M24.2969 49.5391C24.2969 48.513 25.1143 47.6783 26.1404 47.6783C27.1665 47.6783 27.9839 48.513 27.9839 49.5391C27.9839 50.5652 27.1665 51.3826 26.1404 51.3826C25.1143 51.3826 24.2969 50.5478 24.2969 49.5391Z" stroke="url(#paint27_linear_1142_3261)" stroke-opacity="0.5" stroke-width="2" mask="url(#path-1-outside-1_1142_3261)"/>
<path d="M70.0535 1.03478V5.05217H62.8882V26.0435H58.2448V5.05217H51.0795V1.03478L70.0535 1.03478Z" stroke="url(#paint28_linear_1142_3261)" stroke-width="2" mask="url(#path-1-outside-1_1142_3261)"/>
<path d="M70.0535 1.03478V5.05217H62.8882V26.0435H58.2448V5.05217H51.0795V1.03478L70.0535 1.03478Z" stroke="url(#paint29_linear_1142_3261)" stroke-opacity="0.5" stroke-width="2" mask="url(#path-1-outside-1_1142_3261)"/>
<path d="M89.81 1.03478V5.01739H77.2882V11.313H89.2187V15.4522H77.2361V22.0087H90.0535V26.0261H72.6795V1.03478L89.81 1.03478Z" stroke="url(#paint30_linear_1142_3261)" stroke-width="2" mask="url(#path-1-outside-1_1142_3261)"/>
<path d="M89.81 1.03478V5.01739H77.2882V11.313H89.2187V15.4522H77.2361V22.0087H90.0535V26.0261H72.6795V1.03478L89.81 1.03478Z" stroke="url(#paint31_linear_1142_3261)" stroke-opacity="0.5" stroke-width="2" mask="url(#path-1-outside-1_1142_3261)"/>
<path d="M96.9056 26.0609H92.1404L102.766 1.05217L107.758 1.05217L118.61 26.0609H113.619L110.766 19.2435H102.453L104.053 15.2261H109.097L105.166 5.83478L96.923 26.0783L96.9056 26.0609Z" stroke="url(#paint32_linear_1142_3261)" stroke-width="2" mask="url(#path-1-outside-1_1142_3261)"/>
<path d="M96.9056 26.0609H92.1404L102.766 1.05217L107.758 1.05217L118.61 26.0609H113.619L110.766 19.2435H102.453L104.053 15.2261H109.097L105.166 5.83478L96.923 26.0783L96.9056 26.0609Z" stroke="url(#paint33_linear_1142_3261)" stroke-opacity="0.5" stroke-width="2" mask="url(#path-1-outside-1_1142_3261)"/>
<path d="M121.653 26.0609V1.03478H126.471L134.958 20.0087L143.271 1.03478H147.914V26.0435H143.636V8.61739L136.853 26.0435H132.906L125.984 8.61739V26.0435H121.706L121.653 26.0609Z" stroke="url(#paint34_linear_1142_3261)" stroke-width="2" mask="url(#path-1-outside-1_1142_3261)"/>
<path d="M121.653 26.0609V1.03478H126.471L134.958 20.0087L143.271 1.03478H147.914V26.0435H143.636V8.61739L136.853 26.0435H132.906L125.984 8.61739V26.0435H121.706L121.653 26.0609Z" stroke="url(#paint35_linear_1142_3261)" stroke-opacity="0.5" stroke-width="2" mask="url(#path-1-outside-1_1142_3261)"/>
<defs>
<linearGradient id="paint0_linear_1142_3261" x1="1" y1="31" x2="194.784" y2="31" gradientUnits="userSpaceOnUse">
<stop stop-color="#808DFF"/>
<stop offset="1" stop-color="#90FFCA"/>
</linearGradient>
<linearGradient id="paint1_linear_1142_3261" x1="1" y1="31" x2="194.784" y2="31" gradientUnits="userSpaceOnUse">
<stop stop-color="#808DFF"/>
<stop offset="1" stop-color="#90FFCA"/>
</linearGradient>
<linearGradient id="paint2_linear_1142_3261" x1="1" y1="31" x2="194.784" y2="31" gradientUnits="userSpaceOnUse">
<stop stop-color="#808DFF"/>
<stop offset="1" stop-color="#90FFCA"/>
</linearGradient>
<linearGradient id="paint3_linear_1142_3261" x1="1" y1="31" x2="194.784" y2="31" gradientUnits="userSpaceOnUse">
<stop stop-color="#808DFF"/>
<stop offset="1" stop-color="#90FFCA"/>
</linearGradient>
<linearGradient id="paint4_linear_1142_3261" x1="1" y1="31" x2="194.784" y2="31" gradientUnits="userSpaceOnUse">
<stop stop-color="#808DFF"/>
<stop offset="1" stop-color="#90FFCA"/>
</linearGradient>
<linearGradient id="paint5_linear_1142_3261" x1="1" y1="31" x2="194.784" y2="31" gradientUnits="userSpaceOnUse">
<stop stop-color="#808DFF"/>
<stop offset="1" stop-color="#90FFCA"/>
</linearGradient>
<linearGradient id="paint6_linear_1142_3261" x1="1" y1="31" x2="194.784" y2="31" gradientUnits="userSpaceOnUse">
<stop stop-color="#808DFF"/>
<stop offset="1" stop-color="#90FFCA"/>
</linearGradient>
<linearGradient id="paint7_linear_1142_3261" x1="1" y1="31" x2="194.784" y2="31" gradientUnits="userSpaceOnUse">
<stop stop-color="#808DFF"/>
<stop offset="1" stop-color="#90FFCA"/>
</linearGradient>
<linearGradient id="paint8_linear_1142_3261" x1="1" y1="31" x2="194.784" y2="31" gradientUnits="userSpaceOnUse">
<stop stop-color="#808DFF"/>
<stop offset="1" stop-color="#90FFCA"/>
</linearGradient>
<linearGradient id="paint9_linear_1142_3261" x1="1" y1="31" x2="194.784" y2="31" gradientUnits="userSpaceOnUse">
<stop stop-color="#808DFF"/>
<stop offset="1" stop-color="#90FFCA"/>
</linearGradient>
<linearGradient id="paint10_linear_1142_3261" x1="1" y1="31" x2="194.784" y2="31" gradientUnits="userSpaceOnUse">
<stop stop-color="#808DFF"/>
<stop offset="1" stop-color="#90FFCA"/>
</linearGradient>
<linearGradient id="paint11_linear_1142_3261" x1="1" y1="31" x2="194.784" y2="31" gradientUnits="userSpaceOnUse">
<stop stop-color="#808DFF"/>
<stop offset="1" stop-color="#90FFCA"/>
</linearGradient>
<linearGradient id="paint12_linear_1142_3261" x1="97.8919" y1="1" x2="97.8919" y2="61" gradientUnits="userSpaceOnUse">
<stop stop-color="white"/>
<stop offset="1" stop-color="white"/>
</linearGradient>
<linearGradient id="paint13_linear_1142_3261" x1="1" y1="31" x2="194.784" y2="31" gradientUnits="userSpaceOnUse">
<stop stop-color="#808DFF"/>
<stop offset="1" stop-color="#90FFCA"/>
</linearGradient>
<linearGradient id="paint14_linear_1142_3261" x1="97.8919" y1="1" x2="97.8919" y2="61" gradientUnits="userSpaceOnUse">
<stop stop-color="white"/>
<stop offset="1" stop-color="white"/>
</linearGradient>
<linearGradient id="paint15_linear_1142_3261" x1="1" y1="31" x2="194.784" y2="31" gradientUnits="userSpaceOnUse">
<stop stop-color="#808DFF"/>
<stop offset="1" stop-color="#90FFCA"/>
</linearGradient>
<linearGradient id="paint16_linear_1142_3261" x1="97.8919" y1="1" x2="97.8919" y2="61" gradientUnits="userSpaceOnUse">
<stop stop-color="white"/>
<stop offset="1" stop-color="white"/>
</linearGradient>
<linearGradient id="paint17_linear_1142_3261" x1="1" y1="31" x2="194.784" y2="31" gradientUnits="userSpaceOnUse">
<stop stop-color="#808DFF"/>
<stop offset="1" stop-color="#90FFCA"/>
</linearGradient>
<linearGradient id="paint18_linear_1142_3261" x1="97.8919" y1="1" x2="97.8919" y2="61" gradientUnits="userSpaceOnUse">
<stop stop-color="white"/>
<stop offset="1" stop-color="white"/>
</linearGradient>
<linearGradient id="paint19_linear_1142_3261" x1="1" y1="31" x2="194.784" y2="31" gradientUnits="userSpaceOnUse">
<stop stop-color="#808DFF"/>
<stop offset="1" stop-color="#90FFCA"/>
</linearGradient>
<linearGradient id="paint20_linear_1142_3261" x1="97.8919" y1="1" x2="97.8919" y2="61" gradientUnits="userSpaceOnUse">
<stop stop-color="white"/>
<stop offset="1" stop-color="white"/>
</linearGradient>
<linearGradient id="paint21_linear_1142_3261" x1="1" y1="31" x2="194.784" y2="31" gradientUnits="userSpaceOnUse">
<stop stop-color="#808DFF"/>
<stop offset="1" stop-color="#90FFCA"/>
</linearGradient>
<linearGradient id="paint22_linear_1142_3261" x1="97.8919" y1="1" x2="97.8919" y2="61" gradientUnits="userSpaceOnUse">
<stop stop-color="white"/>
<stop offset="1" stop-color="white"/>
</linearGradient>
<linearGradient id="paint23_linear_1142_3261" x1="1" y1="31" x2="194.784" y2="31" gradientUnits="userSpaceOnUse">
<stop stop-color="#808DFF"/>
<stop offset="1" stop-color="#90FFCA"/>
</linearGradient>
<linearGradient id="paint24_linear_1142_3261" x1="97.8919" y1="1" x2="97.8919" y2="61" gradientUnits="userSpaceOnUse">
<stop stop-color="white"/>
<stop offset="1" stop-color="white"/>
</linearGradient>
<linearGradient id="paint25_linear_1142_3261" x1="1" y1="31" x2="194.784" y2="31" gradientUnits="userSpaceOnUse">
<stop stop-color="#808DFF"/>
<stop offset="1" stop-color="#90FFCA"/>
</linearGradient>
<linearGradient id="paint26_linear_1142_3261" x1="97.8919" y1="1" x2="97.8919" y2="61" gradientUnits="userSpaceOnUse">
<stop stop-color="white"/>
<stop offset="1" stop-color="white"/>
</linearGradient>
<linearGradient id="paint27_linear_1142_3261" x1="1" y1="31" x2="194.784" y2="31" gradientUnits="userSpaceOnUse">
<stop stop-color="#808DFF"/>
<stop offset="1" stop-color="#90FFCA"/>
</linearGradient>
<linearGradient id="paint28_linear_1142_3261" x1="97.8919" y1="1" x2="97.8919" y2="61" gradientUnits="userSpaceOnUse">
<stop stop-color="white"/>
<stop offset="1" stop-color="white"/>
</linearGradient>
<linearGradient id="paint29_linear_1142_3261" x1="1" y1="31" x2="194.784" y2="31" gradientUnits="userSpaceOnUse">
<stop stop-color="#808DFF"/>
<stop offset="1" stop-color="#90FFCA"/>
</linearGradient>
<linearGradient id="paint30_linear_1142_3261" x1="97.8919" y1="1" x2="97.8919" y2="61" gradientUnits="userSpaceOnUse">
<stop stop-color="white"/>
<stop offset="1" stop-color="white"/>
</linearGradient>
<linearGradient id="paint31_linear_1142_3261" x1="1" y1="31" x2="194.784" y2="31" gradientUnits="userSpaceOnUse">
<stop stop-color="#808DFF"/>
<stop offset="1" stop-color="#90FFCA"/>
</linearGradient>
<linearGradient id="paint32_linear_1142_3261" x1="97.8919" y1="1" x2="97.8919" y2="61" gradientUnits="userSpaceOnUse">
<stop stop-color="white"/>
<stop offset="1" stop-color="white"/>
</linearGradient>
<linearGradient id="paint33_linear_1142_3261" x1="1" y1="31" x2="194.784" y2="31" gradientUnits="userSpaceOnUse">
<stop stop-color="#808DFF"/>
<stop offset="1" stop-color="#90FFCA"/>
</linearGradient>
<linearGradient id="paint34_linear_1142_3261" x1="97.8919" y1="1" x2="97.8919" y2="61" gradientUnits="userSpaceOnUse">
<stop stop-color="white"/>
<stop offset="1" stop-color="white"/>
</linearGradient>
<linearGradient id="paint35_linear_1142_3261" x1="1" y1="31" x2="194.784" y2="31" gradientUnits="userSpaceOnUse">
<stop stop-color="#808DFF"/>
<stop offset="1" stop-color="#90FFCA"/>
</linearGradient>
</defs>
</svg>
