<svg width="90" height="103" viewBox="0 0 90 103" fill="none" xmlns="http://www.w3.org/2000/svg">
<g filter="url(#filter0_f_1118_2980)">
<path d="M60.3557 85.8339L54.2253 87.9421L51.6434 80.4341C38.9303 83.1115 30.898 76.5535 27.2934 68.0877L36.3857 64.9609C38.272 69.55 42.6832 73.1938 48.9903 72.7194L42.9262 55.0859L42.2352 55.0924C33.7819 55.1495 24.9517 54.3348 21.7064 44.8981C18.7454 36.288 23.3985 28.9878 32.5746 24.9849L30.0637 17.6835L36.1941 15.5753L38.7524 23.0144C49.879 20.6516 56.5443 26.3702 59.7462 33.6651L50.6539 36.7919C49.1703 33.3737 46.195 30.5455 41.4054 30.7291L46.7115 46.1585L49.5444 46.1086C58.0666 46.0278 66.3005 47.1246 69.6405 56.8368C72.8384 66.1357 68.3082 74.241 57.8448 78.5325L60.3557 85.8339ZM30.7685 41.0115C32.0476 44.731 35.4446 45.8736 39.8468 46.1314L35.1329 32.4241C31.1207 34.4201 29.6078 37.6363 30.7685 41.0115ZM60.6022 60.7924C59.0862 56.384 55.0434 55.1554 49.7909 55.113L55.2865 71.0934C60.1942 68.7894 62.0471 64.9941 60.6022 60.7924Z" fill="url(#paint0_linear_1118_2980)" fill-opacity="0.35"/>
</g>
<g filter="url(#filter1_d_1118_2980)">
<mask id="path-2-inside-1_1118_2980" fill="white">
<path d="M60.3557 85.8339L54.2253 87.9421L51.6434 80.4341C38.9303 83.1115 30.898 76.5535 27.2934 68.0877L36.3857 64.9609C38.272 69.55 42.6832 73.1938 48.9903 72.7194L42.9262 55.0859L42.2352 55.0924C33.7819 55.1495 24.9517 54.3348 21.7064 44.8981C18.7454 36.288 23.3985 28.9878 32.5746 24.9849L30.0637 17.6835L36.1941 15.5753L38.7524 23.0144C49.879 20.6516 56.5443 26.3702 59.7462 33.6651L50.6539 36.7919C49.1703 33.3737 46.195 30.5455 41.4054 30.7291L46.7115 46.1585L49.5444 46.1086C58.0666 46.0278 66.3005 47.1246 69.6405 56.8368C72.8384 66.1357 68.3082 74.241 57.8448 78.5325L60.3557 85.8339ZM30.7685 41.0115C32.0476 44.731 35.4446 45.8736 39.8468 46.1314L35.1329 32.4241C31.1207 34.4201 29.6078 37.6363 30.7685 41.0115ZM60.6022 60.7924C59.0862 56.384 55.0434 55.1554 49.7909 55.113L55.2865 71.0934C60.1942 68.7894 62.0471 64.9941 60.6022 60.7924Z"/>
</mask>
<path d="M60.3557 85.8339L54.2253 87.9421L51.6434 80.4341C38.9303 83.1115 30.898 76.5535 27.2934 68.0877L36.3857 64.9609C38.272 69.55 42.6832 73.1938 48.9903 72.7194L42.9262 55.0859L42.2352 55.0924C33.7819 55.1495 24.9517 54.3348 21.7064 44.8981C18.7454 36.288 23.3985 28.9878 32.5746 24.9849L30.0637 17.6835L36.1941 15.5753L38.7524 23.0144C49.879 20.6516 56.5443 26.3702 59.7462 33.6651L50.6539 36.7919C49.1703 33.3737 46.195 30.5455 41.4054 30.7291L46.7115 46.1585L49.5444 46.1086C58.0666 46.0278 66.3005 47.1246 69.6405 56.8368C72.8384 66.1357 68.3082 74.241 57.8448 78.5325L60.3557 85.8339ZM30.7685 41.0115C32.0476 44.731 35.4446 45.8736 39.8468 46.1314L35.1329 32.4241C31.1207 34.4201 29.6078 37.6363 30.7685 41.0115ZM60.6022 60.7924C59.0862 56.384 55.0434 55.1554 49.7909 55.113L55.2865 71.0934C60.1942 68.7894 62.0471 64.9941 60.6022 60.7924Z" fill="black"/>
<path d="M60.3557 85.8339L54.2253 87.9421L51.6434 80.4341C38.9303 83.1115 30.898 76.5535 27.2934 68.0877L36.3857 64.9609C38.272 69.55 42.6832 73.1938 48.9903 72.7194L42.9262 55.0859L42.2352 55.0924C33.7819 55.1495 24.9517 54.3348 21.7064 44.8981C18.7454 36.288 23.3985 28.9878 32.5746 24.9849L30.0637 17.6835L36.1941 15.5753L38.7524 23.0144C49.879 20.6516 56.5443 26.3702 59.7462 33.6651L50.6539 36.7919C49.1703 33.3737 46.195 30.5455 41.4054 30.7291L46.7115 46.1585L49.5444 46.1086C58.0666 46.0278 66.3005 47.1246 69.6405 56.8368C72.8384 66.1357 68.3082 74.241 57.8448 78.5325L60.3557 85.8339ZM30.7685 41.0115C32.0476 44.731 35.4446 45.8736 39.8468 46.1314L35.1329 32.4241C31.1207 34.4201 29.6078 37.6363 30.7685 41.0115ZM60.6022 60.7924C59.0862 56.384 55.0434 55.1554 49.7909 55.113L55.2865 71.0934C60.1942 68.7894 62.0471 64.9941 60.6022 60.7924Z" fill="url(#paint1_linear_1118_2980)" fill-opacity="0.4"/>
<path d="M60.3557 85.8339L60.64 86.6605L61.4666 86.3762L61.1823 85.5496L60.3557 85.8339ZM54.2253 87.9421L53.3988 88.2264L53.683 89.0529L54.5096 88.7687L54.2253 87.9421ZM51.6434 80.4341L52.4699 80.1498L52.2188 79.4196L51.4632 79.5788L51.6434 80.4341ZM27.2934 68.0877L27.0091 67.2611L26.1214 67.5664L26.4892 68.4301L27.2934 68.0877ZM36.3857 64.9609L37.1941 64.6286L36.8808 63.8663L36.1014 64.1343L36.3857 64.9609ZM48.9903 72.7194L49.0559 73.5911L50.1852 73.5061L49.8169 72.4352L48.9903 72.7194ZM42.9262 55.0859L43.7528 54.8016L43.5479 54.2059L42.9179 54.2119L42.9262 55.0859ZM42.2352 55.0924L42.2411 55.9665L42.2435 55.9665L42.2352 55.0924ZM32.5746 24.9849L32.9241 25.7861L33.6635 25.4635L33.4012 24.7007L32.5746 24.9849ZM30.0637 17.6835L29.7794 16.857L28.9529 17.1412L29.2371 17.9678L30.0637 17.6835ZM36.1941 15.5753L37.0207 15.291L36.7364 14.4645L35.9098 14.7487L36.1941 15.5753ZM38.7524 23.0144L37.9258 23.2987L38.1773 24.0301L38.934 23.8695L38.7524 23.0144ZM59.7462 33.6651L60.0304 34.4916L60.9281 34.1829L60.5466 33.3138L59.7462 33.6651ZM50.6539 36.7919L49.8521 37.1399L50.1739 37.8813L50.9382 37.6184L50.6539 36.7919ZM41.4054 30.7291L41.3719 29.8557L40.1962 29.9007L40.5789 31.0134L41.4054 30.7291ZM46.7115 46.1585L45.8849 46.4427L46.0916 47.0436L46.7269 47.0324L46.7115 46.1585ZM49.5444 46.1086L49.5361 45.2345L49.529 45.2346L49.5444 46.1086ZM57.8448 78.5325L57.5131 77.7238L56.75 78.0368L57.0183 78.8168L57.8448 78.5325ZM39.8468 46.1314L39.7957 47.004L41.0974 47.0802L40.6734 45.8471L39.8468 46.1314ZM35.1329 32.4241L35.9595 32.1398L35.6355 31.1978L34.7436 31.6415L35.1329 32.4241ZM49.7909 55.113L49.798 54.2389L48.5626 54.229L48.9644 55.3972L49.7909 55.113ZM55.2865 71.0934L54.46 71.3776L54.7766 72.2984L55.658 71.8846L55.2865 71.0934ZM60.0715 85.0073L53.9411 87.1156L54.5096 88.7687L60.64 86.6605L60.0715 85.0073ZM55.0519 87.6579L52.4699 80.1498L50.8168 80.7184L53.3988 88.2264L55.0519 87.6579ZM51.4632 79.5788C45.2955 80.8777 40.3342 79.9269 36.4934 77.6847C32.6397 75.435 29.8421 71.8423 28.0976 67.7452L26.4892 68.4301C28.3493 72.7988 31.3701 76.7181 35.612 79.1944C39.8668 81.6783 45.2781 82.6679 51.8235 81.2894L51.4632 79.5788ZM27.5776 68.9142L36.6699 65.7874L36.1014 64.1343L27.0091 67.2611L27.5776 68.9142ZM35.5772 65.2932C37.5863 70.1811 42.3189 74.0978 49.0559 73.5911L48.9247 71.8478C43.0474 72.2899 38.9576 68.9189 37.1941 64.6286L35.5772 65.2932ZM49.8169 72.4352L43.7528 54.8016L42.0996 55.3702L48.1637 73.0037L49.8169 72.4352ZM42.9179 54.2119L42.2269 54.2184L42.2435 55.9665L42.9345 55.9599L42.9179 54.2119ZM42.2293 54.2184C38.0076 54.2469 33.8303 54.0515 30.3247 52.737C26.8761 51.4439 24.0631 49.0633 22.533 44.6139L20.8799 45.1824C22.595 50.1697 25.8197 52.9148 29.7109 54.3739C33.545 55.8116 38.0095 55.9951 42.2411 55.9665L42.2293 54.2184ZM22.533 44.6139C21.1299 40.5338 21.5392 36.8188 23.3484 33.6469C25.1703 30.4524 28.4563 27.7351 32.9241 25.7861L32.2251 24.1837C27.5167 26.2377 23.8881 29.1719 21.8298 32.7808C19.7587 36.4122 19.322 40.6524 20.8799 45.1824L22.533 44.6139ZM33.4012 24.7007L30.8903 17.3993L29.2371 17.9678L31.748 25.2692L33.4012 24.7007ZM30.3479 18.5101L36.4783 16.4019L35.9098 14.7487L29.7794 16.857L30.3479 18.5101ZM35.3675 15.8596L37.9258 23.2987L39.579 22.7302L37.0207 15.291L35.3675 15.8596ZM38.934 23.8695C44.31 22.7278 48.5297 23.5492 51.7759 25.4703C55.0374 27.4006 57.3982 30.4904 58.9458 34.0164L60.5466 33.3138C58.8923 29.5449 56.3195 26.1279 52.6662 23.9659C48.9976 21.7947 44.3214 20.9382 38.5708 22.1594L38.934 23.8695ZM59.4619 32.8385L50.3696 35.9653L50.9382 37.6184L60.0304 34.4916L59.4619 32.8385ZM51.4557 36.4438C49.8683 32.7865 46.6119 29.6548 41.3719 29.8557L41.4389 31.6026C45.7781 31.4362 48.4723 33.9608 49.8521 37.1399L51.4557 36.4438ZM40.5789 31.0134L45.8849 46.4427L47.5381 45.8742L42.232 30.4449L40.5789 31.0134ZM46.7269 47.0324L49.5598 46.9825L49.529 45.2346L46.6961 45.2845L46.7269 47.0324ZM49.5526 46.9826C53.7981 46.9424 57.8331 47.202 61.1991 48.607C64.5094 49.9887 67.225 52.5005 68.814 57.1211L70.4671 56.5525C68.7161 51.4609 65.6447 48.5682 61.8725 46.9937C58.1559 45.4424 53.8129 45.194 49.5361 45.2345L49.5526 46.9826ZM68.814 57.1211C70.3414 61.5627 70.0095 65.6552 68.0991 69.1425C66.1791 72.647 62.6134 75.6319 57.5131 77.7238L58.1765 79.3412C63.5396 77.1416 67.4707 73.9281 69.6322 69.9824C71.8033 66.0194 72.1375 61.4099 70.4671 56.5525L68.814 57.1211ZM57.0183 78.8168L59.5292 86.1182L61.1823 85.5496L58.6714 78.2483L57.0183 78.8168ZM29.9419 41.2957C30.6603 43.3847 31.9936 44.7719 33.7444 45.6508C35.4603 46.5122 37.5491 46.8724 39.7957 47.004L39.8979 45.2588C37.7423 45.1326 35.9315 44.7927 34.5287 44.0884C33.1606 43.4017 32.1558 42.3578 31.5951 40.7272L29.9419 41.2957ZM40.6734 45.8471L35.9595 32.1398L34.3063 32.7083L39.0202 46.4156L40.6734 45.8471ZM34.7436 31.6415C32.6136 32.7011 31.0684 34.124 30.2284 35.811C29.3814 37.5119 29.2914 39.404 29.9419 41.2957L31.5951 40.7272C31.0849 39.2437 31.1709 37.8401 31.7933 36.5902C32.4226 35.3262 33.64 34.143 35.5222 33.2066L34.7436 31.6415ZM61.4287 60.5081C60.59 58.0693 59.0286 56.482 56.9663 55.5228C54.943 54.5819 52.4727 54.2605 49.798 54.2389L49.7839 55.987C52.3616 56.0078 54.5389 56.3219 56.2291 57.108C57.8803 57.8759 59.0983 59.1071 59.7756 61.0766L61.4287 60.5081ZM48.9644 55.3972L54.46 71.3776L56.1131 70.8091L50.6175 54.8287L48.9644 55.3972ZM55.658 71.8846C58.235 70.6748 60.0982 69.0319 61.1057 67.0508C62.1212 65.0539 62.2191 62.8063 61.4287 60.5081L59.7756 61.0766C60.4302 62.9801 60.3241 64.7311 59.5475 66.2583C58.7628 67.8013 57.2458 69.208 54.9151 70.3021L55.658 71.8846Z" fill="url(#paint2_linear_1118_2980)" mask="url(#path-2-inside-1_1118_2980)"/>
</g>
<defs>
<filter id="filter0_f_1118_2980" x="3.34486" y="0.912487" width="82.9719" height="101.953" filterUnits="userSpaceOnUse" color-interpolation-filters="sRGB">
<feFlood flood-opacity="0" result="BackgroundImageFix"/>
<feBlend mode="normal" in="SourceGraphic" in2="BackgroundImageFix" result="shape"/>
<feGaussianBlur stdDeviation="4.37042" result="effect1_foregroundBlur_1118_2980"/>
</filter>
<filter id="filter1_d_1118_2980" x="11.2116" y="9.65332" width="67.2384" height="86.2194" filterUnits="userSpaceOnUse" color-interpolation-filters="sRGB">
<feFlood flood-opacity="0" result="BackgroundImageFix"/>
<feColorMatrix in="SourceAlpha" type="matrix" values="0 0 0 0 0 0 0 0 0 0 0 0 0 0 0 0 0 0 127 0" result="hardAlpha"/>
<feOffset dy="0.874083"/>
<feGaussianBlur stdDeviation="0.437042"/>
<feComposite in2="hardAlpha" operator="out"/>
<feColorMatrix type="matrix" values="0 0 0 0 0 0 0 0 0 0 0 0 0 0 0 0 0 0 0.25 0"/>
<feBlend mode="normal" in2="BackgroundImageFix" result="effect1_dropShadow_1118_2980"/>
<feBlend mode="normal" in="SourceGraphic" in2="effect1_dropShadow_1118_2980" result="shape"/>
</filter>
<linearGradient id="paint0_linear_1118_2980" x1="68.7756" y1="43.5569" x2="21.4934" y2="59.8171" gradientUnits="userSpaceOnUse">
<stop offset="0.19" stop-color="#FFACED"/>
<stop offset="0.535" stop-color="#9498FF"/>
<stop offset="0.89" stop-color="#CA86FF"/>
</linearGradient>
<linearGradient id="paint1_linear_1118_2980" x1="68.7756" y1="43.5569" x2="21.4934" y2="59.8171" gradientUnits="userSpaceOnUse">
<stop offset="0.19" stop-color="#FFACED"/>
<stop offset="0.535" stop-color="#9498FF"/>
<stop offset="0.89" stop-color="#CA86FF"/>
</linearGradient>
<linearGradient id="paint2_linear_1118_2980" x1="68.7756" y1="43.5569" x2="21.4934" y2="59.8171" gradientUnits="userSpaceOnUse">
<stop offset="0.19" stop-color="#FFACED"/>
<stop offset="0.535" stop-color="#9498FF"/>
<stop offset="0.89" stop-color="#CA86FF"/>
</linearGradient>
</defs>
</svg>
