<svg width="206" height="206" viewBox="0 0 206 206" fill="none" xmlns="http://www.w3.org/2000/svg">
<g filter="url(#filter0_b_3005_2615)">
<mask id="path-1-inside-1_3005_2615" fill="white">
<path fill-rule="evenodd" clip-rule="evenodd" d="M26.6823 84.6093C27.2235 84.3044 27.8755 84.2682 28.4471 84.5113L55.0988 95.8496C55.1016 95.8508 55.1045 95.8514 55.1075 95.8514V95.8514C55.1184 95.8514 55.1277 95.8433 55.1293 95.8324C58.127 75.2242 74.1755 58.8419 94.6237 55.3397C95.2166 55.2381 95.7415 54.8876 96.0474 54.3697L109.68 31.2897C109.996 30.7551 110.045 30.1042 109.814 29.528L98.4707 1.24688C98.1537 0.456577 97.3658 -0.0480114 96.5159 0.00362237C44.7656 3.14747 3.32738 44.4878 0.00429043 96.1906C-0.0955872 97.7446 1.56816 98.7609 2.92478 97.9964L26.6823 84.6093ZM120.373 30.7342C120.373 30.7277 120.371 30.7213 120.369 30.7153L109.178 2.8241C108.635 1.47043 109.682 0.0127995 111.136 0.128967C161.342 4.14037 201.423 44.1337 205.546 94.331C205.613 95.1465 205.165 95.9194 204.428 96.2744L175.443 110.234C174.884 110.504 174.231 110.498 173.676 110.218L151.899 99.2505C151.279 98.9379 150.868 98.3228 150.793 97.632C148.414 75.6386 131.241 58.0673 109.428 55.0941C107.954 54.8932 107.093 53.2555 107.849 51.9743L120.366 30.7598C120.37 30.752 120.373 30.7432 120.373 30.7342V30.7342ZM142.575 102.775C142.575 102.775 142.575 102.775 142.575 102.775V102.775C142.575 103.397 142.575 104.042 142.529 104.664C141.746 121.534 130.461 135.638 115.076 140.616C111.391 141.814 107.499 142.483 103.422 142.529H102.801C82.9936 142.529 66.5493 128.01 63.5552 109.043C63.2328 106.992 63.0716 104.895 63.0716 102.775C63.0716 100.9 63.1256 100.323 63.2177 99.3378L63.2179 99.3354C63.2299 99.2071 63.2426 99.0719 63.2558 98.926C64.7759 82.9783 75.7157 69.7731 90.4557 64.9565C94.0256 63.7812 97.8258 63.1128 101.764 62.9976H102.824C121.986 62.9976 137.969 76.5716 141.723 94.6165C142.275 97.2401 142.552 99.9557 142.552 102.763C142.552 102.77 142.558 102.775 142.564 102.775H142.575ZM205.837 106.094C204.181 160.072 161.066 203.596 107.271 205.876C106.411 205.912 105.627 205.383 105.331 204.575L94.7258 175.653C94.5122 175.07 94.5811 174.422 94.9123 173.897L109.097 151.426C109.411 150.929 109.93 150.597 110.511 150.504C130.74 147.261 146.771 131.441 150.322 111.308C150.564 109.938 152.052 109.135 153.294 109.761L174.335 120.366C174.89 120.646 175.543 120.652 176.102 120.382L205.816 106.08C205.826 106.076 205.837 106.083 205.837 106.094V106.094ZM92.7753 205.463C94.2157 205.603 95.2863 204.184 94.7885 202.826L84.2211 173.98C84.2203 173.978 84.2175 173.977 84.2159 173.979V173.979C84.2132 173.981 84.2089 173.978 84.211 173.975L96.9831 153.756C97.7844 152.487 96.9528 150.811 95.4697 150.583C73.6833 147.241 56.6973 129.338 54.7711 107.117C54.7056 106.362 54.2394 105.694 53.5421 105.397L28.4238 94.7064C27.8524 94.4632 27.2004 94.4993 26.6593 94.8039L1.10008 109.196C0.429201 109.573 0.0333326 110.307 0.0937147 111.075C4.00836 160.836 43.2763 200.668 92.7753 205.463Z"/>
</mask>
<path fill-rule="evenodd" clip-rule="evenodd" d="M26.6823 84.6093C27.2235 84.3044 27.8755 84.2682 28.4471 84.5113L55.0988 95.8496C55.1016 95.8508 55.1045 95.8514 55.1075 95.8514V95.8514C55.1184 95.8514 55.1277 95.8433 55.1293 95.8324C58.127 75.2242 74.1755 58.8419 94.6237 55.3397C95.2166 55.2381 95.7415 54.8876 96.0474 54.3697L109.68 31.2897C109.996 30.7551 110.045 30.1042 109.814 29.528L98.4707 1.24688C98.1537 0.456577 97.3658 -0.0480114 96.5159 0.00362237C44.7656 3.14747 3.32738 44.4878 0.00429043 96.1906C-0.0955872 97.7446 1.56816 98.7609 2.92478 97.9964L26.6823 84.6093ZM120.373 30.7342C120.373 30.7277 120.371 30.7213 120.369 30.7153L109.178 2.8241C108.635 1.47043 109.682 0.0127995 111.136 0.128967C161.342 4.14037 201.423 44.1337 205.546 94.331C205.613 95.1465 205.165 95.9194 204.428 96.2744L175.443 110.234C174.884 110.504 174.231 110.498 173.676 110.218L151.899 99.2505C151.279 98.9379 150.868 98.3228 150.793 97.632C148.414 75.6386 131.241 58.0673 109.428 55.0941C107.954 54.8932 107.093 53.2555 107.849 51.9743L120.366 30.7598C120.37 30.752 120.373 30.7432 120.373 30.7342V30.7342ZM142.575 102.775C142.575 102.775 142.575 102.775 142.575 102.775V102.775C142.575 103.397 142.575 104.042 142.529 104.664C141.746 121.534 130.461 135.638 115.076 140.616C111.391 141.814 107.499 142.483 103.422 142.529H102.801C82.9936 142.529 66.5493 128.01 63.5552 109.043C63.2328 106.992 63.0716 104.895 63.0716 102.775C63.0716 100.9 63.1256 100.323 63.2177 99.3378L63.2179 99.3354C63.2299 99.2071 63.2426 99.0719 63.2558 98.926C64.7759 82.9783 75.7157 69.7731 90.4557 64.9565C94.0256 63.7812 97.8258 63.1128 101.764 62.9976H102.824C121.986 62.9976 137.969 76.5716 141.723 94.6165C142.275 97.2401 142.552 99.9557 142.552 102.763C142.552 102.77 142.558 102.775 142.564 102.775H142.575ZM205.837 106.094C204.181 160.072 161.066 203.596 107.271 205.876C106.411 205.912 105.627 205.383 105.331 204.575L94.7258 175.653C94.5122 175.07 94.5811 174.422 94.9123 173.897L109.097 151.426C109.411 150.929 109.93 150.597 110.511 150.504C130.74 147.261 146.771 131.441 150.322 111.308C150.564 109.938 152.052 109.135 153.294 109.761L174.335 120.366C174.89 120.646 175.543 120.652 176.102 120.382L205.816 106.08C205.826 106.076 205.837 106.083 205.837 106.094V106.094ZM92.7753 205.463C94.2157 205.603 95.2863 204.184 94.7885 202.826L84.2211 173.98C84.2203 173.978 84.2175 173.977 84.2159 173.979V173.979C84.2132 173.981 84.2089 173.978 84.211 173.975L96.9831 153.756C97.7844 152.487 96.9528 150.811 95.4697 150.583C73.6833 147.241 56.6973 129.338 54.7711 107.117C54.7056 106.362 54.2394 105.694 53.5421 105.397L28.4238 94.7064C27.8524 94.4632 27.2004 94.4993 26.6593 94.8039L1.10008 109.196C0.429201 109.573 0.0333326 110.307 0.0937147 111.075C4.00836 160.836 43.2763 200.668 92.7753 205.463Z" fill="#070810"/>
<path fill-rule="evenodd" clip-rule="evenodd" d="M26.6823 84.6093C27.2235 84.3044 27.8755 84.2682 28.4471 84.5113L55.0988 95.8496C55.1016 95.8508 55.1045 95.8514 55.1075 95.8514V95.8514C55.1184 95.8514 55.1277 95.8433 55.1293 95.8324C58.127 75.2242 74.1755 58.8419 94.6237 55.3397C95.2166 55.2381 95.7415 54.8876 96.0474 54.3697L109.68 31.2897C109.996 30.7551 110.045 30.1042 109.814 29.528L98.4707 1.24688C98.1537 0.456577 97.3658 -0.0480114 96.5159 0.00362237C44.7656 3.14747 3.32738 44.4878 0.00429043 96.1906C-0.0955872 97.7446 1.56816 98.7609 2.92478 97.9964L26.6823 84.6093ZM120.373 30.7342C120.373 30.7277 120.371 30.7213 120.369 30.7153L109.178 2.8241C108.635 1.47043 109.682 0.0127995 111.136 0.128967C161.342 4.14037 201.423 44.1337 205.546 94.331C205.613 95.1465 205.165 95.9194 204.428 96.2744L175.443 110.234C174.884 110.504 174.231 110.498 173.676 110.218L151.899 99.2505C151.279 98.9379 150.868 98.3228 150.793 97.632C148.414 75.6386 131.241 58.0673 109.428 55.0941C107.954 54.8932 107.093 53.2555 107.849 51.9743L120.366 30.7598C120.37 30.752 120.373 30.7432 120.373 30.7342V30.7342ZM142.575 102.775C142.575 102.775 142.575 102.775 142.575 102.775V102.775C142.575 103.397 142.575 104.042 142.529 104.664C141.746 121.534 130.461 135.638 115.076 140.616C111.391 141.814 107.499 142.483 103.422 142.529H102.801C82.9936 142.529 66.5493 128.01 63.5552 109.043C63.2328 106.992 63.0716 104.895 63.0716 102.775C63.0716 100.9 63.1256 100.323 63.2177 99.3378L63.2179 99.3354C63.2299 99.2071 63.2426 99.0719 63.2558 98.926C64.7759 82.9783 75.7157 69.7731 90.4557 64.9565C94.0256 63.7812 97.8258 63.1128 101.764 62.9976H102.824C121.986 62.9976 137.969 76.5716 141.723 94.6165C142.275 97.2401 142.552 99.9557 142.552 102.763C142.552 102.77 142.558 102.775 142.564 102.775H142.575ZM205.837 106.094C204.181 160.072 161.066 203.596 107.271 205.876C106.411 205.912 105.627 205.383 105.331 204.575L94.7258 175.653C94.5122 175.07 94.5811 174.422 94.9123 173.897L109.097 151.426C109.411 150.929 109.93 150.597 110.511 150.504C130.74 147.261 146.771 131.441 150.322 111.308C150.564 109.938 152.052 109.135 153.294 109.761L174.335 120.366C174.89 120.646 175.543 120.652 176.102 120.382L205.816 106.08C205.826 106.076 205.837 106.083 205.837 106.094V106.094ZM92.7753 205.463C94.2157 205.603 95.2863 204.184 94.7885 202.826L84.2211 173.98C84.2203 173.978 84.2175 173.977 84.2159 173.979V173.979C84.2132 173.981 84.2089 173.978 84.211 173.975L96.9831 153.756C97.7844 152.487 96.9528 150.811 95.4697 150.583C73.6833 147.241 56.6973 129.338 54.7711 107.117C54.7056 106.362 54.2394 105.694 53.5421 105.397L28.4238 94.7064C27.8524 94.4632 27.2004 94.4993 26.6593 94.8039L1.10008 109.196C0.429201 109.573 0.0333326 110.307 0.0937147 111.075C4.00836 160.836 43.2763 200.668 92.7753 205.463Z" fill="url(#paint0_linear_3005_2615)" fill-opacity="0.15"/>
<path d="M142.529 104.664L139.538 104.443L139.535 104.484L139.533 104.525L142.529 104.664ZM115.076 140.616L114.153 137.762L114.148 137.763L115.076 140.616ZM103.422 142.529V145.529H103.439L103.456 145.529L103.422 142.529ZM63.5552 109.043L60.5916 109.509L60.5919 109.511L63.5552 109.043ZM63.2177 99.3378L60.2312 99.0534L60.2307 99.0585L63.2177 99.3378ZM63.2179 99.3354L66.2044 99.6199L66.2049 99.6148L63.2179 99.3354ZM63.2558 98.926L60.2693 98.6414L60.2681 98.6547L63.2558 98.926ZM90.4557 64.9565L91.3876 67.8081L91.3939 67.806L90.4557 64.9565ZM101.764 62.9976V59.9976H101.72L101.676 59.9989L101.764 62.9976ZM141.723 94.6165L138.786 95.2275L138.788 95.2341L141.723 94.6165ZM28.4238 94.7064L27.249 97.4668L28.4238 94.7064ZM26.6593 94.8039L25.1874 92.1899L26.6593 94.8039ZM53.5421 105.397L52.3673 108.158L53.5421 105.397ZM96.9831 153.756L99.5194 155.358L96.9831 153.756ZM95.4697 150.583L95.9245 147.618L95.4697 150.583ZM84.211 173.975L86.7473 175.577L84.211 173.975ZM92.7753 205.463L93.0646 202.477L92.7753 205.463ZM84.2211 173.98L87.038 172.948L84.2211 173.98ZM205.816 106.08L204.515 103.377L205.816 106.08ZM120.366 30.7598L117.782 29.2354L120.366 30.7598ZM174.335 120.366L175.685 117.687L174.335 120.366ZM176.102 120.382L177.404 123.086L176.102 120.382ZM109.428 55.0941L109.833 52.1216L109.428 55.0941ZM107.849 51.9743L105.265 50.4499L107.849 51.9743ZM150.322 111.308L153.277 111.829L150.322 111.308ZM153.294 109.761L151.943 112.44L153.294 109.761ZM151.899 99.2505L153.249 96.5711L151.899 99.2505ZM150.793 97.632L147.81 97.9546L150.793 97.632ZM110.511 150.504L110.036 147.542L110.511 150.504ZM175.443 110.234L174.142 107.531L175.443 110.234ZM173.676 110.218L175.025 107.539L173.676 110.218ZM94.7258 175.653L97.5424 174.62L94.7258 175.653ZM94.9123 173.897L92.3755 172.295L94.9123 173.897ZM205.546 94.331L202.557 94.5766L205.546 94.331ZM204.428 96.2744L205.73 98.9773L204.428 96.2744ZM120.369 30.7153L123.153 29.5982L120.369 30.7153ZM107.271 205.876L107.398 208.873L107.271 205.876ZM105.331 204.575L102.514 205.608L105.331 204.575ZM109.178 2.8241L111.962 1.70695L109.178 2.8241ZM142.552 102.763L145.552 102.762L142.552 102.763ZM0.00429043 96.1906L-2.98953 95.9982L0.00429043 96.1906ZM2.92478 97.9964L4.39752 100.61L2.92478 97.9964ZM98.4707 1.24688L95.6863 2.36368L98.4707 1.24688ZM109.68 31.2897L107.097 29.7639L109.68 31.2897ZM109.814 29.528L107.03 30.6448L109.814 29.528ZM96.0474 54.3697L93.4643 52.8439L96.0474 54.3697ZM55.1293 95.8324L52.1605 95.4006L55.1293 95.8324ZM28.4471 84.5113L29.6215 81.7508L28.4471 84.5113ZM26.6823 84.6093L25.2096 81.9957L26.6823 84.6093ZM55.0988 95.8496L53.9244 98.6102L55.0988 95.8496ZM56.2733 93.089L29.6215 81.7508L27.2727 87.2719L53.9244 98.6102L56.2733 93.089ZM94.1172 52.3827C72.3915 56.1038 55.3459 73.5025 52.1605 95.4006L58.098 96.2643C60.9081 76.9459 75.9595 61.5801 95.1301 58.2966L94.1172 52.3827ZM107.097 29.7639L93.4643 52.8439L98.6304 55.8954L112.263 32.8154L107.097 29.7639ZM95.6863 2.36368L107.03 30.6448L112.599 28.4112L101.255 0.130071L95.6863 2.36368ZM2.99811 96.3831C6.22427 46.1884 46.4583 6.05017 96.6978 2.9981L96.334 -2.99086C43.0729 0.244772 0.43049 42.7873 -2.98953 95.9982L2.99811 96.3831ZM25.2096 81.9957L1.45203 95.3828L4.39752 100.61L28.1551 87.2229L25.2096 81.9957ZM106.394 3.94124L117.585 31.8325L123.153 29.5982L111.962 1.70695L106.394 3.94124ZM208.536 94.0854C204.293 42.4226 163.047 1.26702 111.375 -2.8615L110.897 3.11944C159.637 7.01373 198.554 45.8447 202.557 94.5766L208.536 94.0854ZM176.745 112.937L205.73 98.9773L203.126 93.5716L174.142 107.531L176.745 112.937ZM150.55 101.93L172.327 112.898L175.025 107.539L153.249 96.5711L150.55 101.93ZM109.022 58.0666C129.473 60.854 145.58 77.335 147.81 97.9546L153.776 97.3094C151.248 73.9423 133.009 55.2805 109.833 52.1216L109.022 58.0666ZM117.782 29.2354L105.265 50.4499L110.433 53.4987L122.949 32.2843L117.782 29.2354ZM145.521 104.886C145.577 104.134 145.575 103.377 145.575 102.775H139.575C139.575 103.418 139.574 103.951 139.538 104.443L145.521 104.886ZM116 143.47C132.544 138.117 144.684 122.953 145.526 104.804L139.533 104.525C138.809 120.115 128.379 133.159 114.153 137.762L116 143.47ZM103.456 145.529C107.843 145.479 112.037 144.759 116.004 143.469L114.148 137.763C110.746 138.87 107.155 139.486 103.388 139.529L103.456 145.529ZM102.801 145.529H103.422V139.529H102.801V145.529ZM60.5919 109.511C63.8126 129.913 81.4948 145.529 102.801 145.529V139.529C84.4925 139.529 69.2859 126.106 66.5185 108.575L60.5919 109.511ZM60.0716 102.775C60.0716 105.047 60.2443 107.3 60.5916 109.509L66.5188 108.577C66.2213 106.684 66.0716 104.743 66.0716 102.775H60.0716ZM60.2307 99.0585C60.1312 100.123 60.0716 100.794 60.0716 102.775H66.0716C66.0716 101.006 66.12 100.522 66.2047 99.6172L60.2307 99.0585ZM60.2314 99.051L60.2312 99.0534L66.2042 99.6223L66.2044 99.6199L60.2314 99.051ZM60.2681 98.6547C60.2553 98.796 60.243 98.9274 60.231 99.0561L66.2049 99.6148C66.2169 99.4869 66.2299 99.3479 66.2435 99.1974L60.2681 98.6547ZM89.5239 62.1049C73.6717 67.2849 61.9049 81.4823 60.2694 98.6414L66.2423 99.2107C67.6469 84.4744 77.7598 72.2612 91.3876 67.8081L89.5239 62.1049ZM101.676 59.9989C97.4549 60.1224 93.3679 60.8393 89.5176 62.107L91.3939 67.806C94.6833 66.723 98.1966 66.1033 101.852 65.9963L101.676 59.9989ZM102.824 59.9976H101.764V65.9976H102.824V59.9976ZM144.66 94.0054C140.623 74.5995 123.438 59.9976 102.824 59.9976V65.9976C120.533 65.9976 135.315 78.5437 138.786 95.2275L144.66 94.0054ZM145.552 102.762C145.552 99.7573 145.256 96.8346 144.659 93.9988L138.788 95.2341C139.295 97.6456 139.552 100.154 139.552 102.764L145.552 102.762ZM142.575 99.7747H142.564V105.775H142.575V99.7747ZM107.398 208.873C162.762 206.527 207.131 161.736 208.836 106.186L202.838 106.002C201.23 158.408 159.369 200.665 107.143 202.878L107.398 208.873ZM91.9092 176.686L102.514 205.608L108.147 203.542L97.5424 174.62L91.9092 176.686ZM106.561 149.824L92.3755 172.295L97.4492 175.498L111.634 153.027L106.561 149.824ZM147.368 110.787C144.038 129.662 129.001 144.502 110.036 147.542L110.986 153.466C132.479 150.021 149.504 133.219 153.277 111.829L147.368 110.787ZM175.685 117.687L154.644 107.082L151.943 112.44L172.985 123.045L175.685 117.687ZM204.515 103.377L174.801 117.679L177.404 123.086L207.117 108.784L204.515 103.377ZM81.4041 175.012L91.9716 203.858L97.6054 201.794L87.038 172.948L81.4041 175.012ZM94.4467 152.154L81.6746 172.373L86.7473 175.577L99.5194 155.358L94.4467 152.154ZM51.7823 107.376C53.8288 130.985 71.8705 149.998 95.0148 153.548L95.9245 147.618C75.4961 144.484 59.5657 127.691 57.7599 106.858L51.7823 107.376ZM27.249 97.4668L52.3673 108.158L54.717 102.637L29.5987 91.9461L27.249 97.4668ZM2.57199 111.81L28.1312 97.418L25.1874 92.1899L-0.371826 106.581L2.57199 111.81ZM93.0646 202.477C45.0114 197.822 6.88479 159.147 3.08447 110.839L-2.89705 111.31C1.13194 162.525 41.5411 203.514 92.4861 208.449L93.0646 202.477ZM-0.371826 106.581C-2.04883 107.526 -3.05008 109.364 -2.89705 111.31L3.08447 110.839C3.11675 111.25 2.90723 111.621 2.57199 111.81L-0.371826 106.581ZM29.5987 91.9461C28.1702 91.338 26.5402 91.4281 25.1874 92.1899L28.1312 97.418C27.8607 97.5704 27.5347 97.5884 27.249 97.4668L29.5987 91.9461ZM57.7599 106.858C57.6027 105.046 56.4778 103.386 54.717 102.637L52.3673 108.158C52.0009 108.002 51.8085 107.679 51.7823 107.376L57.7599 106.858ZM99.5194 155.358C101.564 152.122 99.3787 148.148 95.9245 147.618L95.0148 153.548C94.7128 153.502 94.4885 153.305 94.3822 153.085C94.2699 152.853 94.2403 152.48 94.4467 152.154L99.5194 155.358ZM82.0945 171.857C84.6246 169.327 88.6551 172.557 86.7473 175.577L81.6746 172.373C79.7628 175.399 83.8018 178.635 86.3372 176.1L82.0945 171.857ZM91.9716 203.858C91.7301 203.199 92.2462 202.398 93.0646 202.477L92.4861 208.449C96.1852 208.808 98.8425 205.17 97.6054 201.794L91.9716 203.858ZM87.038 172.948C86.2833 170.888 83.646 170.306 82.0945 171.857L86.3372 176.1C84.789 177.648 82.1573 177.068 81.4041 175.012L87.038 172.948ZM145.575 102.775C145.575 101.118 144.232 99.7747 142.575 99.7747V105.775C140.918 105.775 139.575 104.432 139.575 102.775H145.575ZM207.117 108.784C205.135 109.738 202.837 108.293 202.837 106.094H208.837C208.837 103.872 206.516 102.414 204.515 103.377L207.117 108.784ZM122.949 32.2843C123.226 31.8147 123.373 31.2794 123.373 30.7342H117.373C117.373 30.207 117.514 29.6894 117.782 29.2354L122.949 32.2843ZM172.985 123.045C174.371 123.744 176.004 123.759 177.404 123.086L174.801 117.679C175.081 117.545 175.408 117.548 175.685 117.687L172.985 123.045ZM109.833 52.1216C110.133 52.1625 110.36 52.3533 110.472 52.5708C110.59 52.8006 110.627 53.169 110.433 53.4987L105.265 50.4499C103.338 53.7171 105.586 57.5983 109.022 58.0666L109.833 52.1216ZM153.277 111.829C153.227 112.108 153.048 112.326 152.831 112.44C152.604 112.56 152.261 112.6 151.943 112.44L154.644 107.082C151.487 105.491 147.935 107.572 147.368 110.787L153.277 111.829ZM153.249 96.5711C153.574 96.7351 153.746 97.0308 153.776 97.3094L147.81 97.9546C147.99 99.6149 148.983 101.141 150.55 101.93L153.249 96.5711ZM111.634 153.027C111.47 153.287 111.222 153.428 110.986 153.466L110.036 147.542C108.638 147.766 107.352 148.57 106.561 149.824L111.634 153.027ZM174.142 107.531C174.422 107.396 174.748 107.399 175.025 107.539L172.327 112.898C173.713 113.596 175.346 113.611 176.745 112.937L174.142 107.531ZM97.5424 174.62C97.6492 174.911 97.6148 175.236 97.4492 175.498L92.3755 172.295C91.5474 173.607 91.3751 175.229 91.9092 176.686L97.5424 174.62ZM202.557 94.5766C202.521 94.1399 202.758 93.7489 203.126 93.5716L205.73 98.9773C207.572 98.0899 208.706 96.153 208.536 94.0854L202.557 94.5766ZM117.585 31.8325C117.445 31.4833 117.373 31.1105 117.373 30.7342H123.373C123.373 30.3449 123.298 29.9594 123.153 29.5982L117.585 31.8325ZM107.143 202.878C107.603 202.859 107.999 203.138 108.147 203.542L102.514 205.608C103.254 207.627 105.22 208.965 107.398 208.873L107.143 202.878ZM111.962 1.70695C112.226 2.36365 111.724 3.18547 110.897 3.11944L111.375 -2.8615C107.641 -3.15987 105.044 0.577221 106.394 3.94124L111.962 1.70695ZM139.552 102.764C139.553 104.423 140.897 105.775 142.564 105.775V99.7747C144.218 99.7747 145.552 101.117 145.552 102.762L139.552 102.764ZM-2.98953 95.9982C-3.24706 100.005 1.03286 102.506 4.39752 100.61L1.45203 95.3828C2.10346 95.0157 3.05589 95.4842 2.99811 96.3831L-2.98953 95.9982ZM101.255 0.130071C100.463 -1.84571 98.4889 -3.12177 96.334 -2.99086L96.6978 2.9981C96.2428 3.02575 95.8448 2.75886 95.6863 2.36368L101.255 0.130071ZM112.263 32.8154C113.052 31.479 113.176 29.8517 112.599 28.4112L107.03 30.6448C106.914 30.3567 106.939 30.0312 107.097 29.7639L112.263 32.8154ZM95.1301 58.2966C96.5574 58.0522 97.8587 57.2019 98.6304 55.8954L93.4643 52.8439C93.6242 52.5733 93.8757 52.4241 94.1172 52.3827L95.1301 58.2966ZM55.1075 98.8514C56.6199 98.8514 57.8836 97.7383 58.098 96.2643L52.1605 95.4006C52.3718 93.9482 53.6169 92.8514 55.1075 92.8514V98.8514ZM29.6215 81.7508C28.1926 81.1429 26.5624 81.2334 25.2096 81.9957L28.1551 87.2229C27.8845 87.3754 27.5585 87.3935 27.2727 87.2719L29.6215 81.7508ZM53.9244 98.6102C54.2985 98.7693 54.7009 98.8514 55.1075 98.8514V92.8514C55.5081 92.8514 55.9046 92.9322 56.2733 93.089L53.9244 98.6102Z" fill="url(#paint1_linear_3005_2615)" mask="url(#path-1-inside-1_3005_2615)"/>
<path d="M142.529 104.664L139.538 104.443L139.535 104.484L139.533 104.525L142.529 104.664ZM115.076 140.616L114.153 137.762L114.148 137.763L115.076 140.616ZM103.422 142.529V145.529H103.439L103.456 145.529L103.422 142.529ZM63.5552 109.043L60.5916 109.509L60.5919 109.511L63.5552 109.043ZM63.2177 99.3378L60.2312 99.0534L60.2307 99.0585L63.2177 99.3378ZM63.2179 99.3354L66.2044 99.6199L66.2049 99.6148L63.2179 99.3354ZM63.2558 98.926L60.2693 98.6414L60.2681 98.6547L63.2558 98.926ZM90.4557 64.9565L91.3876 67.8081L91.3939 67.806L90.4557 64.9565ZM101.764 62.9976V59.9976H101.72L101.676 59.9989L101.764 62.9976ZM141.723 94.6165L138.786 95.2275L138.788 95.2341L141.723 94.6165ZM28.4238 94.7064L27.249 97.4668L28.4238 94.7064ZM26.6593 94.8039L25.1874 92.1899L26.6593 94.8039ZM53.5421 105.397L52.3673 108.158L53.5421 105.397ZM96.9831 153.756L99.5194 155.358L96.9831 153.756ZM95.4697 150.583L95.9245 147.618L95.4697 150.583ZM84.211 173.975L86.7473 175.577L84.211 173.975ZM92.7753 205.463L93.0646 202.477L92.7753 205.463ZM84.2211 173.98L87.038 172.948L84.2211 173.98ZM205.816 106.08L204.515 103.377L205.816 106.08ZM120.366 30.7598L117.782 29.2354L120.366 30.7598ZM174.335 120.366L175.685 117.687L174.335 120.366ZM176.102 120.382L177.404 123.086L176.102 120.382ZM109.428 55.0941L109.833 52.1216L109.428 55.0941ZM107.849 51.9743L105.265 50.4499L107.849 51.9743ZM150.322 111.308L153.277 111.829L150.322 111.308ZM153.294 109.761L151.943 112.44L153.294 109.761ZM151.899 99.2505L153.249 96.5711L151.899 99.2505ZM150.793 97.632L147.81 97.9546L150.793 97.632ZM110.511 150.504L110.036 147.542L110.511 150.504ZM175.443 110.234L174.142 107.531L175.443 110.234ZM173.676 110.218L175.025 107.539L173.676 110.218ZM94.7258 175.653L97.5424 174.62L94.7258 175.653ZM94.9123 173.897L92.3755 172.295L94.9123 173.897ZM205.546 94.331L202.557 94.5766L205.546 94.331ZM204.428 96.2744L205.73 98.9773L204.428 96.2744ZM120.369 30.7153L123.153 29.5982L120.369 30.7153ZM107.271 205.876L107.398 208.873L107.271 205.876ZM105.331 204.575L102.514 205.608L105.331 204.575ZM109.178 2.8241L111.962 1.70695L109.178 2.8241ZM142.552 102.763L145.552 102.762L142.552 102.763ZM0.00429043 96.1906L-2.98953 95.9982L0.00429043 96.1906ZM2.92478 97.9964L4.39752 100.61L2.92478 97.9964ZM98.4707 1.24688L95.6863 2.36368L98.4707 1.24688ZM109.68 31.2897L107.097 29.7639L109.68 31.2897ZM109.814 29.528L107.03 30.6448L109.814 29.528ZM96.0474 54.3697L93.4643 52.8439L96.0474 54.3697ZM55.1293 95.8324L52.1605 95.4006L55.1293 95.8324ZM28.4471 84.5113L29.6215 81.7508L28.4471 84.5113ZM26.6823 84.6093L25.2096 81.9957L26.6823 84.6093ZM55.0988 95.8496L53.9244 98.6102L55.0988 95.8496ZM56.2733 93.089L29.6215 81.7508L27.2727 87.2719L53.9244 98.6102L56.2733 93.089ZM94.1172 52.3827C72.3915 56.1038 55.3459 73.5025 52.1605 95.4006L58.098 96.2643C60.9081 76.9459 75.9595 61.5801 95.1301 58.2966L94.1172 52.3827ZM107.097 29.7639L93.4643 52.8439L98.6304 55.8954L112.263 32.8154L107.097 29.7639ZM95.6863 2.36368L107.03 30.6448L112.599 28.4112L101.255 0.130071L95.6863 2.36368ZM2.99811 96.3831C6.22427 46.1884 46.4583 6.05017 96.6978 2.9981L96.334 -2.99086C43.0729 0.244772 0.43049 42.7873 -2.98953 95.9982L2.99811 96.3831ZM25.2096 81.9957L1.45203 95.3828L4.39752 100.61L28.1551 87.2229L25.2096 81.9957ZM106.394 3.94124L117.585 31.8325L123.153 29.5982L111.962 1.70695L106.394 3.94124ZM208.536 94.0854C204.293 42.4226 163.047 1.26702 111.375 -2.8615L110.897 3.11944C159.637 7.01373 198.554 45.8447 202.557 94.5766L208.536 94.0854ZM176.745 112.937L205.73 98.9773L203.126 93.5716L174.142 107.531L176.745 112.937ZM150.55 101.93L172.327 112.898L175.025 107.539L153.249 96.5711L150.55 101.93ZM109.022 58.0666C129.473 60.854 145.58 77.335 147.81 97.9546L153.776 97.3094C151.248 73.9423 133.009 55.2805 109.833 52.1216L109.022 58.0666ZM117.782 29.2354L105.265 50.4499L110.433 53.4987L122.949 32.2843L117.782 29.2354ZM145.521 104.886C145.577 104.134 145.575 103.377 145.575 102.775H139.575C139.575 103.418 139.574 103.951 139.538 104.443L145.521 104.886ZM116 143.47C132.544 138.117 144.684 122.953 145.526 104.804L139.533 104.525C138.809 120.115 128.379 133.159 114.153 137.762L116 143.47ZM103.456 145.529C107.843 145.479 112.037 144.759 116.004 143.469L114.148 137.763C110.746 138.87 107.155 139.486 103.388 139.529L103.456 145.529ZM102.801 145.529H103.422V139.529H102.801V145.529ZM60.5919 109.511C63.8126 129.913 81.4948 145.529 102.801 145.529V139.529C84.4925 139.529 69.2859 126.106 66.5185 108.575L60.5919 109.511ZM60.0716 102.775C60.0716 105.047 60.2443 107.3 60.5916 109.509L66.5188 108.577C66.2213 106.684 66.0716 104.743 66.0716 102.775H60.0716ZM60.2307 99.0585C60.1312 100.123 60.0716 100.794 60.0716 102.775H66.0716C66.0716 101.006 66.12 100.522 66.2047 99.6172L60.2307 99.0585ZM60.2314 99.051L60.2312 99.0534L66.2042 99.6223L66.2044 99.6199L60.2314 99.051ZM60.2681 98.6547C60.2553 98.796 60.243 98.9274 60.231 99.0561L66.2049 99.6148C66.2169 99.4869 66.2299 99.3479 66.2435 99.1974L60.2681 98.6547ZM89.5239 62.1049C73.6717 67.2849 61.9049 81.4823 60.2694 98.6414L66.2423 99.2107C67.6469 84.4744 77.7598 72.2612 91.3876 67.8081L89.5239 62.1049ZM101.676 59.9989C97.4549 60.1224 93.3679 60.8393 89.5176 62.107L91.3939 67.806C94.6833 66.723 98.1966 66.1033 101.852 65.9963L101.676 59.9989ZM102.824 59.9976H101.764V65.9976H102.824V59.9976ZM144.66 94.0054C140.623 74.5995 123.438 59.9976 102.824 59.9976V65.9976C120.533 65.9976 135.315 78.5437 138.786 95.2275L144.66 94.0054ZM145.552 102.762C145.552 99.7573 145.256 96.8346 144.659 93.9988L138.788 95.2341C139.295 97.6456 139.552 100.154 139.552 102.764L145.552 102.762ZM142.575 99.7747H142.564V105.775H142.575V99.7747ZM107.398 208.873C162.762 206.527 207.131 161.736 208.836 106.186L202.838 106.002C201.23 158.408 159.369 200.665 107.143 202.878L107.398 208.873ZM91.9092 176.686L102.514 205.608L108.147 203.542L97.5424 174.62L91.9092 176.686ZM106.561 149.824L92.3755 172.295L97.4492 175.498L111.634 153.027L106.561 149.824ZM147.368 110.787C144.038 129.662 129.001 144.502 110.036 147.542L110.986 153.466C132.479 150.021 149.504 133.219 153.277 111.829L147.368 110.787ZM175.685 117.687L154.644 107.082L151.943 112.44L172.985 123.045L175.685 117.687ZM204.515 103.377L174.801 117.679L177.404 123.086L207.117 108.784L204.515 103.377ZM81.4041 175.012L91.9716 203.858L97.6054 201.794L87.038 172.948L81.4041 175.012ZM94.4467 152.154L81.6746 172.373L86.7473 175.577L99.5194 155.358L94.4467 152.154ZM51.7823 107.376C53.8288 130.985 71.8705 149.998 95.0148 153.548L95.9245 147.618C75.4961 144.484 59.5657 127.691 57.7599 106.858L51.7823 107.376ZM27.249 97.4668L52.3673 108.158L54.717 102.637L29.5987 91.9461L27.249 97.4668ZM2.57199 111.81L28.1312 97.418L25.1874 92.1899L-0.371826 106.581L2.57199 111.81ZM93.0646 202.477C45.0114 197.822 6.88479 159.147 3.08447 110.839L-2.89705 111.31C1.13194 162.525 41.5411 203.514 92.4861 208.449L93.0646 202.477ZM-0.371826 106.581C-2.04883 107.526 -3.05008 109.364 -2.89705 111.31L3.08447 110.839C3.11675 111.25 2.90723 111.621 2.57199 111.81L-0.371826 106.581ZM29.5987 91.9461C28.1702 91.338 26.5402 91.4281 25.1874 92.1899L28.1312 97.418C27.8607 97.5704 27.5347 97.5884 27.249 97.4668L29.5987 91.9461ZM57.7599 106.858C57.6027 105.046 56.4778 103.386 54.717 102.637L52.3673 108.158C52.0009 108.002 51.8085 107.679 51.7823 107.376L57.7599 106.858ZM99.5194 155.358C101.564 152.122 99.3787 148.148 95.9245 147.618L95.0148 153.548C94.7128 153.502 94.4885 153.305 94.3822 153.085C94.2699 152.853 94.2403 152.48 94.4467 152.154L99.5194 155.358ZM82.0945 171.857C84.6246 169.327 88.6551 172.557 86.7473 175.577L81.6746 172.373C79.7628 175.399 83.8018 178.635 86.3372 176.1L82.0945 171.857ZM91.9716 203.858C91.7301 203.199 92.2462 202.398 93.0646 202.477L92.4861 208.449C96.1852 208.808 98.8425 205.17 97.6054 201.794L91.9716 203.858ZM87.038 172.948C86.2833 170.888 83.646 170.306 82.0945 171.857L86.3372 176.1C84.789 177.648 82.1573 177.068 81.4041 175.012L87.038 172.948ZM145.575 102.775C145.575 101.118 144.232 99.7747 142.575 99.7747V105.775C140.918 105.775 139.575 104.432 139.575 102.775H145.575ZM207.117 108.784C205.135 109.738 202.837 108.293 202.837 106.094H208.837C208.837 103.872 206.516 102.414 204.515 103.377L207.117 108.784ZM122.949 32.2843C123.226 31.8147 123.373 31.2794 123.373 30.7342H117.373C117.373 30.207 117.514 29.6894 117.782 29.2354L122.949 32.2843ZM172.985 123.045C174.371 123.744 176.004 123.759 177.404 123.086L174.801 117.679C175.081 117.545 175.408 117.548 175.685 117.687L172.985 123.045ZM109.833 52.1216C110.133 52.1625 110.36 52.3533 110.472 52.5708C110.59 52.8006 110.627 53.169 110.433 53.4987L105.265 50.4499C103.338 53.7171 105.586 57.5983 109.022 58.0666L109.833 52.1216ZM153.277 111.829C153.227 112.108 153.048 112.326 152.831 112.44C152.604 112.56 152.261 112.6 151.943 112.44L154.644 107.082C151.487 105.491 147.935 107.572 147.368 110.787L153.277 111.829ZM153.249 96.5711C153.574 96.7351 153.746 97.0308 153.776 97.3094L147.81 97.9546C147.99 99.6149 148.983 101.141 150.55 101.93L153.249 96.5711ZM111.634 153.027C111.47 153.287 111.222 153.428 110.986 153.466L110.036 147.542C108.638 147.766 107.352 148.57 106.561 149.824L111.634 153.027ZM174.142 107.531C174.422 107.396 174.748 107.399 175.025 107.539L172.327 112.898C173.713 113.596 175.346 113.611 176.745 112.937L174.142 107.531ZM97.5424 174.62C97.6492 174.911 97.6148 175.236 97.4492 175.498L92.3755 172.295C91.5474 173.607 91.3751 175.229 91.9092 176.686L97.5424 174.62ZM202.557 94.5766C202.521 94.1399 202.758 93.7489 203.126 93.5716L205.73 98.9773C207.572 98.0899 208.706 96.153 208.536 94.0854L202.557 94.5766ZM117.585 31.8325C117.445 31.4833 117.373 31.1105 117.373 30.7342H123.373C123.373 30.3449 123.298 29.9594 123.153 29.5982L117.585 31.8325ZM107.143 202.878C107.603 202.859 107.999 203.138 108.147 203.542L102.514 205.608C103.254 207.627 105.22 208.965 107.398 208.873L107.143 202.878ZM111.962 1.70695C112.226 2.36365 111.724 3.18547 110.897 3.11944L111.375 -2.8615C107.641 -3.15987 105.044 0.577221 106.394 3.94124L111.962 1.70695ZM139.552 102.764C139.553 104.423 140.897 105.775 142.564 105.775V99.7747C144.218 99.7747 145.552 101.117 145.552 102.762L139.552 102.764ZM-2.98953 95.9982C-3.24706 100.005 1.03286 102.506 4.39752 100.61L1.45203 95.3828C2.10346 95.0157 3.05589 95.4842 2.99811 96.3831L-2.98953 95.9982ZM101.255 0.130071C100.463 -1.84571 98.4889 -3.12177 96.334 -2.99086L96.6978 2.9981C96.2428 3.02575 95.8448 2.75886 95.6863 2.36368L101.255 0.130071ZM112.263 32.8154C113.052 31.479 113.176 29.8517 112.599 28.4112L107.03 30.6448C106.914 30.3567 106.939 30.0312 107.097 29.7639L112.263 32.8154ZM95.1301 58.2966C96.5574 58.0522 97.8587 57.2019 98.6304 55.8954L93.4643 52.8439C93.6242 52.5733 93.8757 52.4241 94.1172 52.3827L95.1301 58.2966ZM55.1075 98.8514C56.6199 98.8514 57.8836 97.7383 58.098 96.2643L52.1605 95.4006C52.3718 93.9482 53.6169 92.8514 55.1075 92.8514V98.8514ZM29.6215 81.7508C28.1926 81.1429 26.5624 81.2334 25.2096 81.9957L28.1551 87.2229C27.8845 87.3754 27.5585 87.3935 27.2727 87.2719L29.6215 81.7508ZM53.9244 98.6102C54.2985 98.7693 54.7009 98.8514 55.1075 98.8514V92.8514C55.5081 92.8514 55.9046 92.9322 56.2733 93.089L53.9244 98.6102Z" fill="url(#paint2_linear_3005_2615)" fill-opacity="0.5" mask="url(#path-1-inside-1_3005_2615)"/>
</g>
<defs>
<filter id="filter0_b_3005_2615" x="-16" y="-16" width="237.837" height="237.877" filterUnits="userSpaceOnUse" color-interpolation-filters="sRGB">
<feFlood flood-opacity="0" result="BackgroundImageFix"/>
<feGaussianBlur in="BackgroundImageFix" stdDeviation="8"/>
<feComposite in2="SourceAlpha" operator="in" result="effect1_backgroundBlur_3005_2615"/>
<feBlend mode="normal" in="SourceGraphic" in2="effect1_backgroundBlur_3005_2615" result="shape"/>
</filter>
<linearGradient id="paint0_linear_3005_2615" x1="0" y1="102.939" x2="205.837" y2="102.939" gradientUnits="userSpaceOnUse">
<stop stop-color="#808DFF"/>
<stop offset="1" stop-color="#90FFCA"/>
</linearGradient>
<linearGradient id="paint1_linear_3005_2615" x1="102.919" y1="0" x2="102.919" y2="205.877" gradientUnits="userSpaceOnUse">
<stop stop-color="white"/>
<stop offset="1" stop-color="white"/>
</linearGradient>
<linearGradient id="paint2_linear_3005_2615" x1="0" y1="102.939" x2="205.837" y2="102.939" gradientUnits="userSpaceOnUse">
<stop stop-color="#808DFF"/>
<stop offset="1" stop-color="#90FFCA"/>
</linearGradient>
</defs>
</svg>
