<svg width="128" height="128" viewBox="0 0 128 128" fill="none" xmlns="http://www.w3.org/2000/svg">
<path fill-rule="evenodd" clip-rule="evenodd" d="M72.366 8.13572C67.7082 3.60625 60.2917 3.60625 55.6339 8.13571L52.4312 11.2502C49.762 13.846 46.0389 15.0557 42.3537 14.5246L37.932 13.8874C31.5014 12.9608 25.5013 17.3201 24.3955 23.7223L23.6351 28.1245C23.0014 31.7935 20.7004 34.9605 17.4068 36.697L13.455 38.7805C7.70794 41.8106 5.41609 48.8641 8.28455 54.6936L10.2569 58.702C11.9008 62.0428 11.9008 65.9574 10.2569 69.2982L8.28455 73.3066C5.41609 79.136 7.70793 86.1896 13.455 89.2197L17.4068 91.3032C20.7004 93.0397 23.0014 96.2067 23.6351 99.8757L24.3955 104.278C25.5013 110.68 31.5014 115.039 37.9319 114.113L42.3536 113.476C46.0389 112.944 49.7619 114.154 52.4312 116.75L55.6339 119.864C60.2917 124.394 67.7082 124.394 72.366 119.864L75.5687 116.75C78.238 114.154 81.961 112.944 85.6463 113.476L90.068 114.113C96.4985 115.039 102.499 110.68 103.604 104.278L104.365 99.8757C104.999 96.2067 107.3 93.0397 110.593 91.3032L114.545 89.2197C120.292 86.1896 122.584 79.136 119.715 73.3066L117.743 69.2982C116.099 65.9574 116.099 62.0428 117.743 58.702L119.715 54.6936C122.584 48.8642 120.292 41.8106 114.545 38.7805L110.593 36.697C107.3 34.9605 104.999 31.7935 104.365 28.1245L103.604 23.7223C102.499 17.3201 96.4985 12.9608 90.068 13.8874L85.6463 14.5246C81.961 15.0557 78.238 13.846 75.5687 11.2502L72.366 8.13572ZM64 98.0001C82.7776 98.0001 98 82.7778 98 64.0001C98 45.2224 82.7776 30.0001 64 30.0001C45.2223 30.0001 30 45.2224 30 64.0001C30 82.7778 45.2223 98.0001 64 98.0001Z" fill="black"/>
<path fill-rule="evenodd" clip-rule="evenodd" d="M72.366 8.13572C67.7082 3.60625 60.2917 3.60625 55.6339 8.13571L52.4312 11.2502C49.762 13.846 46.0389 15.0557 42.3537 14.5246L37.932 13.8874C31.5014 12.9608 25.5013 17.3201 24.3955 23.7223L23.6351 28.1245C23.0014 31.7935 20.7004 34.9605 17.4068 36.697L13.455 38.7805C7.70794 41.8106 5.41609 48.8641 8.28455 54.6936L10.2569 58.702C11.9008 62.0428 11.9008 65.9574 10.2569 69.2982L8.28455 73.3066C5.41609 79.136 7.70793 86.1896 13.455 89.2197L17.4068 91.3032C20.7004 93.0397 23.0014 96.2067 23.6351 99.8757L24.3955 104.278C25.5013 110.68 31.5014 115.039 37.9319 114.113L42.3536 113.476C46.0389 112.944 49.7619 114.154 52.4312 116.75L55.6339 119.864C60.2917 124.394 67.7082 124.394 72.366 119.864L75.5687 116.75C78.238 114.154 81.961 112.944 85.6463 113.476L90.068 114.113C96.4985 115.039 102.499 110.68 103.604 104.278L104.365 99.8757C104.999 96.2067 107.3 93.0397 110.593 91.3032L114.545 89.2197C120.292 86.1896 122.584 79.136 119.715 73.3066L117.743 69.2982C116.099 65.9574 116.099 62.0428 117.743 58.702L119.715 54.6936C122.584 48.8642 120.292 41.8106 114.545 38.7805L110.593 36.697C107.3 34.9605 104.999 31.7935 104.365 28.1245L103.604 23.7223C102.499 17.3201 96.4985 12.9608 90.068 13.8874L85.6463 14.5246C81.961 15.0557 78.238 13.846 75.5687 11.2502L72.366 8.13572ZM64 98.0001C82.7776 98.0001 98 82.7778 98 64.0001C98 45.2224 82.7776 30.0001 64 30.0001C45.2223 30.0001 30 45.2224 30 64.0001C30 82.7778 45.2223 98.0001 64 98.0001Z" fill="url(#paint0_linear_1127_3079)" fill-opacity="0.4"/>
<path d="M56.61 9.13931C60.7243 5.13828 67.2757 5.13829 71.39 9.13931L74.5927 12.2538C77.5734 15.1525 81.7308 16.5033 85.846 15.9102L90.2677 15.2731C95.948 14.4545 101.248 18.3053 102.225 23.9605L102.985 28.3627C103.693 32.4598 106.262 35.9962 109.94 37.9353L113.892 40.0188C118.969 42.6954 120.993 48.9261 118.459 54.0754L116.487 58.0838C114.651 61.8143 114.651 66.1857 116.487 69.9162L118.459 73.9246C120.993 79.0739 118.969 85.3046 113.892 87.9812L109.94 90.0647C106.262 92.0038 103.693 95.5403 102.985 99.6373L102.225 104.039C101.248 109.695 95.948 113.546 90.2677 112.727L85.846 112.09C81.7308 111.497 77.5734 112.848 74.5927 115.746L71.39 118.861C67.2757 122.862 60.7243 122.862 56.61 118.861L53.4073 115.746C50.4266 112.848 46.2692 111.497 42.154 112.09L37.7323 112.727C32.052 113.546 26.7519 109.695 25.7751 104.04L25.0147 99.6373C24.307 95.5403 21.7376 92.0038 18.0598 90.0647L14.108 87.9812C9.03141 85.3046 7.00695 79.0739 9.54076 73.9246L11.5131 69.9162C13.3488 66.1857 13.3488 61.8143 11.5131 58.0838L9.54076 54.0754C7.00695 48.9261 9.03141 42.6954 14.108 40.0188L18.0598 37.9353C21.7376 35.9962 24.307 32.4597 25.0147 28.3627L25.7751 23.9605C26.7519 18.3052 32.052 14.4545 37.7323 15.2731L42.154 15.9102C46.2692 16.5033 50.4266 15.1525 53.4073 12.2538L56.61 9.13931Z" stroke="url(#paint1_linear_1127_3079)" stroke-width="2.8"/>
<circle cx="64" cy="64" r="32.6" stroke="url(#paint2_linear_1127_3079)" stroke-width="2.8"/>
<path d="M50 65L61 75L80 52" stroke="url(#paint3_linear_1127_3079)" stroke-width="2.8"/>
<defs>
<linearGradient id="paint0_linear_1127_3079" x1="123.562" y1="64.0001" x2="4.43799" y2="64.0001" gradientUnits="userSpaceOnUse">
<stop offset="0.19" stop-color="#FFACED"/>
<stop offset="0.535" stop-color="#9498FF"/>
<stop offset="0.89" stop-color="#CA86FF"/>
</linearGradient>
<linearGradient id="paint1_linear_1127_3079" x1="128" y1="64" x2="0" y2="64" gradientUnits="userSpaceOnUse">
<stop offset="0.19" stop-color="#FFACED"/>
<stop offset="0.535" stop-color="#9498FF"/>
<stop offset="0.89" stop-color="#CA86FF"/>
</linearGradient>
<linearGradient id="paint2_linear_1127_3079" x1="98" y1="64" x2="30" y2="64" gradientUnits="userSpaceOnUse">
<stop offset="0.19" stop-color="#FFACED"/>
<stop offset="0.535" stop-color="#9498FF"/>
<stop offset="0.89" stop-color="#CA86FF"/>
</linearGradient>
<linearGradient id="paint3_linear_1127_3079" x1="80" y1="63.5" x2="50" y2="63.5" gradientUnits="userSpaceOnUse">
<stop offset="0.19" stop-color="#FFACED"/>
<stop offset="0.535" stop-color="#9498FF"/>
<stop offset="0.89" stop-color="#CA86FF"/>
</linearGradient>
</defs>
</svg>
