<svg width="202" height="177" viewBox="0 0 202 177" fill="none" xmlns="http://www.w3.org/2000/svg">
<g filter="url(#filter0_b_1144_3581)">
<circle cx="46.0453" cy="30.6309" r="22.5225" fill="#070810"/>
<circle cx="46.0453" cy="30.6309" r="22.5225" fill="url(#paint0_linear_1144_3581)" fill-opacity="0.2"/>
<circle cx="46.0453" cy="30.6309" r="22.5225" stroke="white" stroke-width="3"/>
<circle cx="46.0453" cy="30.6309" r="22.5225" stroke="url(#paint1_linear_1144_3581)" stroke-opacity="0.5" stroke-width="3"/>
<path d="M24.7758 58.2787C25.6259 57.9143 26.6148 58.1804 27.1674 58.922L42.7425 79.8254C43.12 80.332 43.7146 80.6304 44.3463 80.6304H47.7438C48.3755 80.6304 48.9701 80.332 49.3476 79.8254L64.9227 58.922C65.4753 58.1804 66.4642 57.9143 67.3143 58.2787L89.1533 67.6382C90.2062 68.0895 90.6657 69.3312 90.1602 70.3592L78.1261 94.8284C77.7897 95.5124 77.0937 95.9458 76.3314 95.9458H15.7587C14.9964 95.9458 14.3004 95.5124 13.964 94.8284L1.92994 70.3592C1.42439 69.3312 1.88388 68.0895 2.9368 67.6382L24.7758 58.2787Z" fill="#070810"/>
<path d="M24.7758 58.2787C25.6259 57.9143 26.6148 58.1804 27.1674 58.922L42.7425 79.8254C43.12 80.332 43.7146 80.6304 44.3463 80.6304H47.7438C48.3755 80.6304 48.9701 80.332 49.3476 79.8254L64.9227 58.922C65.4753 58.1804 66.4642 57.9143 67.3143 58.2787L89.1533 67.6382C90.2062 68.0895 90.6657 69.3312 90.1602 70.3592L78.1261 94.8284C77.7897 95.5124 77.0937 95.9458 76.3314 95.9458H15.7587C14.9964 95.9458 14.3004 95.5124 13.964 94.8284L1.92994 70.3592C1.42439 69.3312 1.88388 68.0895 2.9368 67.6382L24.7758 58.2787Z" fill="url(#paint2_linear_1144_3581)" fill-opacity="0.2"/>
<path d="M24.7758 58.2787C25.6259 57.9143 26.6148 58.1804 27.1674 58.922L42.7425 79.8254C43.12 80.332 43.7146 80.6304 44.3463 80.6304H47.7438C48.3755 80.6304 48.9701 80.332 49.3476 79.8254L64.9227 58.922C65.4753 58.1804 66.4642 57.9143 67.3143 58.2787L89.1533 67.6382C90.2062 68.0895 90.6657 69.3312 90.1602 70.3592L78.1261 94.8284C77.7897 95.5124 77.0937 95.9458 76.3314 95.9458H15.7587C14.9964 95.9458 14.3004 95.5124 13.964 94.8284L1.92994 70.3592C1.42439 69.3312 1.88388 68.0895 2.9368 67.6382L24.7758 58.2787Z" stroke="white" stroke-width="3"/>
<path d="M24.7758 58.2787C25.6259 57.9143 26.6148 58.1804 27.1674 58.922L42.7425 79.8254C43.12 80.332 43.7146 80.6304 44.3463 80.6304H47.7438C48.3755 80.6304 48.9701 80.332 49.3476 79.8254L64.9227 58.922C65.4753 58.1804 66.4642 57.9143 67.3143 58.2787L89.1533 67.6382C90.2062 68.0895 90.6657 69.3312 90.1602 70.3592L78.1261 94.8284C77.7897 95.5124 77.0937 95.9458 76.3314 95.9458H15.7587C14.9964 95.9458 14.3004 95.5124 13.964 94.8284L1.92994 70.3592C1.42439 69.3312 1.88388 68.0895 2.9368 67.6382L24.7758 58.2787Z" stroke="url(#paint3_linear_1144_3581)" stroke-opacity="0.5" stroke-width="3"/>
</g>
<g filter="url(#filter1_b_1144_3581)">
<circle cx="155.955" cy="96.3965" r="22.5225" fill="#070810"/>
<circle cx="155.955" cy="96.3965" r="22.5225" fill="url(#paint4_linear_1144_3581)" fill-opacity="0.2"/>
<circle cx="155.955" cy="96.3965" r="22.5225" stroke="white" stroke-width="3"/>
<circle cx="155.955" cy="96.3965" r="22.5225" stroke="url(#paint5_linear_1144_3581)" stroke-opacity="0.5" stroke-width="3"/>
<path d="M134.686 124.045C135.536 123.681 136.525 123.947 137.077 124.688L152.652 145.592C153.03 146.098 153.624 146.397 154.256 146.397H157.654C158.285 146.397 158.88 146.098 159.257 145.592L174.833 124.688C175.385 123.947 176.374 123.681 177.224 124.045L199.063 133.405C200.116 133.856 200.576 135.098 200.07 136.126L188.036 160.595C187.7 161.279 187.004 161.712 186.241 161.712H125.669C124.906 161.712 124.21 161.279 123.874 160.595L111.84 136.126C111.334 135.098 111.794 133.856 112.847 133.405L134.686 124.045Z" fill="#070810"/>
<path d="M134.686 124.045C135.536 123.681 136.525 123.947 137.077 124.688L152.652 145.592C153.03 146.098 153.624 146.397 154.256 146.397H157.654C158.285 146.397 158.88 146.098 159.257 145.592L174.833 124.688C175.385 123.947 176.374 123.681 177.224 124.045L199.063 133.405C200.116 133.856 200.576 135.098 200.07 136.126L188.036 160.595C187.7 161.279 187.004 161.712 186.241 161.712H125.669C124.906 161.712 124.21 161.279 123.874 160.595L111.84 136.126C111.334 135.098 111.794 133.856 112.847 133.405L134.686 124.045Z" fill="url(#paint6_linear_1144_3581)" fill-opacity="0.2"/>
<path d="M134.686 124.045C135.536 123.681 136.525 123.947 137.077 124.688L152.652 145.592C153.03 146.098 153.624 146.397 154.256 146.397H157.654C158.285 146.397 158.88 146.098 159.257 145.592L174.833 124.688C175.385 123.947 176.374 123.681 177.224 124.045L199.063 133.405C200.116 133.856 200.576 135.098 200.07 136.126L188.036 160.595C187.7 161.279 187.004 161.712 186.241 161.712H125.669C124.906 161.712 124.21 161.279 123.874 160.595L111.84 136.126C111.334 135.098 111.794 133.856 112.847 133.405L134.686 124.045Z" stroke="white" stroke-width="3"/>
<path d="M134.686 124.045C135.536 123.681 136.525 123.947 137.077 124.688L152.652 145.592C153.03 146.098 153.624 146.397 154.256 146.397H157.654C158.285 146.397 158.88 146.098 159.257 145.592L174.833 124.688C175.385 123.947 176.374 123.681 177.224 124.045L199.063 133.405C200.116 133.856 200.576 135.098 200.07 136.126L188.036 160.595C187.7 161.279 187.004 161.712 186.241 161.712H125.669C124.906 161.712 124.21 161.279 123.874 160.595L111.84 136.126C111.334 135.098 111.794 133.856 112.847 133.405L134.686 124.045Z" stroke="url(#paint7_linear_1144_3581)" stroke-opacity="0.5" stroke-width="3"/>
</g>
<path d="M22.6217 114.865C27.5767 135.585 50.2794 173.063 99.6487 175.225" stroke="white" stroke-width="3" stroke-linecap="round"/>
<path d="M22.6217 114.865C27.5767 135.585 50.2794 173.063 99.6487 175.225" stroke="url(#paint8_linear_1144_3581)" stroke-opacity="0.5" stroke-width="3" stroke-linecap="round"/>
<path d="M172.773 59.2617C163.973 39.859 134.567 7.37466 85.6849 14.627" stroke="white" stroke-width="3" stroke-linecap="round"/>
<path d="M172.773 59.2617C163.973 39.859 134.567 7.37466 85.6849 14.627" stroke="url(#paint9_linear_1144_3581)" stroke-opacity="0.5" stroke-width="3" stroke-linecap="round"/>
<defs>
<filter id="filter0_b_1144_3581" x="-15.7764" y="-9.3916" width="123.643" height="122.837" filterUnits="userSpaceOnUse" color-interpolation-filters="sRGB">
<feFlood flood-opacity="0" result="BackgroundImageFix"/>
<feGaussianBlur in="BackgroundImageFix" stdDeviation="8"/>
<feComposite in2="SourceAlpha" operator="in" result="effect1_backgroundBlur_1144_3581"/>
<feBlend mode="normal" in="SourceGraphic" in2="effect1_backgroundBlur_1144_3581" result="shape"/>
</filter>
<filter id="filter1_b_1144_3581" x="94.1335" y="56.374" width="123.643" height="122.838" filterUnits="userSpaceOnUse" color-interpolation-filters="sRGB">
<feFlood flood-opacity="0" result="BackgroundImageFix"/>
<feGaussianBlur in="BackgroundImageFix" stdDeviation="8"/>
<feComposite in2="SourceAlpha" operator="in" result="effect1_backgroundBlur_1144_3581"/>
<feBlend mode="normal" in="SourceGraphic" in2="effect1_backgroundBlur_1144_3581" result="shape"/>
</filter>
<linearGradient id="paint0_linear_1144_3581" x1="23.5228" y1="30.6309" x2="68.5679" y2="30.6309" gradientUnits="userSpaceOnUse">
<stop stop-color="#808DFF"/>
<stop offset="1" stop-color="#90FFCA"/>
</linearGradient>
<linearGradient id="paint1_linear_1144_3581" x1="23.5228" y1="30.6309" x2="68.5679" y2="30.6309" gradientUnits="userSpaceOnUse">
<stop stop-color="#808DFF"/>
<stop offset="1" stop-color="#90FFCA"/>
</linearGradient>
<linearGradient id="paint2_linear_1144_3581" x1="1" y1="76.8016" x2="91.0901" y2="76.8016" gradientUnits="userSpaceOnUse">
<stop stop-color="#808DFF"/>
<stop offset="1" stop-color="#90FFCA"/>
</linearGradient>
<linearGradient id="paint3_linear_1144_3581" x1="1" y1="76.8016" x2="91.0901" y2="76.8016" gradientUnits="userSpaceOnUse">
<stop stop-color="#808DFF"/>
<stop offset="1" stop-color="#90FFCA"/>
</linearGradient>
<linearGradient id="paint4_linear_1144_3581" x1="133.432" y1="96.3965" x2="178.477" y2="96.3965" gradientUnits="userSpaceOnUse">
<stop stop-color="#808DFF"/>
<stop offset="1" stop-color="#90FFCA"/>
</linearGradient>
<linearGradient id="paint5_linear_1144_3581" x1="133.432" y1="96.3965" x2="178.477" y2="96.3965" gradientUnits="userSpaceOnUse">
<stop stop-color="#808DFF"/>
<stop offset="1" stop-color="#90FFCA"/>
</linearGradient>
<linearGradient id="paint6_linear_1144_3581" x1="110.91" y1="142.568" x2="201" y2="142.568" gradientUnits="userSpaceOnUse">
<stop stop-color="#808DFF"/>
<stop offset="1" stop-color="#90FFCA"/>
</linearGradient>
<linearGradient id="paint7_linear_1144_3581" x1="110.91" y1="142.568" x2="201" y2="142.568" gradientUnits="userSpaceOnUse">
<stop stop-color="#808DFF"/>
<stop offset="1" stop-color="#90FFCA"/>
</linearGradient>
<linearGradient id="paint8_linear_1144_3581" x1="22.6217" y1="145.045" x2="99.6487" y2="145.045" gradientUnits="userSpaceOnUse">
<stop stop-color="#808DFF"/>
<stop offset="1" stop-color="#90FFCA"/>
</linearGradient>
<linearGradient id="paint9_linear_1144_3581" x1="167.042" y1="29.6307" x2="91.4161" y2="44.258" gradientUnits="userSpaceOnUse">
<stop stop-color="#808DFF"/>
<stop offset="1" stop-color="#90FFCA"/>
</linearGradient>
</defs>
</svg>
