<svg width="64" height="64" viewBox="0 0 64 64" fill="none" xmlns="http://www.w3.org/2000/svg">
<path d="M41 3.5C41 4.14348 40.7569 4.73018 40.3575 5.17326L51.0099 8.72406C51.0033 8.65025 51 8.57552 51 8.5C51 7.85652 51.2431 7.26982 51.6425 6.82674L40.9901 3.27594C40.9967 3.34975 41 3.42448 41 3.5Z" fill="#808DFF"/>
<path d="M58.4083 18.1303L53.8799 10.9713C54.5819 10.8643 55.1879 10.4653 55.5701 9.90207L60.0819 17.0348C59.3828 17.1525 58.7822 17.5604 58.4083 18.1303Z" fill="#808DFF"/>
<path d="M58.2661 18.3764L44.8441 17.629C44.9449 17.9002 45 18.1937 45 18.5C45 19.5062 44.4055 20.3736 43.5487 20.7701L57.3809 33.0654L40.9061 30.8188C40.9673 31.0354 41 31.2639 41 31.5C41 31.9763 40.8668 32.4216 40.6356 32.8005L58.0046 35.169L49.3372 41.8873C49.9148 42.2536 50.3318 42.8503 50.4593 43.548L59.3013 36.6944C58.5258 36.2699 58 35.4464 58 34.5C58 33.4938 58.5945 32.6264 59.4513 32.2299L45.3078 19.6579L58.1568 20.3734C58.0554 20.1015 58 19.8072 58 19.5C58 19.0959 58.0959 18.7142 58.2661 18.3764Z" fill="#808DFF"/>
<path d="M47.692 46.4812C46.984 46.3942 46.3676 46.0113 45.9703 45.4599L42.1516 51.3033C41.7264 51.9539 41.5 52.7143 41.5 53.4915V58C41.5 58.5523 41.9477 59 42.5 59C43.0523 59 43.5 58.5523 43.5 58V53.4915C43.5 53.1029 43.6132 52.7227 43.8258 52.3974L47.692 46.4812Z" fill="#808DFF"/>
<path d="M45.5307 44.3931C45.5105 44.265 45.5 44.1337 45.5 44C45.5 43.4151 45.7009 42.8771 46.0373 42.4513L36.4624 39.0924L38.5544 33.9994C38.5363 33.9998 38.5182 34 38.5 34C37.7954 34 37.1588 33.7085 36.7044 33.2395L34.5726 38.4294L19.9933 33.3149C19.9977 33.376 20 33.4377 20 33.5C20 34.1575 19.7461 34.7558 19.3311 35.2021L33.8899 40.3094L32.5851 45.5343C32.72 45.5117 32.8586 45.5 33 45.5C33.5743 45.5 34.1033 45.6936 34.5254 46.0191L35.7853 40.9743L45.5307 44.3931Z" fill="#808DFF"/>
<path d="M61.4644 21.8072L61.4936 32.2052C61.189 32.0732 60.8531 32 60.5 32C60.142 32 59.8015 32.0753 59.4936 32.2108L59.4643 21.7761C59.7799 21.9199 60.1306 22 60.5 22C60.8418 22 61.1676 21.9314 61.4644 21.8072Z" fill="#808DFF"/>
<path d="M40.1586 19.3782L26.1902 18.643L37.5068 29.2051C36.8721 29.4801 36.3739 30.0108 36.1421 30.6672L24.4932 19.7949C25.3798 19.4107 26 18.5278 26 17.5C26 16.4722 25.3798 15.5893 24.4932 15.2051L35.963 4.5H23.792C23.9258 4.19377 24 3.85555 24 3.5C24 3.14445 23.9258 2.80623 23.792 2.5H36.208C36.0742 2.80623 36 3.14445 36 3.5C36 4.52777 36.6202 5.41069 37.5068 5.79492L25.903 16.6251L40.2638 17.3809C40.095 17.7176 40 18.0977 40 18.5C40 18.809 40.0561 19.1049 40.1586 19.3782Z" fill="#808DFF"/>
<path d="M23.6318 19.9966C23.5881 19.9989 23.5442 20 23.5 20C22.8232 20 22.2093 19.7311 21.7591 19.2943L17.7103 30.0912L13.12 10.965L21.0665 16.9249C21.2278 16.2398 21.6708 15.6635 22.2666 15.3249L13.9335 9.07514C13.6737 10.1786 12.6828 11 11.5 11C11.3507 11 11.2045 10.9869 11.0624 10.9618L15.9929 31.5052C16.4119 31.1881 16.934 31 17.5 31C18.1768 31 18.7907 31.2689 19.2409 31.7057L23.6318 19.9966Z" fill="#808DFF"/>
<path d="M19.8978 5.41915L13.9967 8.3697C13.9598 7.65153 13.6198 7.01345 13.1022 6.58085L19.0033 3.6303C19.0402 4.34847 19.3802 4.98655 19.8978 5.41915Z" fill="#808DFF"/>
<path d="M9.28743 9.66493C9.60806 10.2726 10.1717 10.7323 10.8491 10.9144L5.71257 17.3351C5.39194 16.7274 4.82827 16.2677 4.15091 16.0856L9.28743 9.66493Z" fill="#808DFF"/>
<path d="M4.5 20.792C4.19377 20.9258 3.85555 21 3.5 21C3.14445 21 2.80623 20.9258 2.5 20.792V29.7066C2.5 29.8719 2.51006 30.035 2.52963 30.1953C2.82799 30.0695 3.15588 30 3.5 30C3.88377 30 4.24734 30.0865 4.5723 30.241C4.52515 30.0707 4.5 29.8914 4.5 29.7066V20.792Z" fill="#808DFF"/>
<path d="M6.21501 33.6965C6.05009 33.6847 5.88809 33.663 5.72958 33.6321C5.90251 33.2922 6 32.9075 6 32.5C6 32.1795 5.93968 31.873 5.82977 31.5914C5.99628 31.6506 6.17324 31.6884 6.35751 31.7016L15.2852 32.3393C15.1031 32.6861 15 33.081 15 33.5C15 33.7925 15.0502 34.0733 15.1425 34.3342L6.21501 33.6965Z" fill="#808DFF"/>
<path d="M18.9896 35.5079C18.5736 35.8171 18.0582 36 17.5 36C17.3432 36 17.1897 35.9856 17.0409 35.9579L19.0104 44.4921C19.4264 44.1829 19.9418 44 20.5 44C20.6568 44 20.8103 44.0144 20.9591 44.0421L18.9896 35.5079Z" fill="#808DFF"/>
<path d="M30.6052 48.7198L22.6563 47.7659C22.8747 47.3946 23 46.9619 23 46.5C23 46.2498 22.9632 46.0081 22.8948 45.7802L30.8437 46.7341C30.6253 47.1054 30.5 47.5381 30.5 48C30.5 48.2502 30.5368 48.4919 30.6052 48.7198Z" fill="#808DFF"/>
<path d="M34 50.292C33.6938 50.4258 33.3556 50.5 33 50.5C32.6444 50.5 32.3062 50.4258 32 50.292V61C32 61.5523 32.4477 62 33 62C33.5523 62 34 61.5523 34 61V50.292Z" fill="#808DFF"/>
<path d="M48.9907 51.5C48.9907 50.9477 48.5429 50.5 47.9907 50.5C47.4384 50.5 46.9907 50.9477 46.9907 51.5V61C46.9907 61.5523 47.4384 62 47.9907 62C48.5429 62 48.9907 61.5523 48.9907 61V51.5Z" fill="#808DFF"/>
<path fill-rule="evenodd" clip-rule="evenodd" d="M33 46.5C32.1716 46.5 31.5 47.1716 31.5 48C31.5 48.8284 32.1716 49.5 33 49.5C33.8284 49.5 34.5 48.8284 34.5 48C34.5 47.1716 33.8284 46.5 33 46.5ZM29.5 48C29.5 46.067 31.067 44.5 33 44.5C34.933 44.5 36.5 46.067 36.5 48C36.5 49.933 34.933 51.5 33 51.5C31.067 51.5 29.5 49.933 29.5 48Z" fill="#90FFCA"/>
<path fill-rule="evenodd" clip-rule="evenodd" d="M20.5 45C19.6716 45 19 45.6716 19 46.5C19 47.3284 19.6716 48 20.5 48C21.3284 48 22 47.3284 22 46.5C22 45.6716 21.3284 45 20.5 45ZM17 46.5C17 44.567 18.567 43 20.5 43C22.433 43 24 44.567 24 46.5C24 48.433 22.433 50 20.5 50C18.567 50 17 48.433 17 46.5Z" fill="#90FFCA"/>
<path fill-rule="evenodd" clip-rule="evenodd" d="M17.5 32C16.6716 32 16 32.6716 16 33.5C16 34.3284 16.6716 35 17.5 35C18.3284 35 19 34.3284 19 33.5C19 32.6716 18.3284 32 17.5 32ZM14 33.5C14 31.567 15.567 30 17.5 30C19.433 30 21 31.567 21 33.5C21 35.433 19.433 37 17.5 37C15.567 37 14 35.433 14 33.5Z" fill="#90FFCA"/>
<path fill-rule="evenodd" clip-rule="evenodd" d="M3.5 31C2.67157 31 2 31.6716 2 32.5C2 33.3284 2.67157 34 3.5 34C4.32843 34 5 33.3284 5 32.5C5 31.6716 4.32843 31 3.5 31ZM0 32.5C0 30.567 1.567 29 3.5 29C5.433 29 7 30.567 7 32.5C7 34.433 5.433 36 3.5 36C1.567 36 0 34.433 0 32.5Z" fill="#90FFCA"/>
<path fill-rule="evenodd" clip-rule="evenodd" d="M3.5 17C2.67157 17 2 17.6716 2 18.5C2 19.3284 2.67157 20 3.5 20C4.32843 20 5 19.3284 5 18.5C5 17.6716 4.32843 17 3.5 17ZM0 18.5C0 16.567 1.567 15 3.5 15C5.433 15 7 16.567 7 18.5C7 20.433 5.433 22 3.5 22C1.567 22 0 20.433 0 18.5Z" fill="#90FFCA"/>
<path fill-rule="evenodd" clip-rule="evenodd" d="M11.5 7C10.6716 7 10 7.67157 10 8.5C10 9.32843 10.6716 10 11.5 10C12.3284 10 13 9.32843 13 8.5C13 7.67157 12.3284 7 11.5 7ZM8 8.5C8 6.567 9.567 5 11.5 5C13.433 5 15 6.567 15 8.5C15 10.433 13.433 12 11.5 12C9.567 12 8 10.433 8 8.5Z" fill="#90FFCA"/>
<path fill-rule="evenodd" clip-rule="evenodd" d="M21.5 2C20.6716 2 20 2.67157 20 3.5C20 4.32843 20.6716 5 21.5 5C22.3284 5 23 4.32843 23 3.5C23 2.67157 22.3284 2 21.5 2ZM18 3.5C18 1.567 19.567 0 21.5 0C23.433 0 25 1.567 25 3.5C25 5.433 23.433 7 21.5 7C19.567 7 18 5.433 18 3.5Z" fill="#90FFCA"/>
<path fill-rule="evenodd" clip-rule="evenodd" d="M38.5 2C37.6716 2 37 2.67157 37 3.5C37 4.32843 37.6716 5 38.5 5C39.3284 5 40 4.32843 40 3.5C40 2.67157 39.3284 2 38.5 2ZM35 3.5C35 1.567 36.567 0 38.5 0C40.433 0 42 1.567 42 3.5C42 5.433 40.433 7 38.5 7C36.567 7 35 5.433 35 3.5Z" fill="#90FFCA"/>
<path fill-rule="evenodd" clip-rule="evenodd" d="M23.5 16C22.6716 16 22 16.6716 22 17.5C22 18.3284 22.6716 19 23.5 19C24.3284 19 25 18.3284 25 17.5C25 16.6716 24.3284 16 23.5 16ZM20 17.5C20 15.567 21.567 14 23.5 14C25.433 14 27 15.567 27 17.5C27 19.433 25.433 21 23.5 21C21.567 21 20 19.433 20 17.5Z" fill="#808DFF"/>
<path fill-rule="evenodd" clip-rule="evenodd" d="M38.5 30C37.6716 30 37 30.6716 37 31.5C37 32.3284 37.6716 33 38.5 33C39.3284 33 40 32.3284 40 31.5C40 30.6716 39.3284 30 38.5 30ZM35 31.5C35 29.567 36.567 28 38.5 28C40.433 28 42 29.567 42 31.5C42 33.433 40.433 35 38.5 35C36.567 35 35 33.433 35 31.5Z" fill="#808DFF"/>
<path fill-rule="evenodd" clip-rule="evenodd" d="M42.5 17C41.6716 17 41 17.6716 41 18.5C41 19.3284 41.6716 20 42.5 20C43.3284 20 44 19.3284 44 18.5C44 17.6716 43.3284 17 42.5 17ZM39 18.5C39 16.567 40.567 15 42.5 15C44.433 15 46 16.567 46 18.5C46 20.433 44.433 22 42.5 22C40.567 22 39 20.433 39 18.5Z" fill="#808DFF"/>
<path fill-rule="evenodd" clip-rule="evenodd" d="M53.5 7C52.6716 7 52 7.67157 52 8.5C52 9.32843 52.6716 10 53.5 10C54.3284 10 55 9.32843 55 8.5C55 7.67157 54.3284 7 53.5 7ZM50 8.5C50 6.567 51.567 5 53.5 5C55.433 5 57 6.567 57 8.5C57 10.433 55.433 12 53.5 12C51.567 12 50 10.433 50 8.5Z" fill="#90FFCA"/>
<path fill-rule="evenodd" clip-rule="evenodd" d="M60.5 18C59.6716 18 59 18.6716 59 19.5C59 20.3284 59.6716 21 60.5 21C61.3284 21 62 20.3284 62 19.5C62 18.6716 61.3284 18 60.5 18ZM57 19.5C57 17.567 58.567 16 60.5 16C62.433 16 64 17.567 64 19.5C64 21.433 62.433 23 60.5 23C58.567 23 57 21.433 57 19.5Z" fill="#90FFCA"/>
<path fill-rule="evenodd" clip-rule="evenodd" d="M60.5 33C59.6716 33 59 33.6716 59 34.5C59 35.3284 59.6716 36 60.5 36C61.3284 36 62 35.3284 62 34.5C62 33.6716 61.3284 33 60.5 33ZM57 34.5C57 32.567 58.567 31 60.5 31C62.433 31 64 32.567 64 34.5C64 36.433 62.433 38 60.5 38C58.567 38 57 36.433 57 34.5Z" fill="#90FFCA"/>
<path fill-rule="evenodd" clip-rule="evenodd" d="M48 42.5C47.1716 42.5 46.5 43.1716 46.5 44C46.5 44.8284 47.1716 45.5 48 45.5C48.8284 45.5 49.5 44.8284 49.5 44C49.5 43.1716 48.8284 42.5 48 42.5ZM44.5 44C44.5 42.067 46.067 40.5 48 40.5C49.933 40.5 51.5 42.067 51.5 44C51.5 45.933 49.933 47.5 48 47.5C46.067 47.5 44.5 45.933 44.5 44Z" fill="#90FFCA"/>
</svg>
