<svg width="48" height="48" viewBox="0 0 48 48" fill="none" xmlns="http://www.w3.org/2000/svg">
<g clip-path="url(#clip0_1426_4279)">
<path fill-rule="evenodd" clip-rule="evenodd" d="M25.8648 1.66078C25.2048 -0.0422003 22.7952 -0.0421988 22.1351 1.66078L20.1706 6.72938L14.7431 7.03142C12.9195 7.1329 12.1749 9.42457 13.5905 10.5785L17.804 14.0132L16.414 19.2684C15.947 21.0341 17.8964 22.4505 19.4314 21.4607L24 18.5148L28.5685 21.4607C30.1035 22.4505 32.0529 21.0341 31.5859 19.2684L30.1959 14.0132L34.4094 10.5785C35.825 9.42457 35.0804 7.1329 33.2568 7.03142L27.8293 6.72938L25.8648 1.66078ZM22.7349 8.41478L24 5.15069L25.265 8.41478C25.5488 9.14693 26.2347 9.64529 27.0187 9.68892L30.514 9.88343L27.8006 12.0953C27.192 12.5914 26.93 13.3977 27.1308 14.1569L28.0259 17.5412L25.0838 15.6441C24.4239 15.2185 23.576 15.2185 22.9161 15.6441L19.974 17.5412L20.8692 14.1569C21.0699 13.3977 20.8079 12.5914 20.1993 12.0953L17.4859 9.88343L20.9812 9.68892C21.7652 9.64529 22.4511 9.14693 22.7349 8.41478Z" fill="url(#paint0_linear_1426_4279)"/>
<path fill-rule="evenodd" clip-rule="evenodd" d="M3 29.5C1.61929 29.5 0.5 30.6193 0.5 32V47.5H47.5V34C47.5 32.6193 46.3807 31.5 45 31.5H33.5V27C33.5 25.6193 32.3807 24.5 31 24.5H17C15.6193 24.5 14.5 25.6193 14.5 27V29.5H3ZM33.5 34.5V44.5H44.5V34.5H33.5ZM30.5 27.5H17.5V44.5H30.5V27.5ZM14.5 32.5V44.5H3.5V32.5H14.5Z" fill="url(#paint1_linear_1426_4279)"/>
</g>
<defs>
<linearGradient id="paint0_linear_1426_4279" x1="47.5" y1="23.9418" x2="0.5" y2="23.9418" gradientUnits="userSpaceOnUse">
<stop stop-color="#808DFF"/>
<stop offset="1" stop-color="#90FFCA"/>
</linearGradient>
<linearGradient id="paint1_linear_1426_4279" x1="47.5" y1="23.9418" x2="0.5" y2="23.9418" gradientUnits="userSpaceOnUse">
<stop stop-color="#808DFF"/>
<stop offset="1" stop-color="#90FFCA"/>
</linearGradient>
<clipPath id="clip0_1426_4279">
<rect width="48" height="48" fill="white"/>
</clipPath>
</defs>
</svg>
