<svg width="64" height="64" viewBox="0 0 64 64" fill="none" xmlns="http://www.w3.org/2000/svg">
<path fill-rule="evenodd" clip-rule="evenodd" d="M31.748 14.4006C31.8318 14.4002 31.9158 14.4 32 14.4C54.4 14.4 64 28.8 64 32C64 35.2 54.4 49.6 32 49.6C31.9158 49.6 31.8318 49.5998 31.748 49.5994C41.4 49.5199 49.2 41.6709 49.2 32C49.2 22.3292 41.4 14.4801 31.748 14.4006ZM31.0286 14.4091C9.32218 14.8174 0 28.8467 0 32C0 35.1534 9.32218 49.1826 31.0286 49.5909C21.5729 49.2893 14 41.5291 14 32C14 22.471 21.5729 14.7107 31.0286 14.4091Z" fill="#808DFF" fill-opacity="0.2"/>
<path d="M1 32C1 31.805 1.08612 31.3802 1.37241 30.7258C1.64791 30.0961 2.076 29.3278 2.67137 28.4704C3.86115 26.7571 5.68913 24.7316 8.20971 22.7926C13.2405 18.9228 21.0275 15.4 32 15.4C42.9725 15.4 50.7595 18.9228 55.7903 22.7926C58.3109 24.7316 60.1389 26.7571 61.3286 28.4704C61.924 29.3278 62.3521 30.0961 62.6276 30.7258C62.9139 31.3802 63 31.805 63 32C63 32.195 62.9139 32.6198 62.6276 33.2742C62.3521 33.9039 61.924 34.6723 61.3286 35.5296C60.1389 37.2429 58.3109 39.2685 55.7903 41.2074C50.7595 45.0772 42.9725 48.6 32 48.6C21.0275 48.6 13.2405 45.0772 8.20971 41.2074C5.68913 39.2685 3.86115 37.2429 2.67137 35.5296C2.076 34.6723 1.64791 33.9039 1.37241 33.2742C1.08612 32.6198 1 32.195 1 32Z" stroke="#808DFF" stroke-width="2"/>
<circle cx="31.6" cy="32" r="16.6" stroke="#90FFCA" stroke-width="2"/>
<mask id="path-4-inside-1_2002_2368" fill="white">
<path fill-rule="evenodd" clip-rule="evenodd" d="M32 40C36.4183 40 40 36.4183 40 32C40 27.5817 36.4183 24 32 24C31.1801 24 30.389 24.1233 29.6442 24.3525C31.0333 24.9796 32 26.3769 32 28C32 30.2091 30.2091 32 28 32C26.3769 32 24.9796 31.0333 24.3525 29.6442C24.1233 30.389 24 31.1801 24 32C24 36.4183 27.5817 40 32 40Z"/>
</mask>
<path fill-rule="evenodd" clip-rule="evenodd" d="M32 40C36.4183 40 40 36.4183 40 32C40 27.5817 36.4183 24 32 24C31.1801 24 30.389 24.1233 29.6442 24.3525C31.0333 24.9796 32 26.3769 32 28C32 30.2091 30.2091 32 28 32C26.3769 32 24.9796 31.0333 24.3525 29.6442C24.1233 30.389 24 31.1801 24 32C24 36.4183 27.5817 40 32 40Z" fill="#90FFCA"/>
<path d="M29.6442 24.3525L29.0561 22.4409L23.9974 23.9974L28.8213 26.1753L29.6442 24.3525ZM24.3525 29.6442L26.1753 28.8213L23.9974 23.9974L22.4409 29.0561L24.3525 29.6442ZM38 32C38 35.3137 35.3137 38 32 38V42C37.5228 42 42 37.5228 42 32H38ZM32 26C35.3137 26 38 28.6863 38 32H42C42 26.4772 37.5228 22 32 22V26ZM30.2324 26.2641C30.7887 26.0929 31.3817 26 32 26V22C30.9785 22 29.9892 22.1538 29.0561 22.4409L30.2324 26.2641ZM28.8213 26.1753C29.5202 26.4909 30 27.1915 30 28H34C34 25.5623 32.5464 23.4684 30.4672 22.5297L28.8213 26.1753ZM30 28C30 29.1046 29.1046 30 28 30V34C31.3137 34 34 31.3137 34 28H30ZM28 30C27.1915 30 26.4909 29.5202 26.1753 28.8213L22.5297 30.4672C23.4684 32.5464 25.5623 34 28 34V30ZM26 32C26 31.3817 26.0929 30.7887 26.2641 30.2324L22.4409 29.0561C22.1538 29.9892 22 30.9785 22 32H26ZM32 38C28.6863 38 26 35.3137 26 32H22C22 37.5228 26.4772 42 32 42V38Z" fill="#90FFCA" mask="url(#path-4-inside-1_2002_2368)"/>
</svg>
