<svg width="64" height="64" viewBox="0 0 64 64" fill="none" xmlns="http://www.w3.org/2000/svg">
<path d="M63 46.5714V51.7143C63 52.2666 62.5523 52.7143 62 52.7143H2C1.44772 52.7143 1 52.2666 1 51.7143V46.5714C1 46.0191 1.44772 45.5714 2 45.5714H23.1716C23.4368 45.5714 23.6911 45.6768 23.8787 45.8643L25.2857 47.2713C25.6608 47.6464 26.1695 47.8571 26.6999 47.8571H37.3001C37.8305 47.8571 38.3392 47.6464 38.7143 47.2713L40.1213 45.8643C40.3089 45.6768 40.5632 45.5714 40.8284 45.5714H62C62.5523 45.5714 63 46.0191 63 46.5714Z" fill="#808DFF" fill-opacity="0.2" stroke="#808DFF" stroke-width="2"/>
<path d="M57.1426 42.2857V13.1428C57.1426 10.9337 55.3518 9.14282 53.1426 9.14282H10.8569C8.64779 9.14282 6.85693 10.9337 6.85693 13.1428V42.2857" stroke="#808DFF" stroke-width="2"/>
<path d="M20.5713 37.7143V28.5714" stroke="#90FFCA" stroke-width="2"/>
<path d="M26.2856 37.7143V27.4286" stroke="#90FFCA" stroke-width="2"/>
<path d="M32 37.7143V25.1428" stroke="#90FFCA" stroke-width="2"/>
<path d="M37.7144 37.7142V21.7142" stroke="#90FFCA" stroke-width="2"/>
<path d="M43.4287 37.7143V17.1428" stroke="#90FFCA" stroke-width="2"/>
</svg>
