<svg width="48" height="48" viewBox="0 0 48 48" fill="none" xmlns="http://www.w3.org/2000/svg">
<path fill-rule="evenodd" clip-rule="evenodd" d="M7.02506 2.5H40.9747L47.7488 17.7417L23.9999 46.3483L0.250977 17.7417L7.02506 2.5ZM8.97468 5.5L4.21718 16.2044L11.3034 16.8793L13.6578 5.5H8.97468ZM16.7213 5.5L14.342 17H22.4999V5.5H16.7213ZM25.4999 5.5V17H33.6578L31.2784 5.5H25.4999ZM34.342 5.5L36.6963 16.8793L43.7826 16.2044L39.0251 5.5H34.342ZM42.5246 19.3378L36.5092 19.9107L29.9208 34.5196L42.5246 19.3378ZM25.4999 37.0252L33.1779 20H25.4999V37.0252ZM22.4999 20H14.8218L22.4999 37.0252V20ZM18.0789 34.5196L11.4906 19.9107L5.47511 19.3378L18.0789 34.5196Z" fill="url(#paint0_linear_1396_4562)"/>
<defs>
<linearGradient id="paint0_linear_1396_4562" x1="47.7488" y1="24.4242" x2="0.250977" y2="24.4242" gradientUnits="userSpaceOnUse">
<stop stop-color="#808DFF"/>
<stop offset="1" stop-color="#90FFCA"/>
</linearGradient>
</defs>
</svg>
