<svg width="64" height="64" viewBox="0 0 64 64" fill="none" xmlns="http://www.w3.org/2000/svg">
<g clip-path="url(#clip0_2002_2396)">
<path fill-rule="evenodd" clip-rule="evenodd" d="M33.3946 1.35598C32.6183 0.601068 31.3822 0.601067 30.6059 1.35598L24.8048 6.99732C24.3599 7.42995 23.7394 7.63157 23.1252 7.54306L15.1161 6.3889C14.0444 6.23446 13.0444 6.96102 12.8601 8.02804L11.4828 16.0018C11.3772 16.6133 10.9937 17.1411 10.4447 17.4305L3.28686 21.2044C2.32901 21.7094 1.94704 22.885 2.42511 23.8566L5.99772 31.117C6.2717 31.6738 6.2717 32.3263 5.99772 32.8831L2.42512 40.1435C1.94704 41.1151 2.32901 42.2906 3.28686 42.7957L10.4447 46.5696C10.9937 46.859 11.3772 47.3868 11.4828 47.9983L12.8601 55.972C13.0444 57.0391 14.0444 57.7656 15.1161 57.6112L23.1252 56.457C23.7394 56.3685 24.3599 56.5701 24.8048 57.0028L30.6059 62.6441C31.3822 63.399 32.6183 63.399 33.3946 62.6441L39.1956 57.0028C39.6405 56.5701 40.261 56.3685 40.8752 56.457L48.8843 57.6112C49.9561 57.7656 50.9561 57.0391 51.1404 55.972L52.5177 47.9983C52.6233 47.3868 53.0068 46.859 53.5557 46.5696L60.7136 42.7957C61.6714 42.2906 62.0534 41.1151 61.5753 40.1435L58.0027 32.8831C57.7287 32.3263 57.7287 31.6738 58.0027 31.117L61.5753 23.8566C62.0534 22.885 61.6714 21.7094 60.7136 21.2044L53.5557 17.4305C53.0068 17.1411 52.6233 16.6133 52.5177 16.0018L51.1404 8.02804C50.9561 6.96102 49.9561 6.23446 48.8843 6.3889L40.8752 7.54306C40.261 7.63157 39.6405 7.42995 39.1956 6.99732L33.3946 1.35598ZM32.0002 49C41.3891 49 49.0002 41.3889 49.0002 32C49.0002 22.6112 41.3891 15 32.0002 15C22.6114 15 15.0002 22.6112 15.0002 32C15.0002 41.3889 22.6114 49 32.0002 49Z" fill="#808DFF" fill-opacity="0.2"/>
<path d="M32.6972 2.07285L38.4982 7.71419C39.1656 8.36314 40.0963 8.66556 41.0176 8.53279L49.0267 7.37864C49.5626 7.30142 50.0626 7.6647 50.1548 8.19821L51.532 16.1719C51.6905 17.0892 52.2657 17.8809 53.0891 18.3151L60.247 22.089C60.7259 22.3415 60.9169 22.9293 60.6778 23.415L57.1052 30.6755C56.6943 31.5107 56.6943 32.4893 57.1052 33.3245L60.6778 40.585C60.9169 41.0707 60.7259 41.6585 60.247 41.911L53.0891 45.6849C52.2657 46.1191 51.6905 46.9108 51.532 47.8281L50.1548 55.8018C50.0626 56.3353 49.5626 56.6986 49.0267 56.6214L41.0176 55.4672C40.0963 55.3344 39.1656 55.6369 38.4982 56.2858L32.6972 61.9272C32.309 62.3046 31.691 62.3046 31.3028 61.9272L25.5017 56.2858C24.8344 55.6369 23.9037 55.3344 22.9824 55.4672L14.9733 56.6214C14.4374 56.6986 13.9374 56.3353 13.8452 55.8018L12.468 47.8281C12.3095 46.9108 11.7343 46.1191 10.9109 45.6849L3.75302 41.911C3.2741 41.6585 3.08311 41.0707 3.32215 40.585L6.89475 33.3245C7.30573 32.4893 7.30573 31.5107 6.89475 30.6755L3.32215 23.415C3.08311 22.9293 3.2741 22.3415 3.75302 22.089L10.9109 18.3151C11.7343 17.8809 12.3095 17.0892 12.468 16.1719L13.8452 8.19821C13.9374 7.6647 14.4374 7.30142 14.9733 7.37864L22.9824 8.53279C23.9037 8.66556 24.8344 8.36314 25.5018 7.71419L31.3028 2.07285C31.691 1.69539 32.309 1.69539 32.6972 2.07285Z" stroke="#808DFF" stroke-width="2"/>
<circle cx="32" cy="32" r="16" stroke="#90FFCA" stroke-width="2"/>
<path d="M25 32.5L30.5 37.5L40 26" stroke="#78FFBE" stroke-width="2"/>
</g>
<defs>
<clipPath id="clip0_2002_2396">
<rect width="64" height="64" fill="white"/>
</clipPath>
</defs>
</svg>
