<svg width="48" height="48" viewBox="0 0 48 48" fill="none" xmlns="http://www.w3.org/2000/svg">
<g clip-path="url(#clip0_1396_4464)">
<path fill-rule="evenodd" clip-rule="evenodd" d="M45.5481 0.171513C46.9017 -0.0540939 48.0753 1.11946 47.8497 2.4731L46.7103 9.30953C46.4428 10.9141 44.4735 11.5452 43.3233 10.3949L41.5251 8.59679L32.7731 17.3488C32.2492 17.8727 31.4787 18.064 30.7707 17.8462L21.8 15.0859L28.2045 25.7601C29.0978 27.2489 27.7999 29.0908 26.0973 28.7503L15.4928 26.6294L12.0604 30.0617C11.4747 30.6475 10.5249 30.6475 9.93912 30.0617C9.35333 29.4759 9.35333 28.5262 9.93912 27.9404L13.7499 24.1296C14.2227 23.6568 14.9006 23.4515 15.5563 23.5827L24.469 25.3652L17.8849 14.3917C16.9413 12.8191 18.4352 10.9118 20.188 11.4511L31.0775 14.8018L39.4038 6.47547L37.6262 4.69792C36.476 3.54764 37.107 1.57835 38.7117 1.31092L45.5481 0.171513ZM44.6603 3.36085L41.1216 3.95064L44.0705 6.89958L44.6603 3.36085Z" fill="url(#paint0_linear_1396_4464)"/>
<path d="M3.5 21.001C3.5 11.336 11.335 3.501 21 3.501C24.3818 3.501 27.5354 4.45878 30.2094 6.11718C30.9134 6.55381 31.8381 6.33703 32.2747 5.63301C32.7114 4.92898 32.4946 4.0043 31.7906 3.56768C28.6554 1.62333 24.9565 0.501001 21 0.501001C9.67816 0.501001 0.5 9.67916 0.5 21.001C0.5 32.3228 9.67816 41.501 21 41.501C26.121 41.501 30.8035 39.6233 34.3964 36.5187L44.9393 47.0617C45.5251 47.6474 46.4749 47.6474 47.0607 47.0617C47.6464 46.4759 47.6464 45.5261 47.0607 44.9403L36.5177 34.3974C39.6223 30.8045 41.5 26.122 41.5 21.001C41.5 20.2733 41.462 19.554 41.3879 18.8449C41.3017 18.021 40.5639 17.4229 39.7399 17.5091C38.916 17.5953 38.3179 18.3331 38.4041 19.1571C38.4675 19.7626 38.5 20.3777 38.5 21.001C38.5 30.666 30.665 38.501 21 38.501C11.335 38.501 3.5 30.666 3.5 21.001Z" fill="url(#paint1_linear_1396_4464)"/>
</g>
<defs>
<linearGradient id="paint0_linear_1396_4464" x1="47.8776" y1="23.8223" x2="0.5" y2="23.8223" gradientUnits="userSpaceOnUse">
<stop stop-color="#808DFF"/>
<stop offset="1" stop-color="#90FFCA"/>
</linearGradient>
<linearGradient id="paint1_linear_1396_4464" x1="47.8776" y1="23.8223" x2="0.5" y2="23.8223" gradientUnits="userSpaceOnUse">
<stop stop-color="#808DFF"/>
<stop offset="1" stop-color="#90FFCA"/>
</linearGradient>
<clipPath id="clip0_1396_4464">
<rect width="48" height="48" fill="white"/>
</clipPath>
</defs>
</svg>
