<svg width="48" height="48" viewBox="0 0 48 48" fill="none" xmlns="http://www.w3.org/2000/svg">
<path d="M9 10C9 10.8284 8.32843 11.5 7.5 11.5C6.67157 11.5 6 10.8284 6 10C6 9.17157 6.67157 8.5 7.5 8.5C8.32843 8.5 9 9.17157 9 10Z" fill="url(#paint0_linear_1396_4515)"/>
<path d="M11.5 11.5C12.3284 11.5 13 10.8284 13 10C13 9.17157 12.3284 8.5 11.5 8.5C10.6716 8.5 10 9.17157 10 10C10 10.8284 10.6716 11.5 11.5 11.5Z" fill="url(#paint1_linear_1396_4515)"/>
<path d="M17 10C17 10.8284 16.3284 11.5 15.5 11.5C14.6716 11.5 14 10.8284 14 10C14 9.17157 14.6716 8.5 15.5 8.5C16.3284 8.5 17 9.17157 17 10Z" fill="url(#paint2_linear_1396_4515)"/>
<path d="M7.5 21C6.67157 21 6 21.6716 6 22.5C6 23.3284 6.67157 24 7.5 24H20.5C21.3284 24 22 23.3284 22 22.5C22 21.6716 21.3284 21 20.5 21H7.5Z" fill="url(#paint3_linear_1396_4515)"/>
<path d="M6 28.5C6 27.6716 6.67157 27 7.5 27H40.5C41.3284 27 42 27.6716 42 28.5C42 29.3284 41.3284 30 40.5 30H7.5C6.67157 30 6 29.3284 6 28.5Z" fill="url(#paint4_linear_1396_4515)"/>
<path d="M7.5 33C6.67157 33 6 33.6716 6 34.5C6 35.3284 6.67157 36 7.5 36H35.5C36.3284 36 37 35.3284 37 34.5C37 33.6716 36.3284 33 35.5 33H7.5Z" fill="url(#paint5_linear_1396_4515)"/>
<path fill-rule="evenodd" clip-rule="evenodd" d="M4 3.5C2.067 3.5 0.5 5.067 0.5 7V41C0.5 42.933 2.067 44.5 4 44.5H44C45.933 44.5 47.5 42.933 47.5 41V7C47.5 5.067 45.933 3.5 44 3.5H4ZM44.5 13.5V7C44.5 6.72386 44.2761 6.5 44 6.5H4C3.72386 6.5 3.5 6.72386 3.5 7V13.5H44.5ZM3.5 16.5H44.5V41C44.5 41.2761 44.2761 41.5 44 41.5H4C3.72386 41.5 3.5 41.2761 3.5 41V16.5Z" fill="url(#paint6_linear_1396_4515)"/>
<defs>
<linearGradient id="paint0_linear_1396_4515" x1="47.5" y1="24" x2="0.5" y2="24" gradientUnits="userSpaceOnUse">
<stop stop-color="#808DFF"/>
<stop offset="1" stop-color="#90FFCA"/>
</linearGradient>
<linearGradient id="paint1_linear_1396_4515" x1="47.5" y1="24" x2="0.5" y2="24" gradientUnits="userSpaceOnUse">
<stop stop-color="#808DFF"/>
<stop offset="1" stop-color="#90FFCA"/>
</linearGradient>
<linearGradient id="paint2_linear_1396_4515" x1="47.5" y1="24" x2="0.5" y2="24" gradientUnits="userSpaceOnUse">
<stop stop-color="#808DFF"/>
<stop offset="1" stop-color="#90FFCA"/>
</linearGradient>
<linearGradient id="paint3_linear_1396_4515" x1="47.5" y1="24" x2="0.5" y2="24" gradientUnits="userSpaceOnUse">
<stop stop-color="#808DFF"/>
<stop offset="1" stop-color="#90FFCA"/>
</linearGradient>
<linearGradient id="paint4_linear_1396_4515" x1="47.5" y1="24" x2="0.5" y2="24" gradientUnits="userSpaceOnUse">
<stop stop-color="#808DFF"/>
<stop offset="1" stop-color="#90FFCA"/>
</linearGradient>
<linearGradient id="paint5_linear_1396_4515" x1="47.5" y1="24" x2="0.5" y2="24" gradientUnits="userSpaceOnUse">
<stop stop-color="#808DFF"/>
<stop offset="1" stop-color="#90FFCA"/>
</linearGradient>
<linearGradient id="paint6_linear_1396_4515" x1="47.5" y1="24" x2="0.5" y2="24" gradientUnits="userSpaceOnUse">
<stop stop-color="#808DFF"/>
<stop offset="1" stop-color="#90FFCA"/>
</linearGradient>
</defs>
</svg>
