<svg width="130" height="40" viewBox="0 0 130 40" fill="none" xmlns="http://www.w3.org/2000/svg">
<path fill-rule="evenodd" clip-rule="evenodd" d="M114.302 39.8841V23.1884H117.398L126.21 35.3623V23.1884H129.189V39.8841H126.094L117.282 27.4551V39.8841H114.302Z" fill="white"/>
<path fill-rule="evenodd" clip-rule="evenodd" d="M96.4472 33.3217V23.1768H99.5429V33.3217C99.5429 35.9884 100.911 37.3101 103.636 37.3101C106.36 37.3101 107.728 35.9884 107.728 33.3217V23.1768H110.824V33.3217C110.824 37.7739 108.424 40 103.647 40C98.8704 40 96.4704 37.7739 96.4704 33.3217H96.4472Z" fill="white"/>
<path fill-rule="evenodd" clip-rule="evenodd" d="M93.5255 39.1188C92.1806 39.7101 90.4994 40 88.4704 40C82.5806 40 79.6356 37.1014 79.6356 31.2928C79.6356 25.4841 82.6385 23.0609 88.6211 23.0609C94.6038 23.0609 92.0878 23.3391 93.5255 23.8841V26.6783C92.0878 26.0522 90.5226 25.7507 88.853 25.7507C84.8414 25.7507 82.8472 27.5942 82.8472 31.2928C82.8472 34.9913 84.7371 37.2985 88.5168 37.2985C92.2965 37.2985 89.711 37.2058 90.4298 37.0203V32.1623H93.5255V39.1188Z" fill="white"/>
<path fill-rule="evenodd" clip-rule="evenodd" d="M63.5893 23.1884H66.9168L71.6009 31.2232L76.0182 23.1884H79.2298L73.0849 34.0406V39.8841H70.0009V34.0406L63.5893 23.1884Z" fill="white"/>
<path fill-rule="evenodd" clip-rule="evenodd" d="M50.569 39.8841H47.4038L54.4878 23.1884H57.8153L65.0385 39.8841H61.7226L59.8211 35.3275H54.2675L55.3342 32.6377H58.6965L56.0762 26.3652L50.569 39.8841Z" fill="white"/>
<path fill-rule="evenodd" clip-rule="evenodd" d="M33.3864 39.8609V23.1768H40.969C44.3777 23.1768 46.082 24.6725 46.082 27.6522C46.082 30.6319 44.7603 31.3391 42.1052 32.6609L47.3922 39.8841H43.4849L38.4067 32.6145V31.2C41.3632 30.6899 42.8356 29.542 42.8356 27.7565C42.8356 25.971 42.14 25.9014 40.7603 25.9014H36.5168V39.8609H33.3864Z" fill="white"/>
<path fill-rule="evenodd" clip-rule="evenodd" d="M16.0878 30.0754C15.1023 30.3652 14.3719 31.2812 14.3719 32.3594C14.3719 33.4377 15.4385 34.7362 16.7487 34.7362C18.0588 34.7362 19.1255 33.6696 19.1255 32.3594C19.1255 31.0493 18.4067 30.3652 17.4095 30.0754V17.7159H18.14C18.8124 17.7159 19.369 18.2609 19.369 18.9449V28.742C20.3429 29.5768 20.969 30.8174 20.969 32.1971C20.969 34.8174 18.7661 36.8812 16.1574 36.7188C16.1574 37.2058 16.0994 40 15.4385 40C14.7777 40 14.6965 37.0319 14.7313 36.3942C13.9777 36.0928 13.398 35.6522 12.8878 35.0145C2.16317 44.2435 -3.1006 39.1188 1.9081 31.9072C2.48781 31.0029 3.16027 30.9333 3.9023 31.6985C5.15448 33.0087 6.17477 33.6232 6.97477 33.5536C6.95158 33.287 6.93998 33.0319 6.95158 32.7652C6.99796 30.0058 8.58636 27.629 10.882 26.4348C10.9052 22.5507 11.9487 19.2232 13.4211 17.7159V16.4638C13.4211 16.1043 13.711 15.8145 14.0704 15.8145H14.2559V15.0145C13.8038 14.9333 13.4907 14.7826 13.4907 14.6203C13.4907 14.458 13.8038 14.3072 14.2559 14.2261V13.5884C13.7922 13.5072 13.4907 13.3565 13.4907 13.1942C13.4907 13.0319 13.7922 12.8812 14.2559 12.8V12.2087C13.7922 12.1275 13.4907 11.9884 13.4907 11.8145C13.4907 11.6406 13.7922 11.5015 14.2559 11.4203V10.4928L11.2878 5.35652C11.1603 5.13623 11.1603 4.88116 11.2878 4.66087C11.4153 4.44058 11.6356 4.31304 11.8907 4.31304H14.7661V1.69275C14.4762 1.55362 14.2791 1.25217 14.2791 0.892754C14.2791 0.533334 14.6849 0 15.1719 0C15.6588 0 16.0646 0.405798 16.0646 0.892754C16.0646 1.37971 15.8675 1.54203 15.5777 1.69275V4.31304H18.453C18.7081 4.31304 18.9284 4.42899 19.0559 4.66087C19.1835 4.88116 19.1835 5.13623 19.0559 5.35652L16.0994 10.4928V11.4319C16.5632 11.513 16.8646 11.6638 16.8646 11.8261C16.8646 11.9884 16.5632 12.1391 16.0994 12.2203V12.8116C16.5632 12.8928 16.8646 13.0435 16.8646 13.2058C16.8646 13.3681 16.5632 13.5188 16.0994 13.6V14.2377C16.5632 14.3188 16.8646 14.4696 16.8646 14.6319C16.8646 14.7942 16.5632 14.9449 16.0994 15.0261V30.0754H16.0878ZM11.1255 29.7507C11.0559 29.2522 10.998 28.7304 10.9516 28.1971C9.5023 29.2174 8.53998 30.887 8.5052 32.8C8.5052 33.0319 8.5052 33.2638 8.52839 33.4841C9.61825 33.2638 10.7893 32.3942 10.3023 31.2232C10.1052 30.771 10.3719 30.2841 11.1139 29.7507H11.1255Z" fill="white"/>
<path fill-rule="evenodd" clip-rule="evenodd" d="M15.5313 32.3594C15.5313 31.6754 16.0762 31.1188 16.7603 31.1188C17.4443 31.1188 17.9893 31.6754 17.9893 32.3594C17.9893 33.0435 17.4443 33.5884 16.7603 33.5884C16.0762 33.5884 15.5313 33.0319 15.5313 32.3594Z" fill="white"/>
<path d="M46.0356 0.0231889V2.70145H41.2588V16.6957H38.1632V2.70145H33.3864V0.0231889H46.0356Z" fill="white"/>
<path d="M59.2066 0.0231889V2.67826H50.8588V6.87536H58.8125V9.63478H50.824V14.0058H59.369V16.6841H47.7864V0.0231889H59.2066Z" fill="white"/>
<path d="M63.9371 16.7072H60.7603L67.8443 0.034783H71.1719L78.4067 16.7072H75.0791L73.1777 12.1623H67.6356L68.7023 9.48406H72.0646L69.4443 3.22319L63.9487 16.7188L63.9371 16.7072Z" fill="white"/>
<path d="M80.4356 16.7072V0.0231889H83.6472L89.3052 12.6725L94.8472 0.0231889H97.9429V16.6957H95.0907V5.07826L90.569 16.6957H87.9371L83.3226 5.07826V16.6957H80.4704L80.4356 16.7072Z" fill="white"/>
</svg>
