<svg width="64" height="64" viewBox="0 0 64 64" fill="none" xmlns="http://www.w3.org/2000/svg">
<path d="M60 60V25.9325C60 25.3414 59.7385 24.7806 59.2857 24.4006L33.2857 2.57914C32.5422 1.95507 31.4578 1.95507 30.7143 2.57914L16.8214 14.2392C16.4961 14.5122 16 14.2809 16 13.8562V10C16 8.89546 15.1046 8.00003 14 8.00003H11C9.89543 8.00003 9 8.89546 9 10V19.8711C9 20.4622 8.73852 21.0231 8.28574 21.4031L4.71426 24.4006C4.26148 24.7806 4 25.3414 4 25.9325V60C4 61.1046 4.89543 62 6 62H58C59.1046 62 60 61.1046 60 60Z" fill="#808DFF" fill-opacity="0.2"/>
<path fill-rule="evenodd" clip-rule="evenodd" d="M30.0714 1.81316C31.1867 0.877059 32.8133 0.877058 33.9286 1.81316L59.9286 23.6346C60.6078 24.2046 61 25.0458 61 25.9325V60C61 61.6569 59.6569 63 58 63H6C4.34314 63 3 61.6569 3 60V25.9325C3 25.0459 3.39222 24.2046 4.07139 23.6346L7.64287 20.6371C7.86926 20.4471 8 20.1667 8 19.8711V10C8 8.34318 9.34314 7.00003 11 7.00003H14C15.6569 7.00003 17 8.34317 17 10V12.7838L30.0714 1.81316L30.7075 2.57109L30.0714 1.81316ZM32.6429 3.34511C32.2711 3.03308 31.7289 3.03307 31.3571 3.34511L17.4643 15.0052C16.4883 15.8243 15 15.1304 15 13.8562V10C15 9.44774 14.5523 9.00003 14 9.00003H11C10.4477 9.00003 10 9.44775 10 10V19.8711C10 20.7578 9.60778 21.599 8.92861 22.169L5.35713 25.1665C5.13074 25.3565 5 25.637 5 25.9325V60C5 60.5523 5.44772 61 6 61H58C58.5523 61 59 60.5523 59 60V25.9325C59 25.637 58.8693 25.3565 58.6429 25.1665L32.6429 3.34511Z" fill="#808DFF"/>
<path fill-rule="evenodd" clip-rule="evenodd" d="M32.8527 31.0449C34.1764 29.7714 35 27.9819 35 26C35 22.134 31.866 19 28 19C24.134 19 21 22.134 21 26C21 28.0542 21.8848 29.9017 23.2942 31.1823C19.6954 31.9639 17 35.1671 17 39V50H14C12.8954 50 12 50.8954 12 52V56C12 56.5523 12.4477 57 13 57C13.5523 57 14 56.5523 14 56V52H50V56C50 56.5523 50.4477 57 51 57C51.5523 57 52 56.5523 52 56V52C52 50.8954 51.1046 50 50 50H47.5L51.3462 40.7692C51.8951 39.4519 50.9272 38 49.5 38H39.9381C39.4808 34.3323 36.5407 31.4357 32.8527 31.0449ZM23 26C23 23.2386 25.2386 21 28 21C30.7614 21 33 23.2386 33 26C33 28.7614 30.7614 31 28 31C25.2386 31 23 28.7614 23 26ZM25 33C21.6863 33 19 35.6863 19 39V50H26.3333L27.5833 47H23C21.8954 47 21 46.1046 21 45V40C21 39.4477 21.4477 39 22 39C22.5523 39 23 39.4477 23 40V45H28.4167L30.8205 39.2308C31.1311 38.4855 31.8593 38 32.6667 38H37.917C37.441 35.1623 34.973 33 32 33H25ZM32.6667 40H49.5L45.3333 50H28.5L32.6667 40Z" fill="#90FFCA"/>
</svg>
