<svg width="160" height="160" viewBox="0 0 160 160" fill="none" xmlns="http://www.w3.org/2000/svg">
<rect x="1.4" y="1.4" width="157.2" height="157.2" rx="78.6" fill="#070810"/>
<rect x="1.4" y="1.4" width="157.2" height="157.2" rx="78.6" fill="url(#paint0_linear_1303_8766)" fill-opacity="0.2"/>
<rect x="1.4" y="1.4" width="157.2" height="157.2" rx="78.6" stroke="white" stroke-width="2.8"/>
<rect x="1.4" y="1.4" width="157.2" height="157.2" rx="78.6" stroke="url(#paint1_linear_1303_8766)" stroke-opacity="0.5" stroke-width="2.8"/>
<path fill-rule="evenodd" clip-rule="evenodd" d="M56.3436 47.5C49.0691 47.5 43.1719 53.3972 43.1719 60.6717C43.1719 67.9463 49.0691 73.8435 56.3436 73.8435C63.6182 73.8435 69.5153 67.9463 69.5153 60.6717C69.5153 53.3972 63.6182 47.5 56.3436 47.5ZM46.1719 60.6717C46.1719 55.054 50.7259 50.5 56.3436 50.5C61.9613 50.5 66.5153 55.054 66.5153 60.6717C66.5153 66.2894 61.9613 70.8435 56.3436 70.8435C50.7259 70.8435 46.1719 66.2894 46.1719 60.6717Z" fill="white"/>
<path fill-rule="evenodd" clip-rule="evenodd" d="M56.3436 47.5C49.0691 47.5 43.1719 53.3972 43.1719 60.6717C43.1719 67.9463 49.0691 73.8435 56.3436 73.8435C63.6182 73.8435 69.5153 67.9463 69.5153 60.6717C69.5153 53.3972 63.6182 47.5 56.3436 47.5ZM46.1719 60.6717C46.1719 55.054 50.7259 50.5 56.3436 50.5C61.9613 50.5 66.5153 55.054 66.5153 60.6717C66.5153 66.2894 61.9613 70.8435 56.3436 70.8435C50.7259 70.8435 46.1719 66.2894 46.1719 60.6717Z" fill="url(#paint2_linear_1303_8766)" fill-opacity="0.5"/>
<path fill-rule="evenodd" clip-rule="evenodd" d="M48.2173 75.0461C47.2503 73.7482 45.5196 73.2827 44.032 73.9202L34.3459 78.0714C32.5033 78.8611 31.6992 81.0341 32.5839 82.833L38.1075 94.0643C38.6962 95.2614 39.9142 96.0197 41.2482 96.0197H56.3055C56.1414 96.7656 56.219 97.5713 56.5839 98.3132L62.1075 109.545C62.6962 110.742 63.9142 111.5 65.2482 111.5H95.4387C96.7727 111.5 97.9907 110.742 98.5794 109.545L104.103 98.3132C104.468 97.5713 104.546 96.7656 104.381 96.0197H119.625C120.959 96.0197 122.177 95.2614 122.766 94.0643L128.29 82.833C129.174 81.0341 128.37 78.8611 126.528 78.0714L116.841 73.9202C115.354 73.2827 113.623 73.7482 112.656 75.0461L105.328 84.8817C105.233 85.0083 105.085 85.0829 104.927 85.0829H104.133C103.975 85.0829 103.827 85.0083 103.732 84.8817L96.4039 75.0461C95.6607 74.0486 94.4665 73.5428 93.2782 73.6515C92.11 67.5727 86.763 62.9802 80.3435 62.9802C73.9281 62.9802 68.5839 67.5667 67.4111 73.6395C66.2848 73.5964 65.1743 74.1002 64.4696 75.0461L57.1411 84.8817C57.0467 85.0083 56.8981 85.0829 56.7401 85.0829H55.9468C55.7889 85.0829 55.6402 85.0083 55.5458 84.8817L48.2173 75.0461ZM101.1 93.0197H119.625C119.816 93.0197 119.99 92.9114 120.074 92.7404L125.597 81.5091C125.724 81.2521 125.609 80.9417 125.346 80.8289L115.66 76.6777C115.447 76.5866 115.2 76.6531 115.062 76.8385L107.733 86.6741C107.073 87.5606 106.032 88.0829 104.927 88.0829H104.133C103.028 88.0829 101.987 87.5606 101.327 86.6741L93.9982 76.8385C93.8825 76.6832 93.6903 76.6114 93.5061 76.6456C93.3284 81.4695 90.5565 85.6309 86.5444 87.7757L88.1247 90.989L88.4696 90.5262C89.4366 89.2284 91.1673 88.7629 92.6549 89.4004L101.1 93.0197ZM86.1108 93.6919L83.7445 88.8804C82.6596 89.1696 81.5195 89.3237 80.3435 89.3237C79.227 89.3237 78.143 89.1848 77.1078 88.9233L74.6884 93.8427L79.5458 100.362C79.6402 100.488 79.7889 100.563 79.9468 100.563H80.7401C80.8981 100.563 81.0467 100.488 81.1411 100.362L86.1108 93.6919ZM72.6745 91.1398L74.2907 87.8537C70.199 85.7329 67.361 81.5292 67.1808 76.6464C67.0618 76.6696 66.9518 76.7358 66.8752 76.8385L59.5467 86.6741C58.8862 87.5606 57.8457 88.0829 56.7401 88.0829H55.9468C54.8413 88.0829 53.8007 87.5606 53.1402 86.6741L45.8117 76.8385C45.6736 76.6531 45.4263 76.5866 45.2138 76.6777L35.5277 80.8289C35.2644 80.9417 35.1496 81.2521 35.276 81.5091L40.7995 92.7404C40.8836 92.9114 41.0576 93.0197 41.2482 93.0197H59.587L68.032 89.4004C69.5196 88.7629 71.2503 89.2284 72.2173 90.5262L72.6745 91.1398ZM80.3435 65.9802C74.7258 65.9802 70.1717 70.5343 70.1717 76.152C70.1717 81.7696 74.7258 86.3237 80.3435 86.3237C85.9612 86.3237 90.5152 81.7696 90.5152 76.152C90.5152 70.5343 85.9612 65.9802 80.3435 65.9802ZM69.2138 92.1578C69.4263 92.0668 69.6735 92.1333 69.8117 92.3187L77.1402 102.154C77.8007 103.041 78.8413 103.563 79.9468 103.563H80.7401C81.8457 103.563 82.8862 103.041 83.5467 102.154L90.8752 92.3187C91.0134 92.1333 91.2606 92.0668 91.4731 92.1578L101.159 96.309C101.422 96.4218 101.537 96.7323 101.411 96.9893L95.8874 108.221C95.8033 108.392 95.6293 108.5 95.4387 108.5H65.2482C65.0576 108.5 64.8836 108.392 64.7995 108.221L59.276 96.9893C59.1496 96.7323 59.2644 96.4218 59.5277 96.309L69.2138 92.1578Z" fill="white"/>
<path fill-rule="evenodd" clip-rule="evenodd" d="M48.2173 75.0461C47.2503 73.7482 45.5196 73.2827 44.032 73.9202L34.3459 78.0714C32.5033 78.8611 31.6992 81.0341 32.5839 82.833L38.1075 94.0643C38.6962 95.2614 39.9142 96.0197 41.2482 96.0197H56.3055C56.1414 96.7656 56.219 97.5713 56.5839 98.3132L62.1075 109.545C62.6962 110.742 63.9142 111.5 65.2482 111.5H95.4387C96.7727 111.5 97.9907 110.742 98.5794 109.545L104.103 98.3132C104.468 97.5713 104.546 96.7656 104.381 96.0197H119.625C120.959 96.0197 122.177 95.2614 122.766 94.0643L128.29 82.833C129.174 81.0341 128.37 78.8611 126.528 78.0714L116.841 73.9202C115.354 73.2827 113.623 73.7482 112.656 75.0461L105.328 84.8817C105.233 85.0083 105.085 85.0829 104.927 85.0829H104.133C103.975 85.0829 103.827 85.0083 103.732 84.8817L96.4039 75.0461C95.6607 74.0486 94.4665 73.5428 93.2782 73.6515C92.11 67.5727 86.763 62.9802 80.3435 62.9802C73.9281 62.9802 68.5839 67.5667 67.4111 73.6395C66.2848 73.5964 65.1743 74.1002 64.4696 75.0461L57.1411 84.8817C57.0467 85.0083 56.8981 85.0829 56.7401 85.0829H55.9468C55.7889 85.0829 55.6402 85.0083 55.5458 84.8817L48.2173 75.0461ZM101.1 93.0197H119.625C119.816 93.0197 119.99 92.9114 120.074 92.7404L125.597 81.5091C125.724 81.2521 125.609 80.9417 125.346 80.8289L115.66 76.6777C115.447 76.5866 115.2 76.6531 115.062 76.8385L107.733 86.6741C107.073 87.5606 106.032 88.0829 104.927 88.0829H104.133C103.028 88.0829 101.987 87.5606 101.327 86.6741L93.9982 76.8385C93.8825 76.6832 93.6903 76.6114 93.5061 76.6456C93.3284 81.4695 90.5565 85.6309 86.5444 87.7757L88.1247 90.989L88.4696 90.5262C89.4366 89.2284 91.1673 88.7629 92.6549 89.4004L101.1 93.0197ZM86.1108 93.6919L83.7445 88.8804C82.6596 89.1696 81.5195 89.3237 80.3435 89.3237C79.227 89.3237 78.143 89.1848 77.1078 88.9233L74.6884 93.8427L79.5458 100.362C79.6402 100.488 79.7889 100.563 79.9468 100.563H80.7401C80.8981 100.563 81.0467 100.488 81.1411 100.362L86.1108 93.6919ZM72.6745 91.1398L74.2907 87.8537C70.199 85.7329 67.361 81.5292 67.1808 76.6464C67.0618 76.6696 66.9518 76.7358 66.8752 76.8385L59.5467 86.6741C58.8862 87.5606 57.8457 88.0829 56.7401 88.0829H55.9468C54.8413 88.0829 53.8007 87.5606 53.1402 86.6741L45.8117 76.8385C45.6736 76.6531 45.4263 76.5866 45.2138 76.6777L35.5277 80.8289C35.2644 80.9417 35.1496 81.2521 35.276 81.5091L40.7995 92.7404C40.8836 92.9114 41.0576 93.0197 41.2482 93.0197H59.587L68.032 89.4004C69.5196 88.7629 71.2503 89.2284 72.2173 90.5262L72.6745 91.1398ZM80.3435 65.9802C74.7258 65.9802 70.1717 70.5343 70.1717 76.152C70.1717 81.7696 74.7258 86.3237 80.3435 86.3237C85.9612 86.3237 90.5152 81.7696 90.5152 76.152C90.5152 70.5343 85.9612 65.9802 80.3435 65.9802ZM69.2138 92.1578C69.4263 92.0668 69.6735 92.1333 69.8117 92.3187L77.1402 102.154C77.8007 103.041 78.8413 103.563 79.9468 103.563H80.7401C81.8457 103.563 82.8862 103.041 83.5467 102.154L90.8752 92.3187C91.0134 92.1333 91.2606 92.0668 91.4731 92.1578L101.159 96.309C101.422 96.4218 101.537 96.7323 101.411 96.9893L95.8874 108.221C95.8033 108.392 95.6293 108.5 95.4387 108.5H65.2482C65.0576 108.5 64.8836 108.392 64.7995 108.221L59.276 96.9893C59.1496 96.7323 59.2644 96.4218 59.5277 96.309L69.2138 92.1578Z" fill="url(#paint3_linear_1303_8766)" fill-opacity="0.5"/>
<path fill-rule="evenodd" clip-rule="evenodd" d="M91.3584 60.6717C91.3584 53.3972 97.2556 47.5 104.53 47.5C111.805 47.5 117.702 53.3972 117.702 60.6717C117.702 67.9463 111.805 73.8435 104.53 73.8435C97.2556 73.8435 91.3584 67.9463 91.3584 60.6717ZM104.53 50.5C98.9124 50.5 94.3584 55.054 94.3584 60.6717C94.3584 66.2894 98.9124 70.8435 104.53 70.8435C110.148 70.8435 114.702 66.2894 114.702 60.6717C114.702 55.054 110.148 50.5 104.53 50.5Z" fill="white"/>
<path fill-rule="evenodd" clip-rule="evenodd" d="M91.3584 60.6717C91.3584 53.3972 97.2556 47.5 104.53 47.5C111.805 47.5 117.702 53.3972 117.702 60.6717C117.702 67.9463 111.805 73.8435 104.53 73.8435C97.2556 73.8435 91.3584 67.9463 91.3584 60.6717ZM104.53 50.5C98.9124 50.5 94.3584 55.054 94.3584 60.6717C94.3584 66.2894 98.9124 70.8435 104.53 70.8435C110.148 70.8435 114.702 66.2894 114.702 60.6717C114.702 55.054 110.148 50.5 104.53 50.5Z" fill="url(#paint4_linear_1303_8766)" fill-opacity="0.5"/>
<defs>
<linearGradient id="paint0_linear_1303_8766" x1="0" y1="80" x2="160" y2="80" gradientUnits="userSpaceOnUse">
<stop stop-color="#808DFF"/>
<stop offset="1" stop-color="#90FFCA"/>
</linearGradient>
<linearGradient id="paint1_linear_1303_8766" x1="0" y1="80" x2="160" y2="80" gradientUnits="userSpaceOnUse">
<stop stop-color="#808DFF"/>
<stop offset="1" stop-color="#90FFCA"/>
</linearGradient>
<linearGradient id="paint2_linear_1303_8766" x1="57.0001" y1="100.079" x2="103.687" y2="100.079" gradientUnits="userSpaceOnUse">
<stop stop-color="#808DFF"/>
<stop offset="1" stop-color="#90FFCA"/>
</linearGradient>
<linearGradient id="paint3_linear_1303_8766" x1="57.0001" y1="100.079" x2="103.687" y2="100.079" gradientUnits="userSpaceOnUse">
<stop stop-color="#808DFF"/>
<stop offset="1" stop-color="#90FFCA"/>
</linearGradient>
<linearGradient id="paint4_linear_1303_8766" x1="57.0001" y1="100.079" x2="103.687" y2="100.079" gradientUnits="userSpaceOnUse">
<stop stop-color="#808DFF"/>
<stop offset="1" stop-color="#90FFCA"/>
</linearGradient>
</defs>
</svg>
