<svg width="48" height="48" viewBox="0 0 48 48" fill="none" xmlns="http://www.w3.org/2000/svg">
<g clip-path="url(#clip0_1396_4404)">
<path fill-rule="evenodd" clip-rule="evenodd" d="M8.5 0.5H47.5V39.5H39.5V47.5H0.5V8.5H8.5V0.5ZM44.5 36.5H39.5V8.5H11.5V3.5H44.5V36.5ZM14.5 11.5L11.5 14.5V20.1569L20.1569 11.5H14.5ZM24.3995 11.5L11.5 24.3995V30.0564L30.0564 11.5H24.3995ZM34.299 11.5L11.5 34.299V36.5H14.9559L36.5 14.9559V11.5H34.299ZM36.5 19.1985L19.1985 36.5H24.8553L36.5 24.8553V19.1985ZM36.5 29.098L29.098 36.5H34.7548L36.5 34.7548V29.098ZM31.7548 39.5H26.098L21.098 44.5H26.7548L31.7548 39.5ZM30.9975 44.5L35.9975 39.5H36.5V44.5H30.9975ZM16.8553 44.5L21.8553 39.5H16.1985L11.1985 44.5H16.8553ZM6.95585 44.5L11.9559 39.5H8.5V37.299L3.5 42.299V44.5H6.95585ZM3.5 38.0564L8.5 33.0564V27.3995L3.5 32.3995V38.0564ZM3.5 28.1569L8.5 23.1569V17.5L3.5 22.5V28.1569ZM3.5 18.2574L8.5 13.2574V11.5H3.5V18.2574Z" fill="url(#paint0_linear_1396_4404)"/>
</g>
<defs>
<linearGradient id="paint0_linear_1396_4404" x1="47.5" y1="24" x2="0.5" y2="24" gradientUnits="userSpaceOnUse">
<stop stop-color="#808DFF"/>
<stop offset="1" stop-color="#90FFCA"/>
</linearGradient>
<clipPath id="clip0_1396_4404">
<rect width="48" height="48" fill="white"/>
</clipPath>
</defs>
</svg>
