<svg width="48" height="48" viewBox="0 0 48 48" fill="none" xmlns="http://www.w3.org/2000/svg">
<g clip-path="url(#clip0_1396_4332)">
<path fill-rule="evenodd" clip-rule="evenodd" d="M22.3727 0.697875C23.1704 -0.418823 24.83 -0.418823 25.6277 0.697875L29.6561 6.33764C30.6016 7.66138 29.6553 9.50012 28.0286 9.50012H25.5V18.189C26.0506 18.3307 26.5706 18.5486 27.0481 18.8308L39.4039 6.47504L37.6267 4.6979C36.4764 3.54761 37.1075 1.57833 38.7121 1.31089L45.5486 0.171489C46.9022 -0.0541183 48.0758 1.11943 47.8502 2.47307L46.7108 9.3095C46.4433 10.9141 44.474 11.5452 43.3238 10.3949L41.5252 8.59636L29.1694 20.9522C29.4515 21.4296 29.6693 21.9495 29.811 22.5H38.4999V19.9723C38.4999 18.3455 40.3386 17.3993 41.6624 18.3448L47.3021 22.3732C48.4188 23.1709 48.4188 24.8305 47.3021 25.6281L41.6624 29.6566C40.3386 30.6021 38.4999 29.6558 38.4999 28.0291V25.5H29.811C29.6693 26.0505 29.4515 26.5704 29.1694 27.0478L41.5355 39.4139L43.3236 37.6258C44.4739 36.4755 46.4432 37.1066 46.7106 38.7112L47.85 45.5476C48.0756 46.9012 46.9021 48.0748 45.5484 47.8492L38.712 46.7098C37.1074 46.4423 36.4763 44.4731 37.6266 43.3228L39.4141 41.5352L27.0481 29.1692C26.5706 29.4514 26.0506 29.6693 25.5 29.811V38.4999H28.0287C29.6554 38.4999 30.6017 40.3386 29.6562 41.6624L25.6278 47.3021C24.8301 48.4188 23.1705 48.4188 22.3728 47.3021L18.3444 41.6624C17.3989 40.3386 18.3451 38.4999 19.9719 38.4999H22.5V29.811C21.9494 29.6693 21.4294 29.4514 20.9519 29.1692L8.59587 41.5252L10.3943 43.3236C11.5445 44.4739 10.9135 46.4432 9.30885 46.7106L2.47242 47.85C1.11878 48.0756 -0.0547722 46.9021 0.170835 45.5484L1.31024 38.712C1.57768 37.1074 3.54696 36.4763 4.69724 37.6266L6.47455 39.4039L18.8306 27.0478C18.5485 26.5704 18.3307 26.0505 18.189 25.5H9.50012V28.0277C9.50012 29.6545 7.66138 30.6007 6.33764 29.6552L0.697875 25.6268C-0.418823 24.8291 -0.418823 23.1695 0.697875 22.3719L6.33764 18.3434C7.66138 17.3979 9.50012 18.3442 9.50012 19.9709V22.5H18.189C18.3307 21.9495 18.5485 21.4296 18.8306 20.9522L6.48482 8.60637L4.69741 10.3938C3.54712 11.5441 1.57784 10.913 1.3104 9.30836L0.171 2.47193C-0.0546067 1.11829 1.11894 -0.0552593 2.47259 0.170348L9.30902 1.30975C10.9136 1.57719 11.5447 3.54648 10.3944 4.69676L8.60614 6.48505L20.9519 18.8308C21.4294 18.5486 21.9494 18.3307 22.5 18.189V9.50012H19.9718C18.345 9.50012 17.3988 7.66138 18.3443 6.33764L22.3727 0.697875ZM24.0002 3.58082L21.915 6.50012H26.0854L24.0002 3.58082ZM44.4192 24.0007L41.4999 21.9155V26.0859L44.4192 24.0007ZM41.1221 3.95062L44.6608 3.36083L44.071 6.89956L41.1221 3.95062ZM44.6607 44.6598L44.0709 41.1211L41.1219 44.0701L44.6607 44.6598ZM26.0855 41.4999L24.0003 44.4192L21.9151 41.4999H26.0855ZM3.58082 23.9993L6.50012 26.0845L6.50012 21.9141L3.58082 23.9993ZM6.8989 44.0709L3.36018 44.6607L3.94996 41.1219L6.8989 44.0709ZM3.36034 3.35969L3.95013 6.89842L6.89907 3.94948L3.36034 3.35969ZM22 24C22 22.8954 22.8954 22 24 22C25.1046 22 26 22.8954 26 24C26 25.1046 25.1046 26 24 26C22.8954 26 22 25.1046 22 24Z" fill="url(#paint0_linear_1396_4332)"/>
</g>
<defs>
<linearGradient id="paint0_linear_1396_4332" x1="48.1396" y1="24" x2="-0.139648" y2="24" gradientUnits="userSpaceOnUse">
<stop stop-color="#808DFF"/>
<stop offset="1" stop-color="#90FFCA"/>
</linearGradient>
<clipPath id="clip0_1396_4332">
<rect width="48" height="48" fill="white"/>
</clipPath>
</defs>
</svg>
