<svg width="48" height="48" viewBox="0 0 48 48" fill="none" xmlns="http://www.w3.org/2000/svg">
<g clip-path="url(#clip0_1390_5418)">
<path fill-rule="evenodd" clip-rule="evenodd" d="M-1.5 10C-1.5 9.17157 -0.828427 8.5 0 8.5H6C7.38071 8.5 8.5 9.61929 8.5 11V11.5H15C15.8284 11.5 16.5 12.1716 16.5 13C16.5 13.8284 15.8284 14.5 15 14.5H8.5V28.5H9C9.51719 28.5 9.99789 28.7664 10.272 29.205L14.8314 36.5H16C16.8284 36.5 17.5 37.1716 17.5 38C17.5 38.8284 16.8284 39.5 16 39.5H14.5542C13.6923 39.5 12.8911 39.056 12.4343 38.325L8.49982 32.0299C8.4838 33.3968 7.37073 34.5 6 34.5H0C-0.828427 34.5 -1.5 33.8284 -1.5 33C-1.5 32.1716 -0.828427 31.5 0 31.5H5.5V11.5H0C-0.828427 11.5 -1.5 10.8284 -1.5 10ZM22.9478 11.5C22.7978 11.5 22.6557 11.5673 22.5608 11.6834L15.2599 20.6067L17.4327 21.9103C17.6295 22.0284 17.8813 21.9974 18.0435 21.8352L22.9393 16.9393C23.2206 16.658 23.6022 16.5 24 16.5H28C28.5383 16.5 29.0353 16.7884 29.3024 17.2558L36.8705 30.5H39.5V15.7719L33.6497 11.5931C33.5649 11.5326 33.4633 11.5 33.3591 11.5H22.9478ZM39.6366 12.1828L35.3934 9.15193C34.7998 8.72793 34.0886 8.5 33.3591 8.5H22.9478C21.898 8.5 20.9037 8.97119 20.2389 9.78367L12.5717 19.1547C11.6061 20.3348 11.9129 22.097 13.2204 22.8815L15.8892 24.4828C17.2664 25.3091 19.0292 25.0921 20.1648 23.9565L24.6213 19.5H27.1295L34.2618 31.9815L32.9333 34.1957L28.2481 27.1679C27.7885 26.4787 26.8572 26.2924 26.1679 26.7519C25.4787 27.2115 25.2924 28.1428 25.7519 28.8321L31.3137 37.1746C32.1281 38.3963 33.9373 38.3532 34.6927 37.0942L36.8493 33.5H39.5V34C39.5 35.3807 40.6193 36.5 42 36.5H48C48.8284 36.5 49.5 35.8284 49.5 35C49.5 34.1716 48.8284 33.5 48 33.5H42.5V13.5H48C48.8284 13.5 49.5 12.8284 49.5 12C49.5 11.1716 48.8284 10.5 48 10.5H42C40.9055 10.5 39.9752 11.2034 39.6366 12.1828ZM21.1281 29.7794C21.8023 29.2979 22.7391 29.454 23.2206 30.1281L27.7719 36.5H29C29.8284 36.5 30.5 37.1716 30.5 38C30.5 38.8284 29.8284 39.5 29 39.5H27.5146C26.7072 39.5 25.9496 39.1101 25.4803 38.4531L20.7794 31.8719C20.2979 31.1977 20.454 30.2609 21.1281 29.7794ZM17.2283 32.7138C17.9386 32.2875 18.86 32.5179 19.2862 33.2283L21.8493 37.5H23C23.8284 37.5 24.5 38.1716 24.5 39C24.5 39.8284 23.8284 40.5 23 40.5H21.5662C20.688 40.5 19.8743 40.0393 19.4225 39.2862L16.7138 34.7717C16.2875 34.0614 16.5179 33.14 17.2283 32.7138Z" fill="url(#paint0_linear_1390_5418)"/>
</g>
<defs>
<linearGradient id="paint0_linear_1390_5418" x1="49.5" y1="24.5" x2="-1.5" y2="24.5" gradientUnits="userSpaceOnUse">
<stop stop-color="#808DFF"/>
<stop offset="1" stop-color="#90FFCA"/>
</linearGradient>
<clipPath id="clip0_1390_5418">
<rect width="48" height="48" fill="white"/>
</clipPath>
</defs>
</svg>
