<svg width="48" height="48" viewBox="0 0 48 48" fill="none" xmlns="http://www.w3.org/2000/svg">
<g clip-path="url(#clip0_1391_4210)">
<path fill-rule="evenodd" clip-rule="evenodd" d="M38.1052 44.2385C36.7769 44.6292 35.463 43.5845 35.5443 42.2023L35.9469 35.3586C36.0414 33.7528 37.8967 32.9098 39.1683 33.895L41.0646 35.3642C43.2352 32.1119 44.5 28.2053 44.5 24C44.5 12.6782 35.3218 3.5 24 3.5C21.3671 3.5 18.8536 3.9956 16.5451 4.89722L15.4537 2.10279C18.1044 1.06751 20.9877 0.5 24 0.5C36.9787 0.500003 47.5 11.0213 47.5 24C47.5 28.8778 46.0124 33.4115 43.4668 37.168L45.5599 38.6892C46.9026 39.6651 46.5408 41.7574 44.9484 42.2258L38.1052 44.2385ZM38.6226 40.9592L42.1521 39.9211L40.4718 38.6999L38.8303 37.4282L38.6226 40.9592Z" fill="url(#paint0_linear_1391_4210)"/>
<path fill-rule="evenodd" clip-rule="evenodd" d="M9.89479 3.76142C11.2231 3.37074 12.537 4.41541 12.4557 5.79759L12.0531 12.6413C11.9586 14.2471 10.1033 15.0901 8.83166 14.1049L6.93537 12.6357C4.76479 15.888 3.5 19.7946 3.5 23.9999C3.5 35.3217 12.6782 44.4999 24 44.4999C26.5844 44.4999 29.0538 44.0224 31.3272 43.1521L32.3997 45.9538C29.7894 46.9531 26.9568 47.4999 24 47.4999C11.0213 47.4999 0.5 36.9786 0.5 23.9999C0.5 19.1221 1.9876 14.5884 4.53319 10.8319L2.44013 9.31069C1.09741 8.33482 1.4592 6.24247 3.05162 5.77411L9.89479 3.76142ZM9.37736 7.04067L5.84787 8.07875L7.52825 9.30003L9.16965 10.5717L9.37736 7.04067Z" fill="url(#paint1_linear_1391_4210)"/>
<path d="M25.5 8.99994C25.5 8.17152 24.8284 7.49994 24 7.49994C23.1716 7.49994 22.5 8.17152 22.5 8.99994V23.9999C22.5 24.8284 23.1716 25.4999 24 25.4999H34C34.8284 25.4999 35.5 24.8284 35.5 23.9999C35.5 23.1715 34.8284 22.4999 34 22.4999H25.5V8.99994Z" fill="url(#paint2_linear_1391_4210)"/>
<path d="M8 22.4999C7.17157 22.4999 6.5 23.1715 6.5 23.9999C6.5 24.8284 7.17157 25.4999 8 25.4999H12C12.8284 25.4999 13.5 24.8284 13.5 23.9999C13.5 23.1715 12.8284 22.4999 12 22.4999H8Z" fill="url(#paint3_linear_1391_4210)"/>
<path d="M25.5 35.9999C25.5 35.1715 24.8284 34.4999 24 34.4999C23.1716 34.4999 22.5 35.1715 22.5 35.9999V39.9999C22.5 40.8284 23.1716 41.4999 24 41.4999C24.8284 41.4999 25.5 40.8284 25.5 39.9999V35.9999Z" fill="url(#paint4_linear_1391_4210)"/>
</g>
<defs>
<linearGradient id="paint0_linear_1391_4210" x1="47.5" y1="23.9999" x2="0.5" y2="23.9999" gradientUnits="userSpaceOnUse">
<stop stop-color="#808DFF"/>
<stop offset="1" stop-color="#90FFCA"/>
</linearGradient>
<linearGradient id="paint1_linear_1391_4210" x1="47.5" y1="23.9999" x2="0.5" y2="23.9999" gradientUnits="userSpaceOnUse">
<stop stop-color="#808DFF"/>
<stop offset="1" stop-color="#90FFCA"/>
</linearGradient>
<linearGradient id="paint2_linear_1391_4210" x1="47.5" y1="23.9999" x2="0.5" y2="23.9999" gradientUnits="userSpaceOnUse">
<stop stop-color="#808DFF"/>
<stop offset="1" stop-color="#90FFCA"/>
</linearGradient>
<linearGradient id="paint3_linear_1391_4210" x1="47.5" y1="23.9999" x2="0.5" y2="23.9999" gradientUnits="userSpaceOnUse">
<stop stop-color="#808DFF"/>
<stop offset="1" stop-color="#90FFCA"/>
</linearGradient>
<linearGradient id="paint4_linear_1391_4210" x1="47.5" y1="23.9999" x2="0.5" y2="23.9999" gradientUnits="userSpaceOnUse">
<stop stop-color="#808DFF"/>
<stop offset="1" stop-color="#90FFCA"/>
</linearGradient>
<clipPath id="clip0_1391_4210">
<rect width="48" height="48" fill="white"/>
</clipPath>
</defs>
</svg>
